InterAlia-Regular.ufo
<glyph name="exclam" format="2">
  <advance height="2479" width="570"/>
  <unicode hex="0021"/>
  <outline>
    <contour>
      <point x="384" y="1489" type="line"/>
      <point x="186" y="1489" type="line"/>
      <point x="201" y="419" type="line"/>
      <point x="369" y="419" type="line"/>
    </contour>
    <component base="period" xOffset="3"/>
  </outline>
</glyph>
<glyph name="numbersign" format="2">
  <advance height="2479" width="1292"/>
  <unicode hex="0023"/>
  <outline>
    <contour>
      <point x="713" y="0" type="line"/>
      <point x="858" y="0" type="line"/>
      <point x="1103" y="1489" type="line"/>
      <point x="957" y="1489" type="line"/>
    </contour>
    <contour>
      <point x="35" y="413" type="line"/>
      <point x="1146" y="413" type="line"/>
      <point x="1169" y="559" type="line"/>
      <point x="58" y="559" type="line"/>
    </contour>
    <contour>
      <point x="189" y="0" type="line"/>
      <point x="335" y="0" type="line"/>
      <point x="579" y="1489" type="line"/>
      <point x="433" y="1489" type="line"/>
    </contour>
    <contour>
      <point x="122" y="931" type="line"/>
      <point x="1233" y="931" type="line"/>
      <point x="1257" y="1076" type="line"/>
      <point x="145" y="1076" type="line"/>
    </contour>
  </outline>
</glyph>
<glyph name="dollar" format="2">
  <advance height="2479" width="1306"/>
  <unicode hex="0024"/>
  <anchor x="655" y="-26" name="bottom"/>
  <anchor x="655" y="0" name="cedilla"/>
  <anchor x="652" y="1676" name="top"/>
  <outline>
    <contour>
      <point x="593" y="-186" type="line"/>
      <point x="713" y="-186" type="line"/>
      <point x="713" y="1676" type="line"/>
      <point x="593" y="1676" type="line"/>
    </contour>
    <component base="S"/>
  </outline>
</glyph>
<glyph name="parenleft" format="2">
  <advance height="2479" width="742"/>
  <unicode hex="0028"/>
  <outline>
    <contour>
      <point x="218" y="628" type="curve" smooth="yes"/>
      <point x="218" y="262"/>
      <point x="317" y="-44"/>
      <point x="495" y="-303" type="curve"/>
      <point x="646" y="-303" type="line"/>
      <point x="506" y="-111"/>
      <point x="396" y="282"/>
      <point x="396" y="628" type="curve" smooth="yes"/>
      <point x="396" y="975"/>
      <point x="506" y="1367"/>
      <point x="646" y="1559" type="curve"/>
      <point x="495" y="1559" type="line"/>
      <point x="317" y="1300"/>
      <point x="218" y="995"/>
    </contour>
  </outline>
</glyph>
<glyph name="asterisk" format="2">
  <advance height="2479" width="1024"/>
  <unicode hex="002A"/>
  <outline>
    <contour>
      <point x="442" y="652" type="line"/>
      <point x="582" y="652" type="line"/>
      <point x="570" y="972" type="line"/>
      <point x="841" y="800" type="line"/>
      <point x="911" y="922" type="line"/>
      <point x="625" y="1071" type="line"/>
      <point x="911" y="1219" type="line"/>
      <point x="841" y="1341" type="line"/>
      <point x="570" y="1169" type="line"/>
      <point x="582" y="1489" type="line"/>
      <point x="442" y="1489" type="line"/>
      <point x="454" y="1169" type="line"/>
      <point x="183" y="1341" type="line"/>
      <point x="113" y="1219" type="line"/>
      <point x="399" y="1071" type="line"/>
      <point x="113" y="922" type="line"/>
      <point x="183" y="800" type="line"/>
      <point x="454" y="972" type="line"/>
    </contour>
  </outline>
</glyph>
<glyph name="plus" format="2">
  <advance height="2479" width="1350"/>
  <unicode hex="002B"/>
  <outline>
    <contour>
      <point x="593" y="102" type="line"/>
      <point x="756" y="102" type="line"/>
      <point x="756" y="1062" type="line"/>
      <point x="593" y="1062" type="line"/>
    </contour>
    <contour>
      <point x="195" y="500" type="line"/>
      <point x="1155" y="500" type="line"/>
      <point x="1155" y="663" type="line"/>
      <point x="195" y="663" type="line"/>
    </contour>
  </outline>
</glyph>
<glyph name="comma" format="2">
  <advance height="2479" width="573"/>
  <unicode hex="002C"/>
  <outline>
    <contour>
      <point x="413" y="204" type="line"/>
      <point x="227" y="204" type="line"/>
      <point x="218" y="122" type="line" smooth="yes"/>
      <point x="197" y="-75"/>
      <point x="156" y="-271"/>
      <point x="137" y="-364" type="curve"/>
      <point x="268" y="-364" type="line"/>
      <point x="303" y="-265"/>
      <point x="377" y="-41"/>
      <point x="401" y="125" type="curve" smooth="yes"/>
    </contour>
  </outline>
</glyph>
<glyph name="period" format="2">
  <advance height="2479" width="564"/>
  <unicode hex="002E"/>
  <outline>
    <contour>
      <point x="282" y="-12" type="curve" smooth="yes"/>
      <point x="354" y="-12"/>
      <point x="413" y="47"/>
      <point x="413" y="119" type="curve" smooth="yes"/>
      <point x="413" y="191"/>
      <point x="354" y="250"/>
      <point x="282" y="250" type="curve" smooth="yes"/>
      <point x="210" y="250"/>
      <point x="151" y="191"/>
      <point x="151" y="119" type="curve" smooth="yes"/>
      <point x="151" y="47"/>
      <point x="210" y="-12"/>
    </contour>
  </outline>
</glyph>
<glyph name="slash" format="2">
  <advance height="2479" width="730"/>
  <unicode hex="002F"/>
  <outline>
    <contour>
      <point x="684" y="1559" type="line"/>
      <point x="527" y="1559" type="line"/>
      <point x="47" y="-224" type="line"/>
      <point x="204" y="-224" type="line"/>
    </contour>
  </outline>
</glyph>
<glyph name="one" format="2">
  <advance height="2479" width="951"/>
  <unicode hex="0031"/>
  <outline>
    <contour>
      <point x="678" y="1489" type="line"/>
      <point x="497" y="1489" type="line"/>
      <point x="125" y="1242" type="line"/>
      <point x="125" y="1059" type="line"/>
      <point x="489" y="1300" type="line"/>
      <point x="497" y="1300" type="line"/>
      <point x="497" y="0" type="line"/>
      <point x="678" y="0" type="line"/>
    </contour>
  </outline>
</glyph>
<glyph name="three" format="2">
  <advance height="2479" width="1303"/>
  <unicode hex="0033"/>
  <outline>
    <contour>
      <point x="657" y="-20" type="curve" smooth="yes"/>
      <point x="946" y="-20"/>
      <point x="1161" y="161"/>
      <point x="1161" y="404" type="curve" smooth="yes"/>
      <point x="1161" y="593"/>
      <point x="1049" y="731"/>
      <point x="861" y="762" type="curve"/>
      <point x="861" y="774" type="line"/>
      <point x="1012" y="820"/>
      <point x="1105" y="943"/>
      <point x="1105" y="1111" type="curve" smooth="yes"/>
      <point x="1105" y="1322"/>
      <point x="939" y="1510"/>
      <point x="663" y="1510" type="curve" smooth="yes"/>
      <point x="406" y="1510"/>
      <point x="192" y="1351"/>
      <point x="183" y="1117" type="curve"/>
      <point x="358" y="1117" type="line"/>
      <point x="364" y="1265"/>
      <point x="505" y="1353"/>
      <point x="660" y="1353" type="curve" smooth="yes"/>
      <point x="825" y="1353"/>
      <point x="931" y="1253"/>
      <point x="931" y="1103" type="curve" smooth="yes"/>
      <point x="931" y="945"/>
      <point x="808" y="844"/>
      <point x="631" y="844" type="curve" smooth="yes"/>
      <point x="512" y="844" type="line"/>
      <point x="512" y="684" type="line"/>
      <point x="631" y="684" type="line" smooth="yes"/>
      <point x="857" y="684"/>
      <point x="983" y="569"/>
      <point x="983" y="404" type="curve" smooth="yes"/>
      <point x="983" y="247"/>
      <point x="846" y="140"/>
      <point x="655" y="140" type="curve" smooth="yes"/>
      <point x="482" y="140"/>
      <point x="345" y="228"/>
      <point x="335" y="372" type="curve"/>
      <point x="151" y="372" type="line"/>
      <point x="162" y="138"/>
      <point x="369" y="-20"/>
    </contour>
  </outline>
</glyph>
<glyph name="five" format="2">
  <advance height="2479" width="1245"/>
  <unicode hex="0035"/>
  <outline>
    <contour>
      <point x="620" y="-20" type="curve" smooth="yes"/>
      <point x="903" y="-20"/>
      <point x="1111" y="189"/>
      <point x="1111" y="474" type="curve" smooth="yes"/>
      <point x="1111" y="763"/>
      <point x="911" y="975"/>
      <point x="637" y="975" type="curve" smooth="yes"/>
      <point x="537" y="975"/>
      <point x="439" y="939"/>
      <point x="378" y="890" type="curve"/>
      <point x="369" y="890" type="line"/>
      <point x="422" y="1329" type="line"/>
      <point x="1044" y="1329" type="line"/>
      <point x="1044" y="1489" type="line"/>
      <point x="271" y="1489" type="line"/>
      <point x="180" y="756" type="line"/>
      <point x="349" y="736" type="line"/>
      <point x="411" y="780"/>
      <point x="516" y="812"/>
      <point x="608" y="812" type="curve" smooth="yes"/>
      <point x="798" y="810"/>
      <point x="937" y="666"/>
      <point x="937" y="471" type="curve" smooth="yes"/>
      <point x="937" y="280"/>
      <point x="803" y="140"/>
      <point x="620" y="140" type="curve" smooth="yes"/>
      <point x="467" y="140"/>
      <point x="345" y="238"/>
      <point x="332" y="372" type="curve"/>
      <point x="157" y="372" type="line"/>
      <point x="168" y="145"/>
      <point x="364" y="-20"/>
    </contour>
  </outline>
</glyph>
<glyph name="six" format="2">
  <advance height="2479" width="1277"/>
  <unicode hex="0036"/>
  <outline>
    <contour>
      <point x="649" y="-20" type="curve" smooth="yes"/>
      <point x="950" y="-24"/>
      <point x="1146" y="203"/>
      <point x="1146" y="480" type="curve" smooth="yes"/>
      <point x="1146" y="768"/>
      <point x="933" y="975"/>
      <point x="678" y="975" type="curve" smooth="yes"/>
      <point x="524" y="975"/>
      <point x="393" y="900"/>
      <point x="311" y="777" type="curve"/>
      <point x="300" y="777" type="line"/>
      <point x="300" y="1140"/>
      <point x="441" y="1350"/>
      <point x="672" y="1350" type="curve" smooth="yes"/>
      <point x="829" y="1350"/>
      <point x="924" y="1251"/>
      <point x="957" y="1117" type="curve"/>
      <point x="1135" y="1117" type="line"/>
      <point x="1098" y="1348"/>
      <point x="922" y="1510"/>
      <point x="672" y="1510" type="curve" smooth="yes"/>
      <point x="337" y="1510"/>
      <point x="131" y="1213"/>
      <point x="131" y="687" type="curve" smooth="yes"/>
      <point x="131" y="136"/>
      <point x="404" y="-17"/>
    </contour>
    <contour>
      <point x="649" y="140" type="curve" smooth="yes"/>
      <point x="462" y="140"/>
      <point x="325" y="299"/>
      <point x="326" y="477" type="curve" smooth="yes"/>
      <point x="327" y="655"/>
      <point x="470" y="815"/>
      <point x="655" y="815" type="curve" smooth="yes"/>
      <point x="837" y="815"/>
      <point x="972" y="665"/>
      <point x="972" y="480" type="curve" smooth="yes"/>
      <point x="972" y="291"/>
      <point x="831" y="140"/>
    </contour>
  </outline>
</glyph>
<glyph name="eight" format="2">
  <advance height="2479" width="1263"/>
  <unicode hex="0038"/>
  <outline>
    <contour>
      <point x="631" y="-20" type="curve" smooth="yes"/>
      <point x="929" y="-20"/>
      <point x="1136" y="153"/>
      <point x="1137" y="396" type="curve" smooth="yes"/>
      <point x="1136" y="584"/>
      <point x="1010" y="744"/>
      <point x="849" y="774" type="curve"/>
      <point x="849" y="783" type="line"/>
      <point x="989" y="819"/>
      <point x="1081" y="956"/>
      <point x="1082" y="1114" type="curve" smooth="yes"/>
      <point x="1081" y="1341"/>
      <point x="890" y="1510"/>
      <point x="631" y="1510" type="curve" smooth="yes"/>
      <point x="369" y="1510"/>
      <point x="179" y="1341"/>
      <point x="180" y="1114" type="curve" smooth="yes"/>
      <point x="179" y="956"/>
      <point x="271" y="819"/>
      <point x="413" y="783" type="curve"/>
      <point x="413" y="774" type="line"/>
      <point x="249" y="744"/>
      <point x="124" y="584"/>
      <point x="125" y="396" type="curve" smooth="yes"/>
      <point x="124" y="153"/>
      <point x="331" y="-20"/>
    </contour>
    <contour>
      <point x="631" y="140" type="curve" smooth="yes"/>
      <point x="427" y="140"/>
      <point x="301" y="244"/>
      <point x="303" y="404" type="curve" smooth="yes"/>
      <point x="301" y="572"/>
      <point x="440" y="692"/>
      <point x="631" y="692" type="curve" smooth="yes"/>
      <point x="820" y="692"/>
      <point x="959" y="572"/>
      <point x="960" y="404" type="curve" smooth="yes"/>
      <point x="959" y="244"/>
      <point x="833" y="140"/>
    </contour>
    <contour>
      <point x="631" y="847" type="curve" smooth="yes"/>
      <point x="468" y="847"/>
      <point x="353" y="948"/>
      <point x="355" y="1103" type="curve" smooth="yes"/>
      <point x="353" y="1254"/>
      <point x="464" y="1353"/>
      <point x="631" y="1353" type="curve" smooth="yes"/>
      <point x="796" y="1353"/>
      <point x="906" y="1254"/>
      <point x="908" y="1103" type="curve" smooth="yes"/>
      <point x="906" y="948"/>
      <point x="791" y="847"/>
    </contour>
  </outline>
</glyph>
<glyph name="nine" format="2">
  <advance height="2479" width="1277"/>
  <unicode hex="0039"/>
  <outline>
    <contour>
      <point x="628" y="1510" type="curve" smooth="yes"/>
      <point x="326" y="1513"/>
      <point x="131" y="1286"/>
      <point x="131" y="1012" type="curve" smooth="yes"/>
      <point x="131" y="724"/>
      <point x="343" y="518"/>
      <point x="599" y="518" type="curve" smooth="yes"/>
      <point x="753" y="518"/>
      <point x="884" y="593"/>
      <point x="966" y="716" type="curve"/>
      <point x="977" y="716" type="line"/>
      <point x="977" y="349"/>
      <point x="835" y="140"/>
      <point x="605" y="140" type="curve" smooth="yes"/>
      <point x="448" y="140"/>
      <point x="352" y="239"/>
      <point x="320" y="375" type="curve"/>
      <point x="143" y="375" type="line"/>
      <point x="177" y="140"/>
      <point x="355" y="-20"/>
      <point x="605" y="-20" type="curve" smooth="yes"/>
      <point x="940" y="-20"/>
      <point x="1146" y="276"/>
      <point x="1146" y="806" type="curve" smooth="yes"/>
      <point x="1146" y="1353"/>
      <point x="873" y="1507"/>
    </contour>
    <contour>
      <point x="628" y="1350" type="curve" smooth="yes"/>
      <point x="815" y="1350"/>
      <point x="951" y="1190"/>
      <point x="951" y="1015" type="curve" smooth="yes"/>
      <point x="951" y="838"/>
      <point x="806" y="678"/>
      <point x="623" y="678" type="curve" smooth="yes"/>
      <point x="439" y="678"/>
      <point x="305" y="826"/>
      <point x="305" y="1012" type="curve" smooth="yes"/>
      <point x="305" y="1199"/>
      <point x="445" y="1350"/>
    </contour>
  </outline>
</glyph>
<glyph name="equal" format="2">
  <advance height="2479" width="1350"/>
  <unicode hex="003D"/>
  <outline>
    <contour>
      <point x="227" y="719" type="line"/>
      <point x="1123" y="719" type="line"/>
      <point x="1123" y="876" type="line"/>
      <point x="227" y="876" type="line"/>
    </contour>
    <contour>
      <point x="227" y="288" type="line"/>
      <point x="1123" y="288" type="line"/>
      <point x="1123" y="445" type="line"/>
      <point x="227" y="445" type="line"/>
    </contour>
  </outline>
</glyph>
<glyph name="greater" format="2">
  <advance height="2479" width="1350"/>
  <unicode hex="003E"/>
  <outline>
    <contour>
      <point x="1143" y="524" type="line"/>
      <point x="1143" y="640" type="line"/>
      <point x="207" y="1117" type="line"/>
      <point x="207" y="931" type="line"/>
      <point x="925" y="585" type="line"/>
      <point x="919" y="596" type="line"/>
      <point x="919" y="567" type="line"/>
      <point x="925" y="579" type="line"/>
      <point x="207" y="233" type="line"/>
      <point x="207" y="47" type="line"/>
    </contour>
  </outline>
</glyph>
<glyph name="B" format="2">
  <advance height="2479" width="1332"/>
  <unicode hex="0042"/>
  <anchor x="646" y="0" name="bottom"/>
  <anchor x="637" y="1676" name="top"/>
  <outline>
    <contour>
      <point x="180" y="0" type="line"/>
      <point x="719" y="0" type="line" smooth="yes"/>
      <point x="1071" y="0"/>
      <point x="1216" y="172"/>
      <point x="1216" y="396" type="curve" smooth="yes"/>
      <point x="1216" y="631"/>
      <point x="1053" y="759"/>
      <point x="916" y="768" type="curve"/>
      <point x="916" y="783" type="line"/>
      <point x="1044" y="817"/>
      <point x="1158" y="902"/>
      <point x="1158" y="1094" type="curve" smooth="yes"/>
      <point x="1158" y="1312"/>
      <point x="1012" y="1489"/>
      <point x="701" y="1489" type="curve" smooth="yes"/>
      <point x="180" y="1489" type="line"/>
    </contour>
    <contour>
      <point x="361" y="160" type="line"/>
      <point x="361" y="678" type="line"/>
      <point x="727" y="678" type="line" smooth="yes"/>
      <point x="922" y="678"/>
      <point x="1044" y="547"/>
      <point x="1044" y="396" type="curve" smooth="yes"/>
      <point x="1044" y="265"/>
      <point x="954" y="160"/>
      <point x="719" y="160" type="curve" smooth="yes"/>
    </contour>
    <contour>
      <point x="361" y="835" type="line"/>
      <point x="361" y="1329" type="line"/>
      <point x="701" y="1329" type="line" smooth="yes"/>
      <point x="899" y="1329"/>
      <point x="986" y="1225"/>
      <point x="986" y="1094" type="curve" smooth="yes"/>
      <point x="986" y="937"/>
      <point x="858" y="835"/>
      <point x="695" y="835" type="curve" smooth="yes"/>
    </contour>
  </outline>
</glyph>
<glyph name="C" format="2">
  <advance height="2479" width="1489"/>
  <unicode hex="0043"/>
  <anchor x="780" y="-12" name="cedilla"/>
  <anchor x="780" y="1676" name="top"/>
  <outline>
    <contour>
      <point x="1379" y="1024" type="line"/>
      <point x="1324" y="1329"/>
      <point x="1079" y="1510"/>
      <point x="780" y="1510" type="curve" smooth="yes"/>
      <point x="399" y="1510"/>
      <point x="122" y="1216"/>
      <point x="122" y="745" type="curve"/>
      <point x="122" y="273"/>
      <point x="399" y="-20"/>
      <point x="780" y="-20" type="curve" smooth="yes"/>
      <point x="1079" y="-20"/>
      <point x="1324" y="160"/>
      <point x="1379" y="465" type="curve"/>
      <point x="1199" y="465" type="line"/>
      <point x="1155" y="259"/>
      <point x="977" y="148"/>
      <point x="780" y="148" type="curve" smooth="yes"/>
      <point x="509" y="148"/>
      <point x="297" y="358"/>
      <point x="297" y="745" type="curve"/>
      <point x="297" y="1132"/>
      <point x="509" y="1341"/>
      <point x="780" y="1341" type="curve" smooth="yes"/>
      <point x="977" y="1341"/>
      <point x="1155" y="1231"/>
      <point x="1199" y="1024" type="curve"/>
    </contour>
  </outline>
</glyph>
<glyph name="D" format="2">
  <advance height="2479" width="1472"/>
  <unicode hex="0044"/>
  <anchor x="623" y="0" name="bottom"/>
  <anchor x="271" y="768" name="cross"/>
  <anchor x="617" y="1676" name="top"/>
  <outline>
    <contour>
      <point x="640" y="0" type="line" smooth="yes"/>
      <point x="1094" y="0"/>
      <point x="1350" y="282"/>
      <point x="1350" y="748" type="curve" smooth="yes"/>
      <point x="1350" y="1210"/>
      <point x="1094" y="1489"/>
      <point x="660" y="1489" type="curve" smooth="yes"/>
      <point x="273" y="1489" type="line"/>
      <point x="273" y="1329" type="line"/>
      <point x="649" y="1329" type="line" smooth="yes"/>
      <point x="998" y="1329"/>
      <point x="1175" y="1108"/>
      <point x="1175" y="748" type="curve" smooth="yes"/>
      <point x="1175" y="384"/>
      <point x="998" y="160"/>
      <point x="628" y="160" type="curve" smooth="yes"/>
      <point x="282" y="160" type="line"/>
      <point x="282" y="0" type="line"/>
    </contour>
    <contour>
      <point x="361" y="1489" type="line"/>
      <point x="180" y="1489" type="line"/>
      <point x="180" y="0" type="line"/>
      <point x="361" y="0" type="line"/>
    </contour>
  </outline>
</glyph>
<glyph name="E" format="2">
  <advance height="2479" width="1225"/>
  <unicode hex="0045"/>
  <anchor x="614" y="0" name="bottom"/>
  <anchor x="617" y="0" name="cedilla"/>
  <anchor x="1091" y="0" name="ogonek"/>
  <anchor x="134" y="1489" name="tonos"/>
  <anchor x="628" y="1676" name="top"/>
  <outline>
    <contour>
      <point x="180" y="0" type="line"/>
      <point x="1091" y="0" type="line"/>
      <point x="1091" y="160" type="line"/>
      <point x="361" y="160" type="line"/>
      <point x="361" y="666" type="line"/>
      <point x="1033" y="666" type="line"/>
      <point x="1033" y="826" type="line"/>
      <point x="361" y="826" type="line"/>
      <point x="361" y="1329" type="line"/>
      <point x="1079" y="1329" type="line"/>
      <point x="1079" y="1489" type="line"/>
      <point x="180" y="1489" type="line"/>
    </contour>
  </outline>
</glyph>
<glyph name="F" format="2">
  <advance height="2479" width="1201"/>
  <unicode hex="0046"/>
  <anchor x="559" y="12" name="bottom"/>
  <anchor x="271" y="349" name="cross"/>
  <anchor x="646" y="1676" name="top"/>
  <outline>
    <contour>
      <point x="180" y="0" type="line"/>
      <point x="361" y="0" type="line"/>
      <point x="361" y="666" type="line"/>
      <point x="1007" y="666" type="line"/>
      <point x="1007" y="826" type="line"/>
      <point x="361" y="826" type="line"/>
      <point x="361" y="1329" type="line"/>
      <point x="1073" y="1329" type="line"/>
      <point x="1073" y="1489" type="line"/>
      <point x="180" y="1489" type="line"/>
    </contour>
  </outline>
</glyph>
<glyph name="J" format="2">
  <advance height="2479" width="1112"/>
  <unicode hex="004A"/>
  <anchor x="841" y="884" name="cross"/>
  <anchor x="841" y="1676" name="top"/>
  <outline>
    <contour>
      <point x="751" y="1489" type="line"/>
      <point x="751" y="425" type="line"/>
      <point x="751" y="239"/>
      <point x="662" y="140"/>
      <point x="506" y="140" type="curve" smooth="yes"/>
      <point x="364" y="140"/>
      <point x="262" y="223"/>
      <point x="262" y="349" type="curve"/>
      <point x="84" y="349" type="line"/>
      <point x="84" y="120"/>
      <point x="262" y="-20"/>
      <point x="506" y="-20" type="curve" smooth="yes"/>
      <point x="765" y="-20"/>
      <point x="931" y="139"/>
      <point x="931" y="425" type="curve"/>
      <point x="931" y="1489" type="line"/>
    </contour>
  </outline>
</glyph>
<glyph name="L" format="2">
  <advance height="2479" width="1152"/>
  <unicode hex="004C"/>
  <anchor x="617" y="0" name="bottom"/>
  <anchor x="271" y="768" name="cross"/>
  <anchor x="605" y="794" name="dot"/>
  <anchor x="614" y="1489" name="raccent"/>
  <anchor x="271" y="1676" name="top"/>
  <outline>
    <contour>
      <point x="180" y="0" type="line"/>
      <point x="1053" y="0" type="line"/>
      <point x="1053" y="160" type="line"/>
      <point x="361" y="160" type="line"/>
      <point x="361" y="1489" type="line"/>
      <point x="180" y="1489" type="line"/>
    </contour>
  </outline>
</glyph>
<glyph name="M" format="2">
  <advance height="2479" width="1822"/>
  <unicode hex="004D"/>
  <anchor x="911" y="0" name="bottom"/>
  <anchor x="1641" y="0" name="right"/>
  <anchor x="911" y="1676" name="top"/>
  <outline>
    <contour>
      <point x="180" y="1489" type="line"/>
      <point x="180" y="0" type="line"/>
      <point x="349" y="0" type="line"/>
      <point x="349" y="1132" type="line"/>
      <point x="364" y="1132" type="line"/>
      <point x="829" y="0" type="line"/>
      <point x="992" y="0" type="line"/>
      <point x="1457" y="1132" type="line"/>
      <point x="1472" y="1132" type="line"/>
      <point x="1472" y="0" type="line"/>
      <point x="1641" y="0" type="line"/>
      <point x="1641" y="1489" type="line"/>
      <point x="1425" y="1489" type="line"/>
      <point x="919" y="253" type="line"/>
      <point x="902" y="253" type="line"/>
      <point x="396" y="1489" type="line"/>
    </contour>
  </outline>
</glyph>
<glyph name="O" format="2">
  <advance height="2479" width="1559"/>
  <unicode hex="004F"/>
  <anchor x="780" y="0" name="bottom"/>
  <anchor x="922" y="-6" name="ogonek"/>
  <anchor x="198" y="1489" name="tonos"/>
  <anchor x="780" y="1676" name="top"/>
  <outline>
    <contour>
      <point x="1437" y="745" type="curve"/>
      <point x="1437" y="1216"/>
      <point x="1161" y="1510"/>
      <point x="780" y="1510" type="curve" smooth="yes"/>
      <point x="399" y="1510"/>
      <point x="122" y="1216"/>
      <point x="122" y="745" type="curve"/>
      <point x="122" y="273"/>
      <point x="399" y="-20"/>
      <point x="780" y="-20" type="curve" smooth="yes"/>
      <point x="1161" y="-20"/>
      <point x="1437" y="273"/>
    </contour>
    <contour>
      <point x="1263" y="745" type="curve"/>
      <point x="1263" y="358"/>
      <point x="1050" y="148"/>
      <point x="780" y="148" type="curve" smooth="yes"/>
      <point x="509" y="148"/>
      <point x="297" y="358"/>
      <point x="297" y="745" type="curve"/>
      <point x="297" y="1132"/>
      <point x="509" y="1341"/>
      <point x="780" y="1341" type="curve" smooth="yes"/>
      <point x="1050" y="1341"/>
      <point x="1263" y="1132"/>
    </contour>
  </outline>
</glyph>
<glyph name="P" format="2">
  <advance height="2479" width="1300"/>
  <unicode hex="0050"/>
  <anchor x="145" y="1489" name="tonos"/>
  <anchor x="649" y="1676" name="top"/>
  <outline>
    <contour>
      <point x="180" y="0" type="line"/>
      <point x="361" y="0" type="line"/>
      <point x="361" y="1329" type="line"/>
      <point x="678" y="1329" type="line" smooth="yes"/>
      <point x="920" y="1329"/>
      <point x="1012" y="1197"/>
      <point x="1012" y="1018" type="curve" smooth="yes"/>
      <point x="1012" y="839"/>
      <point x="920" y="704"/>
      <point x="681" y="704" type="curve" smooth="yes"/>
      <point x="326" y="704" type="line"/>
      <point x="326" y="544" type="line"/>
      <point x="687" y="544" type="line" smooth="yes"/>
      <point x="1033" y="544"/>
      <point x="1190" y="755"/>
      <point x="1190" y="1018" type="curve" smooth="yes"/>
      <point x="1190" y="1281"/>
      <point x="1033" y="1489"/>
      <point x="684" y="1489" type="curve" smooth="yes"/>
      <point x="180" y="1489" type="line"/>
    </contour>
  </outline>
</glyph>
<glyph name="V" format="2">
  <advance height="2479" width="1385"/>
  <unicode hex="0056"/>
  <anchor x="692" y="0" name="bottom"/>
  <anchor x="692" y="1676" name="top"/>
  <outline>
    <contour>
      <point x="241" y="1489" type="line"/>
      <point x="52" y="1489" type="line"/>
      <point x="599" y="0" type="line"/>
      <point x="785" y="0" type="line"/>
      <point x="1332" y="1489" type="line"/>
      <point x="1143" y="1489" type="line"/>
      <point x="701" y="236" type="line"/>
      <point x="684" y="236" type="line"/>
    </contour>
  </outline>
</glyph>
<glyph name="W" format="2">
  <advance height="2479" width="1943"/>
  <unicode hex="0057"/>
  <anchor x="972" y="12" name="bottom"/>
  <anchor x="972" y="1676" name="top"/>
  <outline>
    <contour>
      <point x="451" y="0" type="line"/>
      <point x="637" y="0" type="line"/>
      <point x="966" y="1187" type="line"/>
      <point x="977" y="1187" type="line"/>
      <point x="1306" y="0" type="line"/>
      <point x="1492" y="0" type="line"/>
      <point x="1900" y="1489" type="line"/>
      <point x="1716" y="1489" type="line"/>
      <point x="1405" y="276" type="line"/>
      <point x="1391" y="276" type="line"/>
      <point x="1073" y="1489" type="line"/>
      <point x="870" y="1489" type="line"/>
      <point x="553" y="276" type="line"/>
      <point x="538" y="276" type="line"/>
      <point x="227" y="1489" type="line"/>
      <point x="44" y="1489" type="line"/>
    </contour>
  </outline>
</glyph>
<glyph name="X" format="2">
  <advance height="2479" width="1315"/>
  <unicode hex="0058"/>
  <anchor x="657" y="12" name="bottom"/>
  <anchor x="657" y="745" name="cross"/>
  <anchor x="1228" y="64" name="cyrtic"/>
  <anchor x="1129" y="0" name="right"/>
  <anchor x="657" y="1676" name="top"/>
  <outline>
    <contour>
      <point x="268" y="1489" type="line"/>
      <point x="55" y="1489" type="line"/>
      <point x="535" y="745" type="line"/>
      <point x="55" y="0" type="line"/>
      <point x="268" y="0" type="line"/>
      <point x="652" y="608" type="line"/>
      <point x="663" y="608" type="line"/>
      <point x="1047" y="0" type="line"/>
      <point x="1260" y="0" type="line"/>
      <point x="791" y="745" type="line"/>
      <point x="1260" y="1489" type="line"/>
      <point x="1047" y="1489" type="line"/>
      <point x="663" y="870" type="line"/>
      <point x="652" y="870" type="line"/>
    </contour>
  </outline>
</glyph>
<glyph name="bracketleft" format="2">
  <advance height="2479" width="742"/>
  <unicode hex="005B"/>
  <outline>
    <contour>
      <point x="241" y="-303" type="line"/>
      <point x="672" y="-303" type="line"/>
      <point x="672" y="-160" type="line"/>
      <point x="404" y="-160" type="line"/>
      <point x="404" y="1417" type="line"/>
      <point x="672" y="1417" type="line"/>
      <point x="672" y="1559" type="line"/>
      <point x="241" y="1559" type="line"/>
    </contour>
  </outline>
</glyph>
<glyph name="backslash" format="2">
  <advance height="2479" width="730"/>
  <unicode hex="005C"/>
  <outline>
    <contour>
      <point x="526" y="-224" type="line"/>
      <point x="683" y="-224" type="line"/>
      <point x="203" y="1559" type="line"/>
      <point x="46" y="1559" type="line"/>
    </contour>
  </outline>
</glyph>
<glyph name="asciicircum" format="2">
  <advance height="2479" width="960"/>
  <unicode hex="005E"/>
  <outline>
    <contour>
      <point x="454" y="1361" type="line"/>
      <point x="454" y="1289" type="line"/>
      <point x="506" y="1289" type="line"/>
      <point x="506" y="1361" type="line"/>
    </contour>
    <contour>
      <point x="81" y="815" type="line"/>
      <point x="256" y="815" type="line"/>
      <point x="489" y="1318" type="line"/>
      <point x="471" y="1318" type="line"/>
      <point x="707" y="815" type="line"/>
      <point x="879" y="815" type="line"/>
      <point x="579" y="1443" type="line"/>
      <point x="381" y="1443" type="line"/>
    </contour>
  </outline>
</glyph>
<glyph name="grave" format="2">
  <advance height="2479" width="1018"/>
  <unicode hex="0060"/>
  <anchor x="620" y="1303" name="_top"/>
  <anchor x="596" y="1676" name="top"/>
  <outline>
    <contour>
      <point x="547" y="1268" type="line"/>
      <point x="698" y="1268" type="line"/>
      <point x="521" y="1606" type="line"/>
      <point x="320" y="1606" type="line"/>
    </contour>
  </outline>
</glyph>
<glyph name="c" format="2">
  <advance height="2479" width="1143"/>
  <unicode hex="0063"/>
  <anchor x="605" y="0" name="cedilla"/>
  <anchor x="605" y="1303" name="top"/>
  <outline>
    <contour>
      <point x="611" y="-23" type="curve" smooth="yes"/>
      <point x="858" y="-23"/>
      <point x="1021" y="128"/>
      <point x="1050" y="326" type="curve"/>
      <point x="879" y="326" type="line"/>
      <point x="847" y="204"/>
      <point x="745" y="131"/>
      <point x="611" y="131" type="curve" smooth="yes"/>
      <point x="407" y="131"/>
      <point x="276" y="300"/>
      <point x="276" y="559" type="curve" smooth="yes"/>
      <point x="276" y="812"/>
      <point x="410" y="977"/>
      <point x="611" y="977" type="curve" smooth="yes"/>
      <point x="762" y="977"/>
      <point x="852" y="884"/>
      <point x="879" y="783" type="curve"/>
      <point x="1050" y="783" type="line"/>
      <point x="1021" y="992"/>
      <point x="844" y="1132"/>
      <point x="608" y="1132" type="curve" smooth="yes"/>
      <point x="305" y="1132"/>
      <point x="105" y="893"/>
      <point x="105" y="553" type="curve" smooth="yes"/>
      <point x="105" y="218"/>
      <point x="297" y="-23"/>
    </contour>
  </outline>
</glyph>
<glyph name="d" format="2">
  <advance height="2479" width="1272"/>
  <unicode hex="0064"/>
  <anchor x="615" y="0" name="bottom"/>
  <anchor x="1005" y="1280" name="cross"/>
  <anchor x="1233" y="1489" name="raccent"/>
  <anchor x="599" y="1489" name="top"/>
  <outline>
    <contour>
      <point x="579" y="-23" type="curve" smooth="yes"/>
      <point x="794" y="-23"/>
      <point x="867" y="111"/>
      <point x="905" y="172" type="curve"/>
      <point x="925" y="172" type="line"/>
      <point x="925" y="0" type="line"/>
      <point x="1091" y="0" type="line"/>
      <point x="1091" y="1489" type="line"/>
      <point x="919" y="1489" type="line"/>
      <point x="919" y="940" type="line"/>
      <point x="905" y="940" type="line"/>
      <point x="867" y="998"/>
      <point x="800" y="1132"/>
      <point x="582" y="1132" type="curve" smooth="yes"/>
      <point x="300" y="1132"/>
      <point x="105" y="908"/>
      <point x="105" y="556" type="curve" smooth="yes"/>
      <point x="105" y="201"/>
      <point x="300" y="-23"/>
    </contour>
    <contour>
      <point x="602" y="131" type="curve" smooth="yes"/>
      <point x="387" y="131"/>
      <point x="276" y="320"/>
      <point x="276" y="559" type="curve" smooth="yes"/>
      <point x="276" y="794"/>
      <point x="384" y="977"/>
      <point x="602" y="977" type="curve" smooth="yes"/>
      <point x="812" y="977"/>
      <point x="922" y="809"/>
      <point x="922" y="559" type="curve" smooth="yes"/>
      <point x="922" y="305"/>
      <point x="809" y="131"/>
    </contour>
  </outline>
</glyph>
<glyph name="e" format="2">
  <advance height="2479" width="1193"/>
  <unicode hex="0065"/>
  <anchor x="599" y="0" name="bottom"/>
  <anchor x="602" y="0" name="cedilla"/>
  <anchor x="768" y="0" name="ogonek"/>
  <anchor x="599" y="1303" name="top"/>
  <outline>
    <contour>
      <point x="625" y="-23" type="curve"/>
      <point x="852" y="-23"/>
      <point x="1018" y="90"/>
      <point x="1071" y="259" type="curve"/>
      <point x="905" y="305" type="line"/>
      <point x="861" y="189"/>
      <point x="760" y="131"/>
      <point x="625" y="131" type="curve" smooth="yes"/>
      <point x="417" y="131"/>
      <point x="276" y="270"/>
      <point x="276" y="524" type="curve" smooth="yes"/>
      <point x="276" y="623" type="line" smooth="yes"/>
      <point x="276" y="807"/>
      <point x="402" y="977"/>
      <point x="608" y="977" type="curve"/>
      <point x="794" y="977"/>
      <point x="913" y="838"/>
      <point x="913" y="649" type="curve"/>
      <point x="227" y="649" type="line"/>
      <point x="227" y="500" type="line"/>
      <point x="1088" y="500" type="line"/>
      <point x="1088" y="573" type="line" smooth="yes"/>
      <point x="1088" y="989"/>
      <point x="841" y="1132"/>
      <point x="608" y="1132" type="curve" smooth="yes"/>
      <point x="305" y="1132"/>
      <point x="105" y="893"/>
      <point x="105" y="550" type="curve" smooth="yes"/>
      <point x="105" y="207"/>
      <point x="303" y="-23"/>
    </contour>
  </outline>
</glyph>
<glyph name="f" format="2">
  <advance height="2479" width="739"/>
  <unicode hex="0066"/>
  <anchor x="320" y="0" name="bottom"/>
  <anchor x="319" y="649" name="cross"/>
  <anchor x="396" y="1676" name="top"/>
  <outline>
    <contour>
      <point x="655" y="1117" type="line"/>
      <point x="52" y="1117" type="line"/>
      <point x="52" y="972" type="line"/>
      <point x="655" y="972" type="line"/>
    </contour>
    <component base="_part.f_base"/>
  </outline>
</glyph>
<glyph name="h" format="2">
  <advance height="2479" width="1210"/>
  <unicode hex="0068"/>
  <anchor x="602" y="0" name="bottom"/>
  <anchor x="262" y="0" name="cedilla"/>
  <anchor x="244" y="1303" name="cross"/>
  <anchor x="244" y="1676" name="top"/>
  <outline>
    <contour>
      <point x="329" y="672" type="line" smooth="yes"/>
      <point x="329" y="867"/>
      <point x="453" y="977"/>
      <point x="623" y="977" type="curve" smooth="yes"/>
      <point x="784" y="977"/>
      <point x="881" y="876"/>
      <point x="881" y="698" type="curve" smooth="yes"/>
      <point x="881" y="0" type="line"/>
      <point x="1053" y="0" type="line"/>
      <point x="1053" y="710" type="line" smooth="yes"/>
      <point x="1053" y="997"/>
      <point x="900" y="1132"/>
      <point x="672" y="1132" type="curve" smooth="yes"/>
      <point x="496" y="1132"/>
      <point x="396" y="1058"/>
      <point x="343" y="943" type="curve"/>
      <point x="329" y="943" type="line"/>
      <point x="329" y="1489" type="line"/>
      <point x="157" y="1489" type="line"/>
      <point x="157" y="0" type="line"/>
      <point x="329" y="0" type="line"/>
    </contour>
  </outline>
</glyph>
<glyph name="m" format="2">
  <advance height="2479" width="1780"/>
  <unicode hex="006D"/>
  <anchor x="890" y="0" name="bottom"/>
  <anchor x="890" y="1303" name="top"/>
  <outline>
    <contour>
      <point x="157" y="0" type="line"/>
      <point x="329" y="0" type="line"/>
      <point x="329" y="698" type="line" smooth="yes"/>
      <point x="329" y="862"/>
      <point x="448" y="977"/>
      <point x="582" y="977" type="curve" smooth="yes"/>
      <point x="712" y="977"/>
      <point x="803" y="892"/>
      <point x="803" y="765" type="curve" smooth="yes"/>
      <point x="803" y="0" type="line"/>
      <point x="977" y="0" type="line"/>
      <point x="977" y="727" type="line" smooth="yes"/>
      <point x="977" y="871"/>
      <point x="1068" y="977"/>
      <point x="1225" y="977" type="curve" smooth="yes"/>
      <point x="1347" y="977"/>
      <point x="1452" y="913"/>
      <point x="1452" y="748" type="curve" smooth="yes"/>
      <point x="1452" y="0" type="line"/>
      <point x="1623" y="0" type="line"/>
      <point x="1623" y="748" type="line" smooth="yes"/>
      <point x="1623" y="1010"/>
      <point x="1482" y="1132"/>
      <point x="1283" y="1132" type="curve" smooth="yes"/>
      <point x="1123" y="1132"/>
      <point x="1006" y="1058"/>
      <point x="948" y="943" type="curve"/>
      <point x="937" y="943" type="line"/>
      <point x="881" y="1062"/>
      <point x="784" y="1132"/>
      <point x="637" y="1132" type="curve" smooth="yes"/>
      <point x="492" y="1132"/>
      <point x="384" y="1062"/>
      <point x="337" y="943" type="curve"/>
      <point x="323" y="943" type="line"/>
      <point x="323" y="1117" type="line"/>
      <point x="157" y="1117" type="line"/>
    </contour>
  </outline>
</glyph>
<glyph name="o" format="2">
  <advance height="2479" width="1222"/>
  <unicode hex="006F"/>
  <anchor x="611" y="0" name="bottom"/>
  <anchor x="739" y="0" name="ogonek"/>
  <anchor x="611" y="1303" name="top"/>
  <outline>
    <contour>
      <point x="611" y="-23" type="curve" smooth="yes"/>
      <point x="913" y="-23"/>
      <point x="1117" y="207"/>
      <point x="1117" y="553" type="curve" smooth="yes"/>
      <point x="1117" y="902"/>
      <point x="913" y="1132"/>
      <point x="611" y="1132" type="curve" smooth="yes"/>
      <point x="308" y="1132"/>
      <point x="105" y="902"/>
      <point x="105" y="553" type="curve" smooth="yes"/>
      <point x="105" y="207"/>
      <point x="308" y="-23"/>
    </contour>
    <contour>
      <point x="611" y="131" type="curve" smooth="yes"/>
      <point x="381" y="131"/>
      <point x="276" y="329"/>
      <point x="276" y="553" type="curve" smooth="yes"/>
      <point x="276" y="777"/>
      <point x="381" y="977"/>
      <point x="611" y="977" type="curve" smooth="yes"/>
      <point x="841" y="977"/>
      <point x="945" y="777"/>
      <point x="945" y="553" type="curve" smooth="yes"/>
      <point x="945" y="329"/>
      <point x="841" y="131"/>
    </contour>
  </outline>
</glyph>
<glyph name="r" format="2">
  <advance height="2479" width="762"/>
  <unicode hex="0072"/>
  <anchor x="241" y="0" name="bottom"/>
  <anchor x="244" y="535" name="cross"/>
  <anchor x="422" y="1303" name="top"/>
  <outline>
    <contour>
      <point x="157" y="0" type="line"/>
      <point x="329" y="0" type="line"/>
      <point x="329" y="707" type="line" smooth="yes"/>
      <point x="329" y="858"/>
      <point x="448" y="969"/>
      <point x="611" y="969" type="curve" smooth="yes"/>
      <point x="657" y="969"/>
      <point x="704" y="960"/>
      <point x="716" y="957" type="curve"/>
      <point x="716" y="1132" type="line"/>
      <point x="696" y="1133"/>
      <point x="651" y="1135"/>
      <point x="625" y="1135" type="curve" smooth="yes"/>
      <point x="492" y="1135"/>
      <point x="375" y="1059"/>
      <point x="335" y="948" type="curve"/>
      <point x="323" y="948" type="line"/>
      <point x="323" y="1117" type="line"/>
      <point x="157" y="1117" type="line"/>
    </contour>
  </outline>
</glyph>
<glyph name="u" format="2">
  <advance height="2479" width="1190"/>
  <unicode hex="0075"/>
  <anchor x="596" y="0" name="bottom"/>
  <anchor x="1033" y="0" name="ogonek"/>
  <anchor x="596" y="1303" name="top"/>
  <outline>
    <contour>
      <point x="861" y="457" type="line" smooth="yes"/>
      <point x="861" y="247"/>
      <point x="701" y="151"/>
      <point x="573" y="151" type="curve" smooth="yes"/>
      <point x="431" y="151"/>
      <point x="329" y="256"/>
      <point x="329" y="419" type="curve" smooth="yes"/>
      <point x="329" y="1117" type="line"/>
      <point x="157" y="1117" type="line"/>
      <point x="157" y="407" type="line" smooth="yes"/>
      <point x="157" y="122"/>
      <point x="308" y="-15"/>
      <point x="518" y="-15" type="curve" smooth="yes"/>
      <point x="687" y="-15"/>
      <point x="797" y="76"/>
      <point x="849" y="189" type="curve"/>
      <point x="861" y="189" type="line"/>
      <point x="861" y="0" type="line"/>
      <point x="1033" y="0" type="line"/>
      <point x="1033" y="1117" type="line"/>
      <point x="861" y="1117" type="line"/>
    </contour>
  </outline>
</glyph>
<glyph name="w" format="2">
  <advance height="2479" width="1664"/>
  <unicode hex="0077"/>
  <anchor x="832" y="0" name="bottom"/>
  <anchor x="832" y="1303" name="top"/>
  <outline>
    <contour>
      <point x="410" y="0" type="line"/>
      <point x="579" y="0" type="line"/>
      <point x="823" y="858" type="line"/>
      <point x="841" y="858" type="line"/>
      <point x="1085" y="0" type="line"/>
      <point x="1254" y="0" type="line"/>
      <point x="1594" y="1117" type="line"/>
      <point x="1414" y="1117" type="line"/>
      <point x="1172" y="265" type="line"/>
      <point x="1161" y="265" type="line"/>
      <point x="925" y="1117" type="line"/>
      <point x="742" y="1117" type="line"/>
      <point x="503" y="262" type="line"/>
      <point x="492" y="262" type="line"/>
      <point x="250" y="1117" type="line"/>
      <point x="70" y="1117" type="line"/>
    </contour>
  </outline>
</glyph>
<glyph name="y" format="2">
  <advance height="2479" width="1140"/>
  <unicode hex="0079"/>
  <anchor x="847" y="-49" name="bottom"/>
  <anchor x="723" y="-419" name="ogonek"/>
  <anchor x="570" y="1303" name="top"/>
  <outline>
    <contour>
      <point x="268" y="-419" type="curve" smooth="yes"/>
      <point x="423" y="-419"/>
      <point x="532" y="-337"/>
      <point x="596" y="-163" type="curve" smooth="yes"/>
      <point x="1071" y="1117" type="line"/>
      <point x="884" y="1117" type="line"/>
      <point x="576" y="227" type="line"/>
      <point x="564" y="227" type="line"/>
      <point x="256" y="1117" type="line"/>
      <point x="70" y="1117" type="line"/>
      <point x="483" y="-6" type="line"/>
      <point x="451" y="-93" type="line" smooth="yes"/>
      <point x="388" y="-263"/>
      <point x="311" y="-279"/>
      <point x="186" y="-247" type="curve"/>
      <point x="143" y="-399" type="line"/>
      <point x="160" y="-407"/>
      <point x="209" y="-419"/>
    </contour>
  </outline>
</glyph>
<glyph name="asciitilde" format="2">
  <advance height="2479" width="1350"/>
  <unicode hex="007E"/>
  <outline>
    <contour>
      <point x="169" y="442" type="curve"/>
      <point x="326" y="442" type="line"/>
      <point x="324" y="569"/>
      <point x="381" y="620"/>
      <point x="460" y="620" type="curve" smooth="yes"/>
      <point x="511" y="620"/>
      <point x="545" y="597"/>
      <point x="617" y="535" type="curve" smooth="yes"/>
      <point x="723" y="443"/>
      <point x="794" y="401"/>
      <point x="893" y="401" type="curve" smooth="yes"/>
      <point x="1041" y="401"/>
      <point x="1185" y="495"/>
      <point x="1181" y="736" type="curve"/>
      <point x="1024" y="736" type="line"/>
      <point x="1026" y="620"/>
      <point x="973" y="559"/>
      <point x="890" y="559" type="curve" smooth="yes"/>
      <point x="839" y="559"/>
      <point x="804" y="581"/>
      <point x="733" y="643" type="curve" smooth="yes"/>
      <point x="627" y="735"/>
      <point x="556" y="777"/>
      <point x="457" y="777" type="curve" smooth="yes"/>
      <point x="308" y="777"/>
      <point x="164" y="684"/>
    </contour>
  </outline>
</glyph>
<glyph name="sterling" format="2">
  <advance height="2479" width="1292"/>
  <unicode hex="00A3"/>
  <outline>
    <contour>
      <point x="1120" y="0" type="line"/>
      <point x="1120" y="160" type="line"/>
      <point x="134" y="160" type="line"/>
      <point x="134" y="0" type="line"/>
    </contour>
    <contour>
      <point x="806" y="579" type="line"/>
      <point x="806" y="745" type="line"/>
      <point x="128" y="745" type="line"/>
      <point x="128" y="579" type="line"/>
    </contour>
    <contour>
      <point x="445" y="1039" type="line"/>
      <point x="445" y="1254"/>
      <point x="588" y="1350"/>
      <point x="727" y="1350" type="curve" smooth="yes"/>
      <point x="858" y="1350"/>
      <point x="986" y="1265"/>
      <point x="966" y="1114" type="curve"/>
      <point x="1135" y="1068" type="line"/>
      <point x="1190" y="1289"/>
      <point x="995" y="1510"/>
      <point x="719" y="1510" type="curve" smooth="yes"/>
      <point x="492" y="1510"/>
      <point x="265" y="1356"/>
      <point x="276" y="1039" type="curve" smooth="yes"/>
      <point x="297" y="407" type="line" smooth="yes"/>
      <point x="300" y="320"/>
      <point x="279" y="160"/>
      <point x="192" y="160" type="curve"/>
      <point x="372" y="119" type="line"/>
      <point x="451" y="175"/>
      <point x="474" y="285"/>
      <point x="468" y="407" type="curve" smooth="yes"/>
    </contour>
  </outline>
</glyph>
<glyph name="yen" format="2">
  <advance height="2479" width="1123"/>
  <unicode hex="00A5"/>
  <outline>
    <contour>
      <point x="230" y="1489" type="line"/>
      <point x="29" y="1489" type="line"/>
      <point x="471" y="602" type="line"/>
      <point x="611" y="660" type="line"/>
    </contour>
    <contour>
      <point x="512" y="660" type="line"/>
      <point x="652" y="602" type="line"/>
      <point x="1094" y="1489" type="line"/>
      <point x="893" y="1489" type="line"/>
    </contour>
    <contour>
      <point x="652" y="783" type="line"/>
      <point x="471" y="783" type="line"/>
      <point x="471" y="0" type="line"/>
      <point x="652" y="0" type="line"/>
    </contour>
    <contour>
      <point x="977" y="742" type="line"/>
      <point x="145" y="742" type="line"/>
      <point x="145" y="611" type="line"/>
      <point x="977" y="611" type="line"/>
    </contour>
    <contour>
      <point x="977" y="454" type="line"/>
      <point x="145" y="454" type="line"/>
      <point x="145" y="323" type="line"/>
      <point x="977" y="323" type="line"/>
    </contour>
  </outline>
</glyph>
<glyph name="dieresis" format="2">
  <advance height="2479" width="1210"/>
  <unicode hex="00A8"/>
  <anchor x="605" y="1303" name="_top"/>
  <anchor x="605" y="1676" name="top"/>
  <outline>
    <contour>
      <point x="396" y="1303" type="curve" smooth="yes"/>
      <point x="463" y="1303"/>
      <point x="512" y="1359"/>
      <point x="512" y="1420" type="curve" smooth="yes"/>
      <point x="512" y="1487"/>
      <point x="463" y="1536"/>
      <point x="396" y="1536" type="curve" smooth="yes"/>
      <point x="335" y="1536"/>
      <point x="279" y="1487"/>
      <point x="279" y="1420" type="curve" smooth="yes"/>
      <point x="279" y="1359"/>
      <point x="335" y="1303"/>
    </contour>
    <contour>
      <point x="815" y="1303" type="curve" smooth="yes"/>
      <point x="881" y="1303"/>
      <point x="931" y="1359"/>
      <point x="931" y="1420" type="curve" smooth="yes"/>
      <point x="931" y="1487"/>
      <point x="881" y="1536"/>
      <point x="815" y="1536" type="curve" smooth="yes"/>
      <point x="753" y="1536"/>
      <point x="698" y="1487"/>
      <point x="698" y="1420" type="curve" smooth="yes"/>
      <point x="698" y="1359"/>
      <point x="753" y="1303"/>
    </contour>
  </outline>
</glyph>
<glyph name="ordfeminine" format="2">
  <advance height="2479" width="919"/>
  <unicode hex="00AA"/>
  <outline>
    <contour>
      <point x="582" y="861" type="line"/>
      <point x="582" y="809"/>
      <point x="591" y="753"/>
      <point x="605" y="707" type="curve"/>
      <point x="783" y="707" type="line"/>
      <point x="762" y="765"/>
      <point x="756" y="823"/>
      <point x="756" y="887" type="curve" smooth="yes"/>
      <point x="756" y="1201" type="line"/>
      <point x="756" y="1385"/>
      <point x="640" y="1478"/>
      <point x="465" y="1478" type="curve" smooth="yes"/>
      <point x="276" y="1478"/>
      <point x="154" y="1379"/>
      <point x="154" y="1245" type="curve"/>
      <point x="326" y="1231" type="line"/>
      <point x="326" y="1295"/>
      <point x="378" y="1329"/>
      <point x="465" y="1329" type="curve" smooth="yes"/>
      <point x="544" y="1329"/>
      <point x="582" y="1286"/>
      <point x="582" y="1201" type="curve"/>
    </contour>
    <contour>
      <point x="625" y="1152" type="line"/>
      <point x="480" y="1152" type="line"/>
      <point x="250" y="1152"/>
      <point x="137" y="1068"/>
      <point x="137" y="919" type="curve" smooth="yes"/>
      <point x="137" y="783"/>
      <point x="227" y="692"/>
      <point x="387" y="692" type="curve" smooth="yes"/>
      <point x="524" y="692"/>
      <point x="599" y="771"/>
      <point x="628" y="835" type="curve"/>
      <point x="611" y="951" type="line"/>
      <point x="611" y="902"/>
      <point x="512" y="838"/>
      <point x="431" y="838" type="curve" smooth="yes"/>
      <point x="349" y="838"/>
      <point x="314" y="870"/>
      <point x="314" y="925" type="curve" smooth="yes"/>
      <point x="314" y="983"/>
      <point x="364" y="1036"/>
      <point x="480" y="1036" type="curve"/>
      <point x="625" y="1036" type="line"/>
    </contour>
  </outline>
</glyph>
<glyph name="registered" format="2">
  <advance height="2479" width="1373"/>
  <unicode hex="00AE"/>
  <outline>
    <contour>
      <point x="483" y="666" type="line"/>
      <point x="601" y="666" type="line"/>
      <point x="601" y="1116" type="line"/>
      <point x="713" y="1116" type="line" smooth="yes"/>
      <point x="740" y="1116"/>
      <point x="790" y="1097"/>
      <point x="790" y="1031" type="curve" smooth="yes"/>
      <point x="790" y="967"/>
      <point x="742" y="935"/>
      <point x="710" y="935" type="curve" smooth="yes"/>
      <point x="550" y="935" type="line"/>
      <point x="550" y="848" type="line"/>
      <point x="746" y="848" type="line" smooth="yes"/>
      <point x="817" y="848"/>
      <point x="919" y="913"/>
      <point x="919" y="1031" type="curve" smooth="yes"/>
      <point x="919" y="1148"/>
      <point x="820" y="1203"/>
      <point x="755" y="1203" type="curve" smooth="yes"/>
      <point x="483" y="1203" type="line"/>
    </contour>
    <contour>
      <point x="807" y="919" type="line"/>
      <point x="681" y="919" type="line"/>
      <point x="812" y="666" type="line"/>
      <point x="941" y="666" type="line"/>
    </contour>
    <contour>
      <point x="687" y="346" type="curve" smooth="yes"/>
      <point x="1008" y="346"/>
      <point x="1268" y="607"/>
      <point x="1268" y="928" type="curve" smooth="yes"/>
      <point x="1268" y="1249"/>
      <point x="1008" y="1510"/>
      <point x="687" y="1510" type="curve" smooth="yes"/>
      <point x="365" y="1510"/>
      <point x="105" y="1249"/>
      <point x="105" y="928" type="curve" smooth="yes"/>
      <point x="105" y="607"/>
      <point x="365" y="346"/>
    </contour>
    <contour>
      <point x="687" y="486" type="curve" smooth="yes"/>
      <point x="442" y="486"/>
      <point x="244" y="684"/>
      <point x="244" y="928" type="curve" smooth="yes"/>
      <point x="244" y="1172"/>
      <point x="442" y="1370"/>
      <point x="687" y="1370" type="curve" smooth="yes"/>
      <point x="931" y="1370"/>
      <point x="1129" y="1172"/>
      <point x="1129" y="928" type="curve" smooth="yes"/>
      <point x="1129" y="684"/>
      <point x="931" y="486"/>
    </contour>
  </outline>
</glyph>
<glyph name="degree" format="2">
  <advance height="2479" width="931"/>
  <unicode hex="00B0"/>
  <outline>
    <contour>
      <point x="465" y="832" type="curve" smooth="yes"/>
      <point x="650" y="832"/>
      <point x="800" y="982"/>
      <point x="800" y="1167" type="curve" smooth="yes"/>
      <point x="800" y="1351"/>
      <point x="650" y="1501"/>
      <point x="465" y="1501" type="curve" smooth="yes"/>
      <point x="281" y="1501"/>
      <point x="131" y="1351"/>
      <point x="131" y="1167" type="curve" smooth="yes"/>
      <point x="131" y="982"/>
      <point x="281" y="832"/>
    </contour>
    <contour>
      <point x="465" y="977" type="curve" smooth="yes"/>
      <point x="361" y="977"/>
      <point x="276" y="1062"/>
      <point x="276" y="1167" type="curve" smooth="yes"/>
      <point x="276" y="1271"/>
      <point x="361" y="1356"/>
      <point x="465" y="1356" type="curve" smooth="yes"/>
      <point x="570" y="1356"/>
      <point x="655" y="1271"/>
      <point x="655" y="1167" type="curve" smooth="yes"/>
      <point x="655" y="1062"/>
      <point x="570" y="977"/>
    </contour>
  </outline>
</glyph>
<glyph name="plusminus" format="2">
  <advance height="2479" width="1350"/>
  <unicode hex="00B1"/>
  <outline>
    <contour>
      <point x="207" y="70" type="line"/>
      <point x="1143" y="70" type="line"/>
      <point x="1143" y="233" type="line"/>
      <point x="207" y="233" type="line"/>
    </contour>
    <contour>
      <point x="207" y="657" type="line"/>
      <point x="1143" y="657" type="line"/>
      <point x="1143" y="820" type="line"/>
      <point x="207" y="820" type="line"/>
    </contour>
    <contour>
      <point x="593" y="361" type="line"/>
      <point x="756" y="361" type="line"/>
      <point x="756" y="1117" type="line"/>
      <point x="593" y="1117" type="line"/>
    </contour>
  </outline>
</glyph>
<glyph name="threesuperior" format="2">
  <advance height="2479" width="881"/>
  <unicode hex="00B3"/>
  <outline>
    <contour>
      <point x="439" y="733" type="curve" smooth="yes"/>
      <point x="649" y="733"/>
      <point x="797" y="844"/>
      <point x="797" y="992" type="curve" smooth="yes"/>
      <point x="797" y="1100"/>
      <point x="719" y="1184"/>
      <point x="576" y="1204" type="curve"/>
      <point x="576" y="1210" type="line"/>
      <point x="681" y="1228"/>
      <point x="762" y="1297"/>
      <point x="762" y="1402" type="curve" smooth="yes"/>
      <point x="762" y="1545"/>
      <point x="631" y="1649"/>
      <point x="442" y="1649" type="curve" smooth="yes"/>
      <point x="256" y="1649"/>
      <point x="111" y="1545"/>
      <point x="108" y="1391" type="curve"/>
      <point x="259" y="1391" type="line"/>
      <point x="262" y="1472"/>
      <point x="343" y="1524"/>
      <point x="442" y="1524" type="curve" smooth="yes"/>
      <point x="541" y="1524"/>
      <point x="608" y="1469"/>
      <point x="608" y="1393" type="curve" smooth="yes"/>
      <point x="608" y="1312"/>
      <point x="527" y="1260"/>
      <point x="419" y="1260" type="curve" smooth="yes"/>
      <point x="346" y="1260" type="line"/>
      <point x="346" y="1143" type="line"/>
      <point x="419" y="1143" type="line" smooth="yes"/>
      <point x="550" y="1143"/>
      <point x="634" y="1085"/>
      <point x="634" y="1004" type="curve" smooth="yes"/>
      <point x="634" y="922"/>
      <point x="553" y="864"/>
      <point x="439" y="864" type="curve" smooth="yes"/>
      <point x="332" y="864"/>
      <point x="250" y="916"/>
      <point x="247" y="995" type="curve"/>
      <point x="87" y="995" type="line"/>
      <point x="90" y="841"/>
      <point x="239" y="733"/>
    </contour>
  </outline>
</glyph>
<glyph name="micro" format="2">
  <advance height="2479" width="1274"/>
  <unicode hex="00B5"/>
  <outline>
    <contour>
      <point x="157" y="-419" type="line"/>
      <point x="329" y="-419" type="line"/>
      <point x="329" y="166" type="line"/>
      <point x="337" y="166" type="line"/>
      <point x="399" y="48"/>
      <point x="513" y="-15"/>
      <point x="637" y="-15" type="curve" smooth="yes"/>
      <point x="761" y="-15"/>
      <point x="876" y="48"/>
      <point x="937" y="166" type="curve"/>
      <point x="945" y="166" type="line"/>
      <point x="945" y="0" type="line"/>
      <point x="1117" y="0" type="line"/>
      <point x="1117" y="1117" type="line"/>
      <point x="945" y="1117" type="line"/>
      <point x="945" y="457" type="line" smooth="yes"/>
      <point x="945" y="276"/>
      <point x="823" y="151"/>
      <point x="637" y="151" type="curve" smooth="yes"/>
      <point x="451" y="151"/>
      <point x="329" y="275"/>
      <point x="329" y="457" type="curve" smooth="yes"/>
      <point x="329" y="1117" type="line"/>
      <point x="157" y="1117" type="line"/>
    </contour>
  </outline>
</glyph>
<glyph name="paragraph" format="2">
  <advance height="2479" width="1228"/>
  <unicode hex="00B6"/>
  <outline>
    <contour>
      <point x="1047" y="1329" type="line"/>
      <point x="1047" y="1489" type="line"/>
      <point x="602" y="1489" type="line" smooth="yes"/>
      <point x="285" y="1489"/>
      <point x="111" y="1289"/>
      <point x="111" y="1021" type="curve" smooth="yes"/>
      <point x="111" y="751"/>
      <point x="285" y="553"/>
      <point x="602" y="553" type="curve" smooth="yes"/>
      <point x="687" y="553" type="line"/>
      <point x="687" y="1329" type="line"/>
    </contour>
    <contour>
      <point x="867" y="0" type="line"/>
      <point x="1047" y="0" type="line"/>
      <point x="1047" y="1489" type="line"/>
      <point x="867" y="1489" type="line"/>
    </contour>
  </outline>
</glyph>
<glyph name="AE" format="2">
  <advance height="2479" width="2028"/>
  <unicode hex="00C6"/>
  <anchor x="1324" y="1676" name="top"/>
  <outline>
    <contour>
      <point x="52" y="0" type="line"/>
      <point x="250" y="0" type="line"/>
      <point x="876" y="1329" type="line"/>
      <point x="983" y="1329" type="line"/>
      <point x="983" y="0" type="line"/>
      <point x="1894" y="0" type="line"/>
      <point x="1894" y="160" type="line"/>
      <point x="1164" y="160" type="line"/>
      <point x="1164" y="666" type="line"/>
      <point x="1836" y="666" type="line"/>
      <point x="1836" y="826" type="line"/>
      <point x="1164" y="826" type="line"/>
      <point x="1164" y="1329" type="line"/>
      <point x="1882" y="1329" type="line"/>
      <point x="1882" y="1489" type="line"/>
      <point x="774" y="1489" type="line"/>
    </contour>
    <contour>
      <point x="369" y="422" type="line"/>
      <point x="1073" y="422" type="line"/>
      <point x="1073" y="582" type="line"/>
      <point x="369" y="582" type="line"/>
    </contour>
  </outline>
</glyph>
<glyph name="Oslash" format="2">
  <advance height="2479" width="1559"/>
  <unicode hex="00D8"/>
  <anchor x="780" y="0" name="bottom"/>
  <anchor x="922" y="-6" name="ogonek"/>
  <anchor x="198" y="1489" name="tonos"/>
  <anchor x="780" y="1676" name="top"/>
  <outline>
    <contour>
      <point x="314" y="-61" type="line"/>
      <point x="1350" y="1472" type="line"/>
      <point x="1239" y="1548" type="line"/>
      <point x="204" y="15" type="line"/>
    </contour>
    <component base="O"/>
  </outline>
</glyph>
<glyph name="Thorn" format="2">
  <advance height="2479" width="1292"/>
  <unicode hex="00DE"/>
  <outline>
    <contour>
      <point x="169" y="1489" type="line"/>
      <point x="169" y="0" type="line"/>
      <point x="349" y="0" type="line"/>
      <point x="349" y="1489" type="line"/>
    </contour>
    <contour>
      <point x="253" y="1181" type="line"/>
      <point x="253" y="1021" type="line"/>
      <point x="637" y="1021" type="line" smooth="yes"/>
      <point x="844" y="1021"/>
      <point x="957" y="919"/>
      <point x="957" y="751" type="curve" smooth="yes"/>
      <point x="957" y="582"/>
      <point x="844" y="486"/>
      <point x="637" y="486" type="curve" smooth="yes"/>
      <point x="253" y="486" type="line"/>
      <point x="253" y="326" type="line"/>
      <point x="637" y="326" type="line" smooth="yes"/>
      <point x="954" y="326"/>
      <point x="1129" y="518"/>
      <point x="1129" y="753" type="curve" smooth="yes"/>
      <point x="1129" y="989"/>
      <point x="954" y="1181"/>
      <point x="637" y="1181" type="curve" smooth="yes"/>
    </contour>
  </outline>
</glyph>
<glyph name="ae" format="2">
  <advance height="2479" width="1894"/>
  <unicode hex="00E6"/>
  <anchor x="934" y="1303" name="top"/>
  <outline>
    <contour>
      <point x="1327" y="-23" type="curve"/>
      <point x="1553" y="-23"/>
      <point x="1719" y="90"/>
      <point x="1772" y="259" type="curve"/>
      <point x="1606" y="305" type="line"/>
      <point x="1562" y="189"/>
      <point x="1461" y="131"/>
      <point x="1327" y="131" type="curve" smooth="yes"/>
      <point x="1120" y="131"/>
      <point x="977" y="271"/>
      <point x="977" y="524" type="curve" smooth="yes"/>
      <point x="977" y="623" type="line" smooth="yes"/>
      <point x="977" y="806"/>
      <point x="1103" y="977"/>
      <point x="1309" y="977" type="curve"/>
      <point x="1495" y="977"/>
      <point x="1615" y="838"/>
      <point x="1615" y="649" type="curve"/>
      <point x="928" y="649" type="line"/>
      <point x="928" y="500" type="line"/>
      <point x="1789" y="500" type="line"/>
      <point x="1789" y="573" type="line" smooth="yes"/>
      <point x="1789" y="989"/>
      <point x="1542" y="1132"/>
      <point x="1309" y="1132" type="curve" smooth="yes"/>
      <point x="1111" y="1132"/>
      <point x="972" y="1030"/>
      <point x="899" y="861" type="curve"/>
      <point x="867" y="305" type="line"/>
      <point x="905" y="111"/>
      <point x="1079" y="-23"/>
    </contour>
    <contour>
      <point x="512" y="128" type="curve" smooth="yes"/>
      <point x="375" y="128"/>
      <point x="276" y="189"/>
      <point x="276" y="308" type="curve" smooth="yes"/>
      <point x="276" y="439"/>
      <point x="396" y="480"/>
      <point x="529" y="497" type="curve" smooth="yes"/>
      <point x="602" y="506"/>
      <point x="797" y="527"/>
      <point x="826" y="561" type="curve"/>
      <point x="826" y="404" type="line" smooth="yes"/>
      <point x="826" y="265"/>
      <point x="716" y="128"/>
    </contour>
    <contour>
      <point x="486" y="-26" type="curve" smooth="yes"/>
      <point x="681" y="-26"/>
      <point x="852" y="79"/>
      <point x="896" y="204" type="curve"/>
      <point x="911" y="204" type="line"/>
      <point x="977" y="887" type="line"/>
      <point x="911" y="1103"/>
      <point x="704" y="1132"/>
      <point x="585" y="1132" type="curve" smooth="yes"/>
      <point x="416" y="1132"/>
      <point x="224" y="1073"/>
      <point x="137" y="870" type="curve"/>
      <point x="300" y="812" type="line"/>
      <point x="337" y="893"/>
      <point x="428" y="980"/>
      <point x="591" y="980" type="curve" smooth="yes"/>
      <point x="748" y="980"/>
      <point x="826" y="896"/>
      <point x="826" y="753" type="curve" smooth="yes"/>
      <point x="826" y="748" type="line" smooth="yes"/>
      <point x="826" y="666"/>
      <point x="742" y="672"/>
      <point x="538" y="646" type="curve" smooth="yes"/>
      <point x="332" y="620"/>
      <point x="105" y="573"/>
      <point x="105" y="317" type="curve" smooth="yes"/>
      <point x="105" y="99"/>
      <point x="273" y="-26"/>
    </contour>
  </outline>
</glyph>
<glyph name="oslash" format="2">
  <advance height="2479" width="1222"/>
  <unicode hex="00F8"/>
  <anchor x="611" y="0" name="bottom"/>
  <anchor x="739" y="0" name="ogonek"/>
  <anchor x="611" y="1303" name="top"/>
  <outline>
    <contour>
      <point x="276" y="-61" type="line"/>
      <point x="1056" y="1094" type="line"/>
      <point x="945" y="1169" type="line"/>
      <point x="166" y="15" type="line"/>
    </contour>
    <component base="o"/>
  </outline>
</glyph>
<glyph name="thorn" format="2">
  <advance height="2479" width="1248"/>
  <unicode hex="00FE"/>
  <outline>
    <contour>
      <point x="157" y="1489" type="line"/>
      <point x="157" y="-419" type="line"/>
      <point x="329" y="-419" type="line"/>
      <point x="329" y="209" type="line"/>
      <point x="285" y="570" type="line"/>
      <point x="329" y="852" type="line"/>
      <point x="329" y="1489" type="line"/>
    </contour>
    <contour>
      <point x="259" y="940" type="line"/>
      <point x="259" y="172" type="line"/>
      <point x="343" y="172" type="line"/>
      <point x="381" y="111"/>
      <point x="454" y="-23"/>
      <point x="669" y="-23" type="curve" smooth="yes"/>
      <point x="948" y="-23"/>
      <point x="1143" y="201"/>
      <point x="1143" y="556" type="curve" smooth="yes"/>
      <point x="1143" y="908"/>
      <point x="948" y="1132"/>
      <point x="666" y="1132" type="curve" smooth="yes"/>
      <point x="448" y="1132"/>
      <point x="381" y="998"/>
      <point x="343" y="940" type="curve"/>
    </contour>
    <contour>
      <point x="972" y="559" type="curve" smooth="yes"/>
      <point x="972" y="320"/>
      <point x="861" y="131"/>
      <point x="646" y="131" type="curve" smooth="yes"/>
      <point x="439" y="131"/>
      <point x="326" y="305"/>
      <point x="326" y="559" type="curve" smooth="yes"/>
      <point x="326" y="809"/>
      <point x="436" y="977"/>
      <point x="646" y="977" type="curve" smooth="yes"/>
      <point x="864" y="977"/>
      <point x="972" y="794"/>
    </contour>
  </outline>
</glyph>
<glyph name="dcroat" format="2">
  <advance height="2479" width="1272"/>
  <unicode hex="0111"/>
  <anchor x="615" y="0" name="bottom"/>
  <anchor x="1005" y="1280" name="cross"/>
  <anchor x="1233" y="1489" name="raccent"/>
  <anchor x="599" y="1489" name="top"/>
  <outline>
    <contour>
      <point x="611" y="1214" type="line"/>
      <point x="1251" y="1214" type="line"/>
      <point x="1251" y="1347" type="line"/>
      <point x="611" y="1347" type="line"/>
    </contour>
    <component base="d"/>
  </outline>
</glyph>
<glyph name="Hbar" format="2">
  <advance height="2479" width="1591"/>
  <unicode hex="0126"/>
  <anchor x="794" y="0" name="bottom"/>
  <anchor x="332" y="-3" name="cedilla"/>
  <anchor x="1440" y="64" name="cyrtic"/>
  <anchor x="1373" y="0" name="right"/>
  <anchor x="183" y="1489" name="tonos"/>
  <anchor x="803" y="1679" name="top"/>
  <outline>
    <contour>
      <point x="1492" y="1175" type="line"/>
      <point x="99" y="1175" type="line"/>
      <point x="99" y="1024" type="line"/>
      <point x="1492" y="1024" type="line"/>
    </contour>
    <component base="H" xOffset="38"/>
  </outline>
</glyph>
<glyph name="lslash" format="2">
  <advance height="2479" width="486"/>
  <unicode hex="0142"/>
  <anchor x="243" y="0" name="bottom"/>
  <anchor x="243" y="768" name="cross"/>
  <anchor x="471" y="1489" name="raccent"/>
  <anchor x="241" y="1676" name="top"/>
  <outline>
    <contour>
      <point x="489" y="931" type="line"/>
      <point x="-3" y="745" type="line"/>
      <point x="-3" y="617" type="line"/>
      <point x="489" y="803" type="line"/>
    </contour>
    <component base="l"/>
  </outline>
</glyph>
<glyph name="Eng" format="2">
  <advance height="2479" width="1542"/>
  <unicode hex="014A"/>
  <anchor x="771" y="0" name="bottom"/>
  <anchor x="1359" y="0" name="right"/>
  <anchor x="771" y="1676" name="top"/>
  <outline>
    <contour>
      <point x="1187" y="0" type="line"/>
      <point x="1187" y="-116" type="line" smooth="yes"/>
      <point x="1187" y="-233"/>
      <point x="1114" y="-268"/>
      <point x="1021" y="-268" type="curve" smooth="yes"/>
      <point x="1001" y="-268"/>
      <point x="980" y="-265"/>
      <point x="966" y="-262" type="curve"/>
      <point x="966" y="-410" type="line"/>
      <point x="992" y="-419"/>
      <point x="1030" y="-419"/>
      <point x="1065" y="-419" type="curve" smooth="yes"/>
      <point x="1228" y="-419"/>
      <point x="1361" y="-311"/>
      <point x="1361" y="-119" type="curve" smooth="yes"/>
      <point x="1361" y="0" type="line"/>
    </contour>
    <component base="N"/>
  </outline>
</glyph>
<glyph name="OE" format="2">
  <advance height="2479" width="1952"/>
  <unicode hex="0152"/>
  <anchor x="1341" y="0" name="bottom"/>
  <anchor x="1344" y="0" name="cedilla"/>
  <anchor x="1818" y="0" name="ogonek"/>
  <anchor x="861" y="1489" name="tonos"/>
  <anchor x="1355" y="1676" name="top"/>
  <outline>
    <contour>
      <point x="780" y="0" type="curve" smooth="yes"/>
      <point x="980" y="0" type="line"/>
      <point x="980" y="160" type="line"/>
      <point x="780" y="160" type="line" smooth="yes"/>
      <point x="492" y="160"/>
      <point x="297" y="396"/>
      <point x="297" y="745" type="curve" smooth="yes"/>
      <point x="297" y="1097"/>
      <point x="492" y="1329"/>
      <point x="780" y="1329" type="curve" smooth="yes"/>
      <point x="980" y="1329" type="line"/>
      <point x="980" y="1489" type="line"/>
      <point x="780" y="1489" type="line" smooth="yes"/>
      <point x="387" y="1489"/>
      <point x="122" y="1193"/>
      <point x="122" y="745" type="curve" smooth="yes"/>
      <point x="122" y="300"/>
      <point x="387" y="0"/>
    </contour>
    <component base="E" xOffset="727"/>
  </outline>
</glyph>
<glyph name="tbar" format="2">
  <advance height="2479" width="745"/>
  <unicode hex="0167"/>
  <anchor x="416" y="0" name="bottom"/>
  <anchor x="500" y="0" name="cedilla"/>
  <anchor x="528" y="1562" name="raccent"/>
  <anchor x="320" y="1489" name="top"/>
  <outline>
    <contour>
      <point x="64" y="611" type="line"/>
      <point x="643" y="611" type="line"/>
      <point x="643" y="745" type="line"/>
      <point x="64" y="745" type="line"/>
    </contour>
    <component base="t"/>
  </outline>
</glyph>
<glyph name="tonesix" format="2">
  <advance height="2479" width="1175"/>
  <unicode hex="0185"/>
  <outline>
    <contour>
      <point x="742" y="-23" type="curve" smooth="yes"/>
      <point x="935" y="-23"/>
      <point x="1071" y="148"/>
      <point x="1071" y="416" type="curve" smooth="yes"/>
      <point x="1071" y="691"/>
      <point x="929" y="849"/>
      <point x="742" y="848" type="curve" smooth="yes"/>
      <point x="599" y="849"/>
      <point x="527" y="775"/>
      <point x="490" y="689" type="curve"/>
      <point x="484" y="689" type="line"/>
      <point x="484" y="1117" type="line"/>
      <point x="319" y="1117" type="line"/>
      <point x="319" y="1008" type="line"/>
      <point x="313" y="1008" type="line"/>
      <point x="313" y="0" type="line"/>
      <point x="479" y="0" type="line"/>
      <point x="479" y="128" type="line"/>
      <point x="490" y="128" type="line"/>
      <point x="532" y="32"/>
      <point x="623" y="-23"/>
    </contour>
    <contour>
      <point x="689" y="131" type="curve" smooth="yes"/>
      <point x="559" y="131"/>
      <point x="481" y="246"/>
      <point x="481" y="417" type="curve" smooth="yes"/>
      <point x="481" y="590"/>
      <point x="559" y="695"/>
      <point x="691" y="695" type="curve" smooth="yes"/>
      <point x="824" y="695"/>
      <point x="900" y="586"/>
      <point x="900" y="419" type="curve" smooth="yes"/>
      <point x="900" y="252"/>
      <point x="824" y="131"/>
    </contour>
    <contour>
      <point x="161" y="745" type="line"/>
      <point x="428" y="1008" type="line"/>
      <point x="319" y="1117" type="line"/>
      <point x="52" y="854" type="line"/>
    </contour>
  </outline>
</glyph>
<glyph name="Chook" format="2">
  <advance height="2479" width="1580"/>
  <unicode hex="0187"/>
  <anchor x="780" y="-12" name="cedilla"/>
  <anchor x="780" y="1676" name="top"/>
  <outline>
    <contour>
      <point x="1379" y="1024" type="line"/>
      <point x="1379" y="1210" type="line" smooth="yes"/>
      <point x="1379" y="1327"/>
      <point x="1449" y="1361"/>
      <point x="1542" y="1361" type="curve" smooth="yes"/>
      <point x="1562" y="1361"/>
      <point x="1583" y="1359"/>
      <point x="1597" y="1356" type="curve"/>
      <point x="1597" y="1501" type="line"/>
      <point x="1571" y="1510"/>
      <point x="1533" y="1510"/>
      <point x="1498" y="1510" type="curve" smooth="yes"/>
      <point x="1335" y="1510"/>
      <point x="1207" y="1402"/>
      <point x="1207" y="1210" type="curve" smooth="yes"/>
      <point x="1207" y="1024" type="line"/>
    </contour>
    <component base="C"/>
  </outline>
</glyph>
<glyph name="chook" format="2">
  <advance height="2479" width="1251"/>
  <unicode hex="0188"/>
  <anchor x="605" y="0" name="cedilla"/>
  <anchor x="605" y="1303" name="top"/>
  <outline>
    <contour>
      <point x="1050" y="783" type="line"/>
      <point x="1050" y="928" type="line" smooth="yes"/>
      <point x="1050" y="1044"/>
      <point x="1120" y="1079"/>
      <point x="1213" y="1079" type="curve" smooth="yes"/>
      <point x="1233" y="1079"/>
      <point x="1254" y="1076"/>
      <point x="1268" y="1073" type="curve"/>
      <point x="1268" y="1219" type="line"/>
      <point x="1242" y="1228"/>
      <point x="1204" y="1228"/>
      <point x="1169" y="1228" type="curve" smooth="yes"/>
      <point x="1007" y="1228"/>
      <point x="879" y="1120"/>
      <point x="879" y="928" type="curve" smooth="yes"/>
      <point x="879" y="783" type="line"/>
    </contour>
    <component base="c"/>
  </outline>
</glyph>
<glyph name="Eopen" format="2">
  <advance height="2479" width="1292"/>
  <unicode hex="0190"/>
  <outline>
    <contour>
      <point x="641" y="-23" type="curve" smooth="yes"/>
      <point x="922" y="-23"/>
      <point x="1172" y="108"/>
      <point x="1172" y="404" type="curve"/>
      <point x="998" y="404" type="line"/>
      <point x="998" y="262"/>
      <point x="860" y="145"/>
      <point x="641" y="145" type="curve" smooth="yes"/>
      <point x="467" y="145"/>
      <point x="294" y="221"/>
      <point x="294" y="413" type="curve" smooth="yes"/>
      <point x="294" y="588"/>
      <point x="436" y="673"/>
      <point x="646" y="673" type="curve" smooth="yes"/>
      <point x="809" y="673" type="line"/>
      <point x="809" y="801" type="line"/>
      <point x="640" y="801" type="line"/>
      <point x="314" y="801"/>
      <point x="119" y="666"/>
      <point x="119" y="401" type="curve" smooth="yes"/>
      <point x="119" y="102"/>
      <point x="367" y="-23"/>
    </contour>
    <contour>
      <point x="640" y="711" type="curve"/>
      <point x="809" y="711" type="line"/>
      <point x="809" y="842" type="line"/>
      <point x="646" y="842" type="line" smooth="yes"/>
      <point x="431" y="842"/>
      <point x="323" y="964"/>
      <point x="323" y="1097" type="curve" smooth="yes"/>
      <point x="323" y="1241"/>
      <point x="452" y="1341"/>
      <point x="646" y="1341" type="curve" smooth="yes"/>
      <point x="836" y="1341"/>
      <point x="972" y="1245"/>
      <point x="972" y="1108" type="curve"/>
      <point x="1152" y="1108" type="line"/>
      <point x="1152" y="1356"/>
      <point x="944" y="1510"/>
      <point x="655" y="1510" type="curve" smooth="yes"/>
      <point x="365" y="1510"/>
      <point x="143" y="1357"/>
      <point x="143" y="1103" type="curve" smooth="yes"/>
      <point x="143" y="857"/>
      <point x="349" y="712"/>
    </contour>
  </outline>
</glyph>
<glyph name="florin" format="2">
  <advance height="2479" width="791"/>
  <unicode hex="0192"/>
  <outline>
    <contour>
      <point x="663" y="1082" type="line"/>
      <point x="460" y="1082" type="line"/>
      <point x="460" y="1193" type="line" smooth="yes"/>
      <point x="460" y="1321"/>
      <point x="521" y="1385"/>
      <point x="637" y="1385" type="curve" smooth="yes"/>
      <point x="672" y="1385"/>
      <point x="698" y="1379"/>
      <point x="719" y="1373" type="curve"/>
      <point x="762" y="1530" type="line"/>
      <point x="724" y="1545"/>
      <point x="646" y="1556"/>
      <point x="591" y="1556" type="curve" smooth="yes"/>
      <point x="410" y="1556"/>
      <point x="279" y="1428"/>
      <point x="279" y="1193" type="curve" smooth="yes"/>
      <point x="279" y="1082" type="line"/>
      <point x="99" y="1082" type="line"/>
      <point x="99" y="934" type="line"/>
      <point x="279" y="934" type="line"/>
      <point x="279" y="-73" type="line" smooth="yes"/>
      <point x="279" y="-189"/>
      <point x="221" y="-259"/>
      <point x="143" y="-259" type="curve" smooth="yes"/>
      <point x="125" y="-259"/>
      <point x="64" y="-256"/>
      <point x="44" y="-247" type="curve"/>
      <point x="29" y="-404" type="line"/>
      <point x="67" y="-416"/>
      <point x="102" y="-419"/>
      <point x="143" y="-419" type="curve" smooth="yes"/>
      <point x="346" y="-419"/>
      <point x="460" y="-297"/>
      <point x="460" y="-73" type="curve" smooth="yes"/>
      <point x="460" y="934" type="line"/>
      <point x="663" y="934" type="line"/>
    </contour>
  </outline>
</glyph>
<glyph name="khook" format="2">
  <advance height="2479" width="1091"/>
  <unicode hex="0199"/>
  <outline>
    <contour>
      <point x="855" y="0" type="line"/>
      <point x="1062" y="0" type="line"/>
      <point x="576" y="640" type="line"/>
      <point x="1015" y="1117" type="line"/>
      <point x="797" y="1117" type="line"/>
      <point x="343" y="614" type="line"/>
      <point x="329" y="614" type="line"/>
      <point x="329" y="1164" type="line"/>
      <point x="157" y="1164" type="line"/>
      <point x="157" y="0" type="line"/>
      <point x="329" y="0" type="line"/>
      <point x="329" y="369" type="line"/>
      <point x="463" y="515" type="line"/>
    </contour>
    <contour>
      <point x="329" y="1065" type="line"/>
      <point x="329" y="1210" type="line" smooth="yes"/>
      <point x="329" y="1327"/>
      <point x="399" y="1361"/>
      <point x="492" y="1361" type="curve" smooth="yes"/>
      <point x="512" y="1361"/>
      <point x="532" y="1359"/>
      <point x="547" y="1356" type="curve"/>
      <point x="547" y="1501" type="line"/>
      <point x="521" y="1510"/>
      <point x="483" y="1510"/>
      <point x="448" y="1510" type="curve" smooth="yes"/>
      <point x="285" y="1510"/>
      <point x="157" y="1402"/>
      <point x="157" y="1210" type="curve" smooth="yes"/>
      <point x="157" y="1065" type="line"/>
    </contour>
  </outline>
</glyph>
<glyph name="lambdastroke" format="2">
  <advance height="2479" width="1199"/>
  <unicode hex="019B"/>
  <outline>
    <contour>
      <point x="195" y="1062" type="line"/>
      <point x="687" y="1248" type="line"/>
      <point x="687" y="1420" type="line"/>
      <point x="195" y="1231" type="line"/>
    </contour>
    <component base="lambda"/>
  </outline>
</glyph>
<glyph name="Nhookleft" format="2">
  <advance height="2479" width="1551"/>
  <unicode hex="019D"/>
  <anchor x="780" y="0" name="bottom"/>
  <anchor x="1368" y="0" name="right"/>
  <anchor x="780" y="1676" name="top"/>
  <outline>
    <contour>
      <point x="189" y="0" type="line"/>
      <point x="189" y="-116" type="line" smooth="yes"/>
      <point x="189" y="-233"/>
      <point x="122" y="-268"/>
      <point x="29" y="-268" type="curve" smooth="yes"/>
      <point x="9" y="-268"/>
      <point x="-12" y="-265"/>
      <point x="-26" y="-262" type="curve"/>
      <point x="-26" y="-410" type="line"/>
      <point x="0" y="-419"/>
      <point x="38" y="-419"/>
      <point x="73" y="-419" type="curve" smooth="yes"/>
      <point x="236" y="-419"/>
      <point x="369" y="-311"/>
      <point x="369" y="-119" type="curve" smooth="yes"/>
      <point x="369" y="0" type="line"/>
    </contour>
    <component base="N" xOffset="9"/>
  </outline>
</glyph>
<glyph name="Ohorn" format="2">
  <advance height="2479" width="1585"/>
  <unicode hex="01A0"/>
  <anchor x="780" y="0" name="bottom"/>
  <anchor x="922" y="-6" name="ogonek"/>
  <anchor x="198" y="1489" name="tonos"/>
  <anchor x="780" y="1676" name="top"/>
  <outline>
    <contour>
      <point x="1385" y="1597" type="line"/>
      <point x="1385" y="1428"/>
      <point x="1318" y="1329"/>
      <point x="1167" y="1329" type="curve"/>
      <point x="1167" y="1187" type="line"/>
      <point x="1425" y="1187"/>
      <point x="1556" y="1335"/>
      <point x="1556" y="1597" type="curve"/>
    </contour>
    <component base="O"/>
  </outline>
</glyph>
<glyph name="Oi" format="2">
  <advance height="2479" width="1769"/>
  <unicode hex="01A2"/>
  <outline>
    <contour>
      <point x="1245" y="759" type="line" name="hr00"/>
      <point x="1047" y="759" type="line"/>
      <point x="1047" y="250" type="line"/>
      <point x="982" y="180"/>
      <point x="874" y="145"/>
      <point x="756" y="145" type="curve" smooth="yes"/>
      <point x="472" y="145"/>
      <point x="329" y="342"/>
      <point x="329" y="678" type="curve" smooth="yes"/>
      <point x="329" y="806" type="line"/>
      <point x="122" y="803" type="line"/>
      <point x="122" y="678" type="line" smooth="yes"/>
      <point x="122" y="249"/>
      <point x="353" y="-20"/>
      <point x="745" y="-20" type="curve" smooth="yes"/>
      <point x="962" y="-20"/>
      <point x="1156" y="60"/>
      <point x="1245" y="198" type="curve"/>
    </contour>
    <contour>
      <point x="1245" y="1292" type="line"/>
      <point x="1160" y="1424"/>
      <point x="970" y="1510"/>
      <point x="762" y="1510" type="curve" smooth="yes"/>
      <point x="361" y="1510"/>
      <point x="122" y="1249"/>
      <point x="122" y="812" type="curve" smooth="yes"/>
      <point x="122" y="695" type="line"/>
      <point x="329" y="695" type="line"/>
      <point x="329" y="812" type="line" smooth="yes"/>
      <point x="329" y="1159"/>
      <point x="476" y="1341"/>
      <point x="759" y="1341" type="curve" smooth="yes"/>
      <point x="882" y="1341"/>
      <point x="991" y="1301"/>
      <point x="1047" y="1236" type="curve"/>
      <point x="1047" y="742" type="line"/>
      <point x="1245" y="742" type="line"/>
    </contour>
    <contour>
      <point x="1588" y="1489" type="line"/>
      <point x="1434" y="1489" type="line"/>
      <point x="1155" y="1376" type="line"/>
      <point x="1155" y="1207" type="line"/>
      <point x="1388" y="1292" type="line"/>
      <point x="1388" y="-419" type="line"/>
      <point x="1588" y="-419" type="line"/>
    </contour>
  </outline>
</glyph>
<glyph name="oi" format="2">
  <advance height="2479" width="1415"/>
  <unicode hex="01A3"/>
  <outline>
    <contour>
      <point x="591" y="131" type="curve" smooth="yes"/>
      <point x="416" y="131"/>
      <point x="277" y="279"/>
      <point x="277" y="521" type="curve" smooth="yes"/>
      <point x="277" y="561" type="line" smooth="yes"/>
      <point x="277" y="774"/>
      <point x="367" y="977"/>
      <point x="585" y="977" type="curve" smooth="yes"/>
      <point x="649" y="977"/>
      <point x="698" y="954"/>
      <point x="736" y="925" type="curve"/>
      <point x="736" y="509" type="line"/>
      <point x="937" y="509" type="line"/>
      <point x="937" y="977" type="line"/>
      <point x="861" y="1073"/>
      <point x="742" y="1132"/>
      <point x="591" y="1132" type="curve" smooth="yes"/>
      <point x="262" y="1132"/>
      <point x="105" y="879"/>
      <point x="105" y="561" type="curve" smooth="yes"/>
      <point x="105" y="521" type="line" smooth="yes"/>
      <point x="105" y="233"/>
      <point x="268" y="-20"/>
      <point x="582" y="-20" type="curve" smooth="yes"/>
      <point x="739" y="-20"/>
      <point x="858" y="44"/>
      <point x="937" y="137" type="curve"/>
      <point x="937" y="544" type="line"/>
      <point x="736" y="544" type="line"/>
      <point x="736" y="183" type="line"/>
      <point x="695" y="157"/>
      <point x="652" y="131"/>
    </contour>
    <contour>
      <point x="1257" y="1117" type="line"/>
      <point x="1100" y="1117" type="line"/>
      <point x="841" y="983" type="line"/>
      <point x="841" y="730" type="line"/>
      <point x="1077" y="870" type="line"/>
      <point x="1077" y="-412" type="line"/>
      <point x="1257" y="-419" type="line"/>
    </contour>
  </outline>
</glyph>
<glyph name="Phook" format="2">
  <advance height="2479" width="1611"/>
  <unicode hex="01A4"/>
  <anchor x="456" y="1489" name="tonos"/>
  <anchor x="960" y="1676" name="top"/>
  <outline>
    <contour>
      <point x="268" y="1094" type="line"/>
      <point x="268" y="1149" type="line" smooth="yes"/>
      <point x="268" y="1242"/>
      <point x="282" y="1329"/>
      <point x="399" y="1329" type="curve" smooth="yes"/>
      <point x="541" y="1329" type="line"/>
      <point x="541" y="1489" type="line"/>
      <point x="396" y="1489" type="line" smooth="yes"/>
      <point x="204" y="1489"/>
      <point x="99" y="1356"/>
      <point x="99" y="1193" type="curve" smooth="yes"/>
      <point x="99" y="1094" type="line"/>
    </contour>
    <component base="P" xOffset="311"/>
  </outline>
</glyph>
<glyph name="Tonetwo" format="2">
  <advance height="2479" width="1306"/>
  <unicode hex="01A7"/>
  <anchor x="652" y="-26" name="bottom"/>
  <anchor x="652" y="0" name="cedilla"/>
  <anchor x="655" y="1676" name="top"/>
  <outline>
    <contour>
      <point x="311" y="1117" type="line"/>
      <point x="329" y="1264"/>
      <point x="465" y="1350"/>
      <point x="646" y="1350" type="curve" smooth="yes"/>
      <point x="844" y="1350"/>
      <point x="975" y="1245"/>
      <point x="975" y="1103" type="curve" smooth="yes"/>
      <point x="975" y="943"/>
      <point x="797" y="884"/>
      <point x="687" y="855" type="curve" smooth="yes"/>
      <point x="535" y="815" type="line" smooth="yes"/>
      <point x="381" y="774"/>
      <point x="116" y="684"/>
      <point x="116" y="404" type="curve" smooth="yes"/>
      <point x="116" y="163"/>
      <point x="311" y="-26"/>
      <point x="655" y="-26" type="curve" smooth="yes"/>
      <point x="975" y="-26"/>
      <point x="1172" y="140"/>
      <point x="1190" y="384" type="curve"/>
      <point x="1004" y="384" type="line"/>
      <point x="989" y="215"/>
      <point x="832" y="137"/>
      <point x="655" y="137" type="curve" smooth="yes"/>
      <point x="448" y="137"/>
      <point x="291" y="244"/>
      <point x="291" y="407" type="curve" smooth="yes"/>
      <point x="291" y="556"/>
      <point x="431" y="611"/>
      <point x="588" y="655" type="curve" smooth="yes"/>
      <point x="771" y="707" type="line" smooth="yes"/>
      <point x="1004" y="774"/>
      <point x="1149" y="893"/>
      <point x="1149" y="1094" type="curve" smooth="yes"/>
      <point x="1149" y="1344"/>
      <point x="925" y="1510"/>
      <point x="640" y="1510" type="curve" smooth="yes"/>
      <point x="352" y="1510"/>
      <point x="145" y="1342"/>
      <point x="137" y="1117" type="curve"/>
    </contour>
  </outline>
</glyph>
<glyph name="tonetwo" format="2">
  <advance height="2479" width="1071"/>
  <unicode hex="01A8"/>
  <outline>
    <contour>
      <point x="538" y="-23" type="curve" smooth="yes"/>
      <point x="767" y="-23"/>
      <point x="923" y="78"/>
      <point x="963" y="268" type="curve"/>
      <point x="800" y="308" type="line"/>
      <point x="769" y="188"/>
      <point x="681" y="128"/>
      <point x="541" y="128" type="curve" smooth="yes"/>
      <point x="381" y="128"/>
      <point x="279" y="207"/>
      <point x="279" y="303" type="curve" smooth="yes"/>
      <point x="279" y="380"/>
      <point x="332" y="433"/>
      <point x="445" y="460" type="curve" smooth="yes"/>
      <point x="631" y="503" type="line" smooth="yes"/>
      <point x="836" y="551"/>
      <point x="928" y="655"/>
      <point x="928" y="809" type="curve" smooth="yes"/>
      <point x="928" y="998"/>
      <point x="753" y="1132"/>
      <point x="518" y="1132" type="curve" smooth="yes"/>
      <point x="297" y="1132"/>
      <point x="176" y="1025"/>
      <point x="122" y="867" type="curve"/>
      <point x="276" y="823" type="line"/>
      <point x="306" y="900"/>
      <point x="368" y="983"/>
      <point x="518" y="983" type="curve" smooth="yes"/>
      <point x="655" y="983"/>
      <point x="756" y="913"/>
      <point x="756" y="817" type="curve" smooth="yes"/>
      <point x="756" y="732"/>
      <point x="697" y="687"/>
      <point x="564" y="655" type="curve" smooth="yes"/>
      <point x="399" y="614" type="line" smooth="yes"/>
      <point x="199" y="565"/>
      <point x="102" y="467"/>
      <point x="102" y="311" type="curve" smooth="yes"/>
      <point x="102" y="119"/>
      <point x="279" y="-23"/>
    </contour>
  </outline>
</glyph>
<glyph name="eshreversedloop" format="2">
  <advance height="2479" width="1105"/>
  <unicode hex="01AA"/>
  <outline>
    <contour>
      <point x="593" y="1135" type="line" name="hr00"/>
      <point x="593" y="-70" type="line" smooth="yes"/>
      <point x="593" y="-297"/>
      <point x="687" y="-419"/>
      <point x="876" y="-419" type="curve" smooth="yes"/>
      <point x="911" y="-419"/>
      <point x="963" y="-413"/>
      <point x="992" y="-401" type="curve"/>
      <point x="992" y="-244" type="line"/>
      <point x="972" y="-250"/>
      <point x="945" y="-253"/>
      <point x="928" y="-253" type="curve" smooth="yes"/>
      <point x="841" y="-253"/>
      <point x="794" y="-207"/>
      <point x="794" y="-70" type="curve" smooth="yes"/>
      <point x="794" y="1219" type="line"/>
    </contour>
    <contour>
      <point x="113" y="1219" type="curve" smooth="yes"/>
      <point x="113" y="1033"/>
      <point x="265" y="879"/>
      <point x="454" y="879" type="curve" smooth="yes"/>
      <point x="640" y="879"/>
      <point x="794" y="1033"/>
      <point x="794" y="1219" type="curve" smooth="yes"/>
      <point x="794" y="1408"/>
      <point x="640" y="1558"/>
      <point x="454" y="1558" type="curve" smooth="yes"/>
      <point x="265" y="1558"/>
      <point x="113" y="1408"/>
    </contour>
    <contour>
      <point x="454" y="1062" type="curve" smooth="yes"/>
      <point x="367" y="1062"/>
      <point x="300" y="1114"/>
      <point x="300" y="1222" type="curve" smooth="yes"/>
      <point x="300" y="1327"/>
      <point x="367" y="1382"/>
      <point x="454" y="1382" type="curve" smooth="yes"/>
      <point x="538" y="1382"/>
      <point x="605" y="1327"/>
      <point x="605" y="1222" type="curve" smooth="yes"/>
      <point x="605" y="1114"/>
      <point x="538" y="1062"/>
    </contour>
  </outline>
</glyph>
<glyph name="tpalatalhook" format="2">
  <advance height="2479" width="751"/>
  <unicode hex="01AB"/>
  <anchor x="416" y="0" name="bottom"/>
  <anchor x="500" y="0" name="cedilla"/>
  <anchor x="528" y="1562" name="raccent"/>
  <anchor x="320" y="1489" name="top"/>
  <outline>
    <contour>
      <point x="497" y="134" type="line"/>
      <point x="497" y="-119" type="line" smooth="yes"/>
      <point x="497" y="-236"/>
      <point x="428" y="-271"/>
      <point x="335" y="-271" type="curve" smooth="yes"/>
      <point x="314" y="-271"/>
      <point x="294" y="-268"/>
      <point x="279" y="-265" type="curve"/>
      <point x="279" y="-410" type="line"/>
      <point x="305" y="-419"/>
      <point x="343" y="-419"/>
      <point x="378" y="-419" type="curve" smooth="yes"/>
      <point x="541" y="-419"/>
      <point x="669" y="-311"/>
      <point x="669" y="-119" type="curve" smooth="yes"/>
      <point x="669" y="169" type="line"/>
    </contour>
    <component base="t"/>
  </outline>
</glyph>
<glyph name="Thook" format="2">
  <advance height="2479" width="1396"/>
  <unicode hex="01AC"/>
  <outline>
    <contour>
      <point x="739" y="1489" type="line"/>
      <point x="396" y="1489" type="line" smooth="yes"/>
      <point x="212" y="1489"/>
      <point x="99" y="1370"/>
      <point x="99" y="1196" type="curve" smooth="yes"/>
      <point x="99" y="1108" type="line"/>
      <point x="262" y="1108" type="line"/>
      <point x="262" y="1164" type="line" smooth="yes"/>
      <point x="262" y="1248"/>
      <point x="294" y="1329"/>
      <point x="396" y="1329" type="curve" smooth="yes"/>
      <point x="739" y="1329" type="line"/>
    </contour>
    <contour>
      <point x="1297" y="1489" type="line"/>
      <point x="506" y="1489" type="line"/>
      <point x="506" y="1329" type="line"/>
      <point x="649" y="1329" type="line"/>
      <point x="649" y="0" type="line"/>
      <point x="829" y="0" type="line"/>
      <point x="829" y="1329" type="line"/>
      <point x="1297" y="1329" type="line"/>
    </contour>
  </outline>
</glyph>
<glyph name="uhorn" format="2">
  <advance height="2479" width="1274"/>
  <unicode hex="01B0"/>
  <anchor x="596" y="0" name="bottom"/>
  <anchor x="1033" y="0" name="ogonek"/>
  <anchor x="596" y="1303" name="top"/>
  <outline>
    <contour>
      <point x="1164" y="1167" type="line"/>
      <point x="1164" y="1015"/>
      <point x="1161" y="951"/>
      <point x="980" y="951" type="curve"/>
      <point x="980" y="832" type="line"/>
      <point x="1242" y="832"/>
      <point x="1315" y="945"/>
      <point x="1315" y="1167" type="curve"/>
    </contour>
    <component base="u"/>
  </outline>
</glyph>
<glyph name="Yhook" format="2">
  <advance height="2479" width="1446"/>
  <unicode hex="01B3"/>
  <outline>
    <contour>
      <point x="666" y="759" type="line"/>
      <point x="701" y="759" type="line"/>
      <point x="701" y="794" type="line"/>
      <point x="666" y="794" type="line"/>
    </contour>
    <contour>
      <point x="55" y="1489" type="line"/>
      <point x="593" y="614" type="line"/>
      <point x="593" y="0" type="line"/>
      <point x="774" y="0" type="line"/>
      <point x="774" y="614" type="line"/>
      <point x="1172" y="1265" type="line" smooth="yes"/>
      <point x="1225" y="1351"/>
      <point x="1289" y="1361"/>
      <point x="1359" y="1332" type="curve"/>
      <point x="1405" y="1478" type="line"/>
      <point x="1263" y="1545"/>
      <point x="1114" y="1503"/>
      <point x="1018" y="1341" type="curve" smooth="yes"/>
      <point x="684" y="780" type="line"/>
      <point x="262" y="1489" type="line"/>
    </contour>
  </outline>
</glyph>
<glyph name="Ezh" format="2">
  <advance height="2479" width="1396"/>
  <unicode hex="01B7"/>
  <anchor x="698" y="1676" name="top"/>
  <outline>
    <contour>
      <point x="99" y="64" type="line"/>
      <point x="116" y="-235"/>
      <point x="367" y="-441"/>
      <point x="687" y="-441" type="curve" smooth="yes"/>
      <point x="1042" y="-441"/>
      <point x="1280" y="-180"/>
      <point x="1280" y="180" type="curve" smooth="yes"/>
      <point x="1280" y="531"/>
      <point x="1047" y="780"/>
      <point x="716" y="794" type="curve"/>
      <point x="716" y="809" type="line"/>
      <point x="1242" y="1359" type="line"/>
      <point x="1242" y="1489" type="line"/>
      <point x="183" y="1489" type="line"/>
      <point x="183" y="1327" type="line"/>
      <point x="992" y="1327" type="line"/>
      <point x="992" y="1315" type="line"/>
      <point x="495" y="803" type="line"/>
      <point x="495" y="652" type="line"/>
      <point x="605" y="652" type="line" smooth="yes"/>
      <point x="897" y="652"/>
      <point x="1103" y="468"/>
      <point x="1103" y="177" type="curve" smooth="yes"/>
      <point x="1103" y="-80"/>
      <point x="943" y="-278"/>
      <point x="689" y="-278" type="curve" smooth="yes"/>
      <point x="476" y="-278"/>
      <point x="296" y="-139"/>
      <point x="282" y="64" type="curve"/>
    </contour>
  </outline>
</glyph>
<glyph name="ezhreversed" format="2">
  <advance height="2479" width="1280"/>
  <unicode hex="01B9"/>
  <anchor x="642" y="1303" name="top"/>
  <outline>
    <contour>
      <point x="672" y="-442" type="curve" smooth="yes"/>
      <point x="922" y="-442"/>
      <point x="1059" y="-335"/>
      <point x="1129" y="-218" type="curve"/>
      <point x="981" y="-113" type="line"/>
      <point x="889" y="-237"/>
      <point x="808" y="-282"/>
      <point x="677" y="-282" type="curve" smooth="yes"/>
      <point x="466" y="-282"/>
      <point x="313" y="-153"/>
      <point x="313" y="32" type="curve" smooth="yes"/>
      <point x="313" y="224"/>
      <point x="478" y="352"/>
      <point x="729" y="352" type="curve" smooth="yes"/>
      <point x="851" y="352" type="line"/>
      <point x="851" y="497" type="line"/>
      <point x="479" y="945" type="line"/>
      <point x="479" y="957" type="line"/>
      <point x="1102" y="957" type="line"/>
      <point x="1102" y="1117" type="line"/>
      <point x="232" y="1117" type="line"/>
      <point x="232" y="986" type="line"/>
      <point x="630" y="503" type="line"/>
      <point x="630" y="492" type="line"/>
      <point x="336" y="479"/>
      <point x="142" y="301"/>
      <point x="142" y="39" type="curve" smooth="yes"/>
      <point x="142" y="-241"/>
      <point x="367" y="-442"/>
    </contour>
  </outline>
</glyph>
<glyph name="ezhtail" format="2">
  <advance height="2479" width="1105"/>
  <unicode hex="01BA"/>
  <outline>
    <contour>
      <point x="145" y="1117" type="line" name="hr00"/>
      <point x="145" y="957" type="line"/>
      <point x="726" y="957" type="line"/>
      <point x="343" y="620" type="line"/>
      <point x="343" y="495" type="line"/>
      <point x="448" y="495" type="line"/>
      <point x="1015" y="995" type="line"/>
      <point x="1015" y="1117" type="line"/>
    </contour>
    <contour>
      <point x="291" y="-132" type="curve" smooth="yes"/>
      <point x="291" y="-61"/>
      <point x="335" y="6"/>
      <point x="527" y="47" type="curve" smooth="yes"/>
      <point x="768" y="99"/>
      <point x="925" y="175"/>
      <point x="925" y="367" type="curve" smooth="yes"/>
      <point x="925" y="538"/>
      <point x="765" y="655"/>
      <point x="518" y="655" type="curve" smooth="yes"/>
      <point x="454" y="655" type="line"/>
      <point x="442" y="495" type="line"/>
      <point x="518" y="495" type="line" smooth="yes"/>
      <point x="666" y="495"/>
      <point x="724" y="448"/>
      <point x="724" y="372" type="curve" smooth="yes"/>
      <point x="724" y="282"/>
      <point x="675" y="247"/>
      <point x="497" y="209" type="curve" smooth="yes"/>
      <point x="233" y="154"/>
      <point x="93" y="54"/>
      <point x="93" y="-121" type="curve" smooth="yes"/>
      <point x="93" y="-313"/>
      <point x="259" y="-444"/>
      <point x="515" y="-444" type="curve" smooth="yes"/>
      <point x="803" y="-444"/>
      <point x="960" y="-266"/>
      <point x="960" y="-86" type="curve"/>
      <point x="762" y="-86" type="line"/>
      <point x="753" y="-237"/>
      <point x="628" y="-284"/>
      <point x="505" y="-284" type="curve" smooth="yes"/>
      <point x="372" y="-284"/>
      <point x="291" y="-227"/>
    </contour>
  </outline>
</glyph>
<glyph name="tonefive" format="2">
  <advance height="2479" width="1105"/>
  <unicode hex="01BD"/>
  <outline>
    <contour>
      <point x="381" y="471" type="line" name="hr00"/>
      <point x="419" y="527"/>
      <point x="477" y="576"/>
      <point x="591" y="576" type="curve" smooth="yes"/>
      <point x="739" y="576"/>
      <point x="815" y="489"/>
      <point x="815" y="361" type="curve" smooth="yes"/>
      <point x="815" y="236"/>
      <point x="745" y="145"/>
      <point x="585" y="145" type="curve" smooth="yes"/>
      <point x="454" y="145"/>
      <point x="361" y="215"/>
      <point x="361" y="323" type="curve"/>
      <point x="169" y="305" type="line"/>
      <point x="169" y="87"/>
      <point x="399" y="-17"/>
      <point x="585" y="-17" type="curve" smooth="yes"/>
      <point x="890" y="-17"/>
      <point x="1012" y="148"/>
      <point x="1012" y="361" type="curve" smooth="yes"/>
      <point x="1012" y="602"/>
      <point x="870" y="742"/>
      <point x="628" y="736" type="curve"/>
      <point x="553" y="733"/>
      <point x="463" y="704"/>
      <point x="419" y="675" type="curve"/>
      <point x="448" y="911" type="line"/>
      <point x="957" y="911" type="line"/>
      <point x="957" y="1082" type="line"/>
      <point x="279" y="1082" type="line"/>
      <point x="209" y="486" type="line"/>
    </contour>
    <contour>
      <point x="396" y="1082" type="line"/>
      <point x="93" y="1082" type="line"/>
      <point x="93" y="911" type="line"/>
      <point x="396" y="911" type="line"/>
    </contour>
  </outline>
</glyph>
<glyph name="wynn" format="2">
  <advance height="2479" width="1155"/>
  <unicode hex="01BF"/>
  <outline>
    <contour>
      <point x="265" y="-207" type="line"/>
      <point x="713" y="-81"/>
      <point x="1050" y="291"/>
      <point x="1050" y="658" type="curve" smooth="yes"/>
      <point x="1050" y="943"/>
      <point x="900" y="1132"/>
      <point x="671" y="1132" type="curve" smooth="yes"/>
      <point x="389" y="1132"/>
      <point x="228" y="895"/>
      <point x="228" y="481" type="curve"/>
      <point x="324" y="563" type="line"/>
      <point x="330" y="840"/>
      <point x="427" y="977"/>
      <point x="617" y="977" type="curve" smooth="yes"/>
      <point x="775" y="977"/>
      <point x="879" y="843"/>
      <point x="879" y="639" type="curve" smooth="yes"/>
      <point x="879" y="332"/>
      <point x="615" y="38"/>
      <point x="265" y="-47" type="curve"/>
    </contour>
    <contour>
      <point x="157" y="-419" type="line"/>
      <point x="329" y="-419" type="line"/>
      <point x="324" y="896" type="line"/>
      <point x="335" y="937" type="line"/>
      <point x="323" y="937" type="line"/>
      <point x="323" y="1117" type="line"/>
      <point x="157" y="1117" type="line"/>
    </contour>
  </outline>
</glyph>
<glyph name="clickdental" format="2">
  <advance height="2479" width="544"/>
  <unicode hex="01C0"/>
  <outline>
    <contour>
      <point x="352" y="1489" type="line"/>
      <point x="192" y="1489" type="line"/>
      <point x="192" y="0" type="line"/>
      <point x="352" y="0" type="line"/>
    </contour>
  </outline>
</glyph>
<glyph name="Gstroke" format="2">
  <advance height="2479" width="1521"/>
  <unicode hex="01E4"/>
  <anchor x="771" y="0" name="bottom"/>
  <anchor x="774" y="1676" name="top"/>
  <outline>
    <contour>
      <point x="1495" y="454" type="line"/>
      <point x="826" y="454" type="line"/>
      <point x="826" y="308" type="line"/>
      <point x="1495" y="308" type="line"/>
    </contour>
    <component base="G"/>
  </outline>
</glyph>
<glyph name="dcurl" format="2">
  <advance height="2479" width="1472"/>
  <unicode hex="0221"/>
  <anchor x="615" y="0" name="bottom"/>
  <anchor x="1005" y="1280" name="cross"/>
  <anchor x="1233" y="1489" name="raccent"/>
  <anchor x="599" y="1489" name="top"/>
  <outline>
    <contour>
      <point x="919" y="244" type="line"/>
      <point x="919" y="-105" type="line"/>
      <point x="919" y="-253"/>
      <point x="1004" y="-419"/>
      <point x="1228" y="-419" type="curve" smooth="yes"/>
      <point x="1408" y="-419"/>
      <point x="1521" y="-311"/>
      <point x="1521" y="-154" type="curve" smooth="yes"/>
      <point x="1521" y="6"/>
      <point x="1402" y="111"/>
      <point x="1242" y="111" type="curve" smooth="yes"/>
      <point x="1135" y="111"/>
      <point x="1012" y="61"/>
      <point x="919" y="-35" type="curve" smooth="yes"/>
      <point x="692" y="-268" type="line"/>
      <point x="803" y="-381" type="line"/>
      <point x="1076" y="-105" type="line" smooth="yes"/>
      <point x="1120" y="-61"/>
      <point x="1175" y="-29"/>
      <point x="1245" y="-41" type="curve" smooth="yes"/>
      <point x="1306" y="-49"/>
      <point x="1344" y="-93"/>
      <point x="1344" y="-154" type="curve" smooth="yes"/>
      <point x="1344" y="-221"/>
      <point x="1297" y="-271"/>
      <point x="1228" y="-271" type="curve" smooth="yes"/>
      <point x="1155" y="-271"/>
      <point x="1091" y="-218"/>
      <point x="1091" y="-119" type="curve"/>
      <point x="1091" y="244" type="line"/>
    </contour>
    <component base="d"/>
  </outline>
</glyph>
<glyph name="ou" format="2">
  <advance height="2479" width="1292"/>
  <unicode hex="0223"/>
  <outline>
    <contour>
      <point x="634" y="879" type="line"/>
      <point x="323" y="879"/>
      <point x="84" y="730"/>
      <point x="84" y="433" type="curve" smooth="yes"/>
      <point x="84" y="128"/>
      <point x="323" y="-20"/>
      <point x="634" y="-20" type="curve" smooth="yes"/>
      <point x="657" y="-20" type="line" smooth="yes"/>
      <point x="969" y="-20"/>
      <point x="1207" y="128"/>
      <point x="1207" y="436" type="curve" smooth="yes"/>
      <point x="1207" y="730"/>
      <point x="969" y="879"/>
      <point x="657" y="879" type="curve" smooth="yes"/>
    </contour>
    <contour>
      <point x="657" y="727" type="line"/>
      <point x="864" y="727"/>
      <point x="1007" y="631"/>
      <point x="1007" y="436" type="curve" smooth="yes"/>
      <point x="1007" y="236"/>
      <point x="864" y="140"/>
      <point x="657" y="140" type="curve" smooth="yes"/>
      <point x="634" y="140" type="line" smooth="yes"/>
      <point x="425" y="140"/>
      <point x="285" y="236"/>
      <point x="285" y="433" type="curve" smooth="yes"/>
      <point x="285" y="631"/>
      <point x="425" y="727"/>
      <point x="634" y="727" type="curve" smooth="yes"/>
    </contour>
    <contour>
      <point x="666" y="887" type="curve"/>
      <point x="625" y="887" type="line" smooth="yes"/>
      <point x="445" y="887"/>
      <point x="285" y="940"/>
      <point x="285" y="1143" type="curve" smooth="yes"/>
      <point x="285" y="1289"/>
      <point x="352" y="1359"/>
      <point x="477" y="1408" type="curve"/>
      <point x="477" y="1556" type="line"/>
      <point x="259" y="1548"/>
      <point x="84" y="1402"/>
      <point x="84" y="1143" type="curve" smooth="yes"/>
      <point x="84" y="844"/>
      <point x="337" y="739"/>
      <point x="625" y="739" type="curve" smooth="yes"/>
      <point x="666" y="739" type="line" smooth="yes"/>
      <point x="954" y="739"/>
      <point x="1207" y="844"/>
      <point x="1207" y="1143" type="curve" smooth="yes"/>
      <point x="1207" y="1402"/>
      <point x="1033" y="1548"/>
      <point x="815" y="1556" type="curve"/>
      <point x="815" y="1408" type="line"/>
      <point x="940" y="1359"/>
      <point x="1007" y="1289"/>
      <point x="1007" y="1143" type="curve" smooth="yes"/>
      <point x="1007" y="940"/>
      <point x="849" y="887"/>
    </contour>
  </outline>
</glyph>
<glyph name="lcurl" format="2">
  <advance height="2479" width="701"/>
  <unicode hex="0234"/>
  <outline>
    <contour>
      <point x="157" y="244" type="line"/>
      <point x="157" y="-105" type="line"/>
      <point x="157" y="-253"/>
      <point x="241" y="-419"/>
      <point x="465" y="-419" type="curve" smooth="yes"/>
      <point x="646" y="-419"/>
      <point x="759" y="-311"/>
      <point x="759" y="-154" type="curve" smooth="yes"/>
      <point x="759" y="6"/>
      <point x="640" y="111"/>
      <point x="480" y="111" type="curve" smooth="yes"/>
      <point x="372" y="111"/>
      <point x="250" y="61"/>
      <point x="157" y="-35" type="curve" smooth="yes"/>
      <point x="-70" y="-268" type="line"/>
      <point x="41" y="-381" type="line"/>
      <point x="244" y="-169" type="line" smooth="yes"/>
      <point x="305" y="-105"/>
      <point x="364" y="-44"/>
      <point x="457" y="-44" type="curve" smooth="yes"/>
      <point x="532" y="-44"/>
      <point x="582" y="-84"/>
      <point x="582" y="-154" type="curve" smooth="yes"/>
      <point x="582" y="-221"/>
      <point x="535" y="-271"/>
      <point x="465" y="-271" type="curve" smooth="yes"/>
      <point x="393" y="-271"/>
      <point x="329" y="-215"/>
      <point x="329" y="-148" type="curve"/>
      <point x="329" y="244" type="line"/>
    </contour>
    <contour>
      <point x="329" y="1489" type="line"/>
      <point x="157" y="1489" type="line"/>
      <point x="157" y="0" type="line"/>
      <point x="329" y="0" type="line"/>
    </contour>
  </outline>
</glyph>
<glyph name="qpdigraph" format="2">
  <advance height="2479" width="2016"/>
  <unicode hex="0239"/>
  <outline>
    <contour>
      <point x="922" y="-419" type="line"/>
      <point x="1094" y="-419" type="line"/>
      <point x="1094" y="172" type="line"/>
      <point x="1111" y="172" type="line"/>
      <point x="1149" y="111"/>
      <point x="1222" y="-23"/>
      <point x="1437" y="-23" type="curve" smooth="yes"/>
      <point x="1716" y="-23"/>
      <point x="1911" y="201"/>
      <point x="1911" y="556" type="curve" smooth="yes"/>
      <point x="1911" y="908"/>
      <point x="1716" y="1132"/>
      <point x="1434" y="1132" type="curve" smooth="yes"/>
      <point x="1216" y="1132"/>
      <point x="1149" y="998"/>
      <point x="1111" y="940" type="curve"/>
      <point x="1091" y="940" type="line"/>
      <point x="1091" y="1117" type="line"/>
      <point x="925" y="1117" type="line"/>
      <point x="925" y="940" type="line"/>
      <point x="905" y="940" type="line"/>
      <point x="867" y="998"/>
      <point x="800" y="1132"/>
      <point x="582" y="1132" type="curve" smooth="yes"/>
      <point x="300" y="1132"/>
      <point x="105" y="908"/>
      <point x="105" y="556" type="curve" smooth="yes"/>
      <point x="105" y="201"/>
      <point x="300" y="-23"/>
      <point x="579" y="-23" type="curve" smooth="yes"/>
      <point x="794" y="-23"/>
      <point x="867" y="111"/>
      <point x="905" y="172" type="curve"/>
      <point x="922" y="172" type="line"/>
    </contour>
    <contour>
      <point x="602" y="131" type="curve" smooth="yes"/>
      <point x="387" y="131"/>
      <point x="276" y="320"/>
      <point x="276" y="559" type="curve" smooth="yes"/>
      <point x="276" y="794"/>
      <point x="384" y="977"/>
      <point x="602" y="977" type="curve" smooth="yes"/>
      <point x="812" y="977"/>
      <point x="922" y="809"/>
      <point x="922" y="559" type="curve" smooth="yes"/>
      <point x="922" y="305"/>
      <point x="809" y="131"/>
    </contour>
    <contour>
      <point x="1414" y="131" type="curve" smooth="yes"/>
      <point x="1207" y="131"/>
      <point x="1094" y="305"/>
      <point x="1094" y="559" type="curve" smooth="yes"/>
      <point x="1094" y="809"/>
      <point x="1204" y="977"/>
      <point x="1414" y="977" type="curve" smooth="yes"/>
      <point x="1632" y="977"/>
      <point x="1740" y="794"/>
      <point x="1740" y="559" type="curve" smooth="yes"/>
      <point x="1740" y="320"/>
      <point x="1629" y="131"/>
    </contour>
  </outline>
</glyph>
<glyph name="Astroke" format="2">
  <advance height="2479" width="1385"/>
  <unicode hex="023A"/>
  <unicode hex="2C65"/>
  <anchor x="692" y="0" name="bottom"/>
  <anchor x="1332" y="0" name="ogonek"/>
  <anchor x="495" y="1489" name="tonos"/>
  <anchor x="692" y="1676" name="top"/>
  <outline>
    <contour>
      <point x="1143" y="1679" type="line"/>
      <point x="977" y="1679" type="line"/>
      <point x="314" y="-189" type="line"/>
      <point x="480" y="-189" type="line"/>
    </contour>
    <component base="A"/>
  </outline>
</glyph>
<glyph name="cstroke" format="2">
  <advance height="2479" width="1143"/>
  <unicode hex="023C"/>
  <anchor x="605" y="0" name="cedilla"/>
  <anchor x="605" y="1303" name="top"/>
  <outline>
    <contour>
      <point x="1036" y="1489" type="line"/>
      <point x="899" y="1489" type="line"/>
      <point x="134" y="-419" type="line"/>
      <point x="273" y="-419" type="line"/>
    </contour>
    <component base="c"/>
  </outline>
</glyph>
<glyph name="Tdiagonalstroke" format="2">
  <advance height="2479" width="1315"/>
  <unicode hex="023E"/>
  <unicode hex="2C66"/>
  <anchor x="657" y="0" name="bottom"/>
  <anchor x="681" y="0" name="cedilla"/>
  <anchor x="657" y="768" name="cross"/>
  <anchor x="829" y="64" name="cyrtic"/>
  <anchor x="698" y="0" name="right"/>
  <anchor x="657" y="1676" name="top"/>
  <outline>
    <contour>
      <point x="262" y="-189" type="line"/>
      <point x="428" y="-189" type="line"/>
      <point x="1091" y="1679" type="line"/>
      <point x="925" y="1679" type="line"/>
    </contour>
    <component base="T"/>
  </outline>
</glyph>
<glyph name="sswashtail" format="2">
  <advance height="2479" width="1071"/>
  <unicode hex="023F"/>
  <anchor x="547" y="0" name="bottom"/>
  <anchor x="544" y="0" name="cedilla"/>
  <anchor x="553" y="1303" name="top"/>
  <outline>
    <contour>
      <point x="273" y="265" type="curve"/>
      <point x="137" y="183" type="line"/>
      <point x="349" y="-186" type="line" smooth="yes"/>
      <point x="434" y="-334"/>
      <point x="515" y="-419"/>
      <point x="643" y="-419" type="curve" smooth="yes"/>
      <point x="721" y="-419"/>
      <point x="803" y="-364"/>
      <point x="847" y="-320" type="curve"/>
      <point x="780" y="-204" type="line"/>
      <point x="748" y="-233"/>
      <point x="695" y="-273"/>
      <point x="643" y="-273" type="curve" smooth="yes"/>
      <point x="564" y="-273"/>
      <point x="527" y="-186"/>
    </contour>
    <component base="s"/>
  </outline>
</glyph>
<glyph name="glottalstopsmall" format="2">
  <advance height="2479" width="1024"/>
  <unicode hex="0242"/>
  <outline>
    <contour>
      <point x="468" y="297" type="line"/>
      <point x="515" y="297" type="line" smooth="yes"/>
      <point x="759" y="297"/>
      <point x="919" y="465"/>
      <point x="919" y="714" type="curve" smooth="yes"/>
      <point x="919" y="969"/>
      <point x="750" y="1132"/>
      <point x="490" y="1132" type="curve" smooth="yes"/>
      <point x="252" y="1132"/>
      <point x="93" y="993"/>
      <point x="93" y="783" type="curve"/>
      <point x="247" y="783" type="line"/>
      <point x="247" y="900"/>
      <point x="338" y="977"/>
      <point x="477" y="977" type="curve" smooth="yes"/>
      <point x="641" y="977"/>
      <point x="748" y="870"/>
      <point x="748" y="705" type="curve" smooth="yes"/>
      <point x="748" y="551"/>
      <point x="654" y="448"/>
      <point x="512" y="448" type="curve" smooth="yes"/>
      <point x="468" y="448" type="line"/>
    </contour>
    <contour>
      <point x="426" y="0" type="line"/>
      <point x="598" y="0" type="line"/>
      <point x="598" y="448" type="line"/>
      <point x="426" y="448" type="line"/>
    </contour>
  </outline>
</glyph>
<glyph name="Estroke" format="2">
  <advance height="2479" width="1225"/>
  <unicode hex="0246"/>
  <anchor x="614" y="0" name="bottom"/>
  <anchor x="617" y="0" name="cedilla"/>
  <anchor x="1091" y="0" name="ogonek"/>
  <anchor x="134" y="1489" name="tonos"/>
  <anchor x="628" y="1676" name="top"/>
  <outline>
    <contour>
      <point x="323" y="-189" type="line"/>
      <point x="489" y="-189" type="line"/>
      <point x="1027" y="1679" type="line"/>
      <point x="861" y="1679" type="line"/>
    </contour>
    <component base="E"/>
  </outline>
</glyph>
<glyph name="qhooktail" format="2">
  <advance height="2479" width="1309"/>
  <unicode hex="024B"/>
  <outline>
    <contour>
      <point x="1210" y="-419" type="curve" smooth="yes"/>
      <point x="1245" y="-419"/>
      <point x="1283" y="-419"/>
      <point x="1309" y="-410" type="curve"/>
      <point x="1309" y="-265" type="line"/>
      <point x="1295" y="-268"/>
      <point x="1274" y="-271"/>
      <point x="1254" y="-271" type="curve" smooth="yes"/>
      <point x="1161" y="-271"/>
      <point x="1091" y="-236"/>
      <point x="1091" y="-119" type="curve" smooth="yes"/>
      <point x="1091" y="-47" type="line"/>
      <point x="919" y="-47" type="line"/>
      <point x="919" y="-119" type="line" smooth="yes"/>
      <point x="919" y="-311"/>
      <point x="1047" y="-419"/>
    </contour>
    <contour>
      <point x="579" y="-23" type="curve" smooth="yes"/>
      <point x="794" y="-23"/>
      <point x="867" y="111"/>
      <point x="905" y="172" type="curve"/>
      <point x="989" y="172" type="line"/>
      <point x="989" y="940" type="line"/>
      <point x="905" y="940" type="line"/>
      <point x="867" y="998"/>
      <point x="800" y="1132"/>
      <point x="582" y="1132" type="curve" smooth="yes"/>
      <point x="300" y="1132"/>
      <point x="105" y="908"/>
      <point x="105" y="556" type="curve" smooth="yes"/>
      <point x="105" y="201"/>
      <point x="300" y="-23"/>
    </contour>
    <contour>
      <point x="1091" y="-47" type="line"/>
      <point x="1091" y="1117" type="line"/>
      <point x="925" y="1117" type="line"/>
      <point x="925" y="908" type="line"/>
      <point x="977" y="547" type="line"/>
      <point x="919" y="265" type="line"/>
      <point x="919" y="-47" type="line"/>
    </contour>
    <contour>
      <point x="602" y="131" type="curve" smooth="yes"/>
      <point x="387" y="131"/>
      <point x="276" y="320"/>
      <point x="276" y="559" type="curve" smooth="yes"/>
      <point x="276" y="794"/>
      <point x="384" y="977"/>
      <point x="602" y="977" type="curve" smooth="yes"/>
      <point x="812" y="977"/>
      <point x="922" y="809"/>
      <point x="922" y="559" type="curve" smooth="yes"/>
      <point x="922" y="305"/>
      <point x="809" y="131"/>
    </contour>
  </outline>
</glyph>
<glyph name="Rstroke" format="2">
  <advance height="2479" width="1327"/>
  <unicode hex="024C"/>
  <anchor x="689" y="0" name="bottom"/>
  <anchor x="663" y="1676" name="top"/>
  <outline>
    <contour>
      <point x="300" y="582" type="line"/>
      <point x="300" y="745" type="line"/>
      <point x="23" y="745" type="line"/>
      <point x="23" y="582" type="line"/>
    </contour>
    <component base="R" xOffset="17"/>
  </outline>
</glyph>
<glyph name="Ystroke" format="2">
  <advance height="2479" width="1367"/>
  <unicode hex="024E"/>
  <anchor x="681" y="0" name="bottom"/>
  <anchor x="681" y="593" name="cross"/>
  <anchor x="771" y="0" name="ogonek"/>
  <anchor x="-3" y="1489" name="tonos"/>
  <anchor x="681" y="1676" name="top"/>
  <outline>
    <contour>
      <point x="1361" y="1184" type="line"/>
      <point x="6" y="1184" type="line"/>
      <point x="6" y="1065" type="line"/>
      <point x="1361" y="1065" type="line"/>
    </contour>
    <component base="Y"/>
  </outline>
</glyph>
<glyph name="dtail" format="2">
  <advance height="2479" width="1248"/>
  <unicode hex="0256"/>
  <anchor x="615" y="0" name="bottom"/>
  <anchor x="1005" y="1280" name="cross"/>
  <anchor x="1233" y="1489" name="raccent"/>
  <anchor x="599" y="1489" name="top"/>
  <outline>
    <contour>
      <point x="1210" y="-419" type="curve" smooth="yes"/>
      <point x="1245" y="-419"/>
      <point x="1283" y="-419"/>
      <point x="1309" y="-410" type="curve"/>
      <point x="1309" y="-265" type="line"/>
      <point x="1295" y="-268"/>
      <point x="1274" y="-271"/>
      <point x="1254" y="-271" type="curve" smooth="yes"/>
      <point x="1161" y="-271"/>
      <point x="1091" y="-236"/>
      <point x="1091" y="-119" type="curve" smooth="yes"/>
      <point x="1091" y="212" type="line"/>
      <point x="919" y="212" type="line"/>
      <point x="919" y="-119" type="line" smooth="yes"/>
      <point x="919" y="-311"/>
      <point x="1047" y="-419"/>
    </contour>
    <component base="d"/>
  </outline>
</glyph>
<glyph name="ereversed" format="2">
  <advance height="2479" width="1193"/>
  <unicode hex="0258"/>
  <anchor x="593" y="0" name="bottom"/>
  <anchor x="591" y="0" name="cedilla"/>
  <anchor x="425" y="0" name="ogonek"/>
  <anchor x="593" y="1303" name="top"/>
  <outline>
    <contour>
      <point x="567" y="-23" type="curve"/>
      <point x="890" y="-23"/>
      <point x="1088" y="207"/>
      <point x="1088" y="550" type="curve" smooth="yes"/>
      <point x="1088" y="893"/>
      <point x="887" y="1132"/>
      <point x="585" y="1132" type="curve" smooth="yes"/>
      <point x="352" y="1132"/>
      <point x="105" y="989"/>
      <point x="105" y="573" type="curve" smooth="yes"/>
      <point x="105" y="500" type="line"/>
      <point x="966" y="500" type="line"/>
      <point x="966" y="649" type="line"/>
      <point x="279" y="649" type="line"/>
      <point x="279" y="838"/>
      <point x="399" y="977"/>
      <point x="585" y="977" type="curve"/>
      <point x="791" y="977"/>
      <point x="916" y="807"/>
      <point x="916" y="623" type="curve" smooth="yes"/>
      <point x="916" y="524" type="line" smooth="yes"/>
      <point x="916" y="270"/>
      <point x="775" y="131"/>
      <point x="567" y="131" type="curve" smooth="yes"/>
      <point x="433" y="131"/>
      <point x="332" y="189"/>
      <point x="288" y="305" type="curve"/>
      <point x="122" y="259" type="line"/>
      <point x="175" y="90"/>
      <point x="340" y="-23"/>
    </contour>
  </outline>
</glyph>
<glyph name="eopenreversed" format="2">
  <advance height="2479" width="1178"/>
  <unicode hex="025C"/>
  <anchor x="564" y="1303" name="top"/>
  <outline>
    <contour>
      <point x="602" y="582" type="curve"/>
      <point x="451" y="582" type="line"/>
      <point x="451" y="500" type="line"/>
      <point x="585" y="500" type="line" smooth="yes"/>
      <point x="742" y="500"/>
      <point x="841" y="417"/>
      <point x="841" y="311" type="curve" smooth="yes"/>
      <point x="841" y="207"/>
      <point x="730" y="137"/>
      <point x="561" y="137" type="curve" smooth="yes"/>
      <point x="399" y="137"/>
      <point x="314" y="198"/>
      <point x="285" y="326" type="curve"/>
      <point x="105" y="326" type="line"/>
      <point x="129" y="116"/>
      <point x="305" y="-20"/>
      <point x="570" y="-20" type="curve" smooth="yes"/>
      <point x="830" y="-20"/>
      <point x="1021" y="109"/>
      <point x="1021" y="303" type="curve" smooth="yes"/>
      <point x="1021" y="421"/>
      <point x="950" y="582"/>
    </contour>
    <contour>
      <point x="451" y="535" type="line"/>
      <point x="602" y="535" type="line"/>
      <point x="943" y="535"/>
      <point x="1001" y="684"/>
      <point x="1001" y="803" type="curve" smooth="yes"/>
      <point x="1001" y="1009"/>
      <point x="828" y="1132"/>
      <point x="573" y="1132" type="curve" smooth="yes"/>
      <point x="319" y="1132"/>
      <point x="153" y="1011"/>
      <point x="125" y="809" type="curve"/>
      <point x="305" y="809" type="line"/>
      <point x="329" y="910"/>
      <point x="423" y="977"/>
      <point x="573" y="977" type="curve" smooth="yes"/>
      <point x="727" y="977"/>
      <point x="826" y="906"/>
      <point x="826" y="803" type="curve" smooth="yes"/>
      <point x="826" y="710"/>
      <point x="747" y="649"/>
      <point x="585" y="649" type="curve" smooth="yes"/>
      <point x="451" y="649" type="line"/>
    </contour>
  </outline>
</glyph>
<glyph name="eopenreversedhook" format="2">
  <advance height="2479" width="1478"/>
  <unicode hex="025D"/>
  <anchor x="564" y="1303" name="top"/>
  <outline>
    <contour>
      <point x="902" y="727" type="line"/>
      <point x="1039" y="753" type="line"/>
      <point x="1068" y="620"/>
      <point x="1120" y="503"/>
      <point x="1286" y="503" type="curve" smooth="yes"/>
      <point x="1332" y="503"/>
      <point x="1376" y="515"/>
      <point x="1414" y="535" type="curve"/>
      <point x="1388" y="657" type="line"/>
      <point x="1376" y="655"/>
      <point x="1361" y="652"/>
      <point x="1327" y="652" type="curve" smooth="yes"/>
      <point x="1219" y="652"/>
      <point x="1193" y="771"/>
      <point x="1167" y="943" type="curve"/>
      <point x="902" y="890" type="line"/>
    </contour>
    <component base="eopenreversed"/>
  </outline>
</glyph>
<glyph name="eopenreversedclosed" format="2">
  <advance height="2479" width="1152"/>
  <unicode hex="025E"/>
  <outline>
    <contour>
      <point x="596" y="-20" type="curve" smooth="yes"/>
      <point x="856" y="-20"/>
      <point x="1047" y="109"/>
      <point x="1047" y="303" type="curve" smooth="yes"/>
      <point x="1047" y="421"/>
      <point x="976" y="582"/>
      <point x="628" y="582" type="curve"/>
      <point x="477" y="582" type="line"/>
      <point x="477" y="500" type="line"/>
      <point x="611" y="500" type="line" smooth="yes"/>
      <point x="768" y="500"/>
      <point x="867" y="417"/>
      <point x="867" y="311" type="curve" smooth="yes"/>
      <point x="867" y="207"/>
      <point x="759" y="137"/>
      <point x="596" y="137" type="curve" smooth="yes"/>
      <point x="372" y="137"/>
      <point x="265" y="303"/>
      <point x="265" y="576" type="curve"/>
      <point x="93" y="576" type="line"/>
      <point x="93" y="205"/>
      <point x="265" y="-20"/>
    </contour>
    <contour>
      <point x="628" y="535" type="line"/>
      <point x="969" y="535"/>
      <point x="1027" y="684"/>
      <point x="1027" y="803" type="curve" smooth="yes"/>
      <point x="1027" y="1009"/>
      <point x="854" y="1132"/>
      <point x="599" y="1132" type="curve" smooth="yes"/>
      <point x="267" y="1132"/>
      <point x="93" y="921"/>
      <point x="93" y="576" type="curve"/>
      <point x="265" y="576" type="line"/>
      <point x="265" y="825"/>
      <point x="377" y="977"/>
      <point x="608" y="977" type="curve" smooth="yes"/>
      <point x="755" y="977"/>
      <point x="852" y="906"/>
      <point x="852" y="803" type="curve" smooth="yes"/>
      <point x="852" y="710"/>
      <point x="773" y="649"/>
      <point x="611" y="649" type="curve" smooth="yes"/>
      <point x="477" y="649" type="line"/>
      <point x="477" y="535" type="line"/>
    </contour>
  </outline>
</glyph>
<glyph name="Gsmall" format="2">
  <advance height="2479" width="1170"/>
  <unicode hex="0262"/>
  <outline>
    <contour>
      <point x="886" y="765" type="curve"/>
      <point x="1057" y="765" type="line"/>
      <point x="1015" y="986"/>
      <point x="832" y="1132"/>
      <point x="596" y="1132" type="curve" smooth="yes"/>
      <point x="300" y="1132"/>
      <point x="105" y="903"/>
      <point x="105" y="556" type="curve" smooth="yes"/>
      <point x="105" y="206"/>
      <point x="303" y="-23"/>
      <point x="615" y="-23" type="curve" smooth="yes"/>
      <point x="886" y="-23"/>
      <point x="1065" y="150"/>
      <point x="1065" y="413" type="curve" smooth="yes"/>
      <point x="1065" y="559" type="line"/>
      <point x="636" y="559" type="line"/>
      <point x="636" y="413" type="line"/>
      <point x="948" y="413" type="line"/>
      <point x="893" y="423" type="line"/>
      <point x="894" y="247"/>
      <point x="782" y="130"/>
      <point x="611" y="131" type="curve" smooth="yes"/>
      <point x="407" y="130"/>
      <point x="276" y="299"/>
      <point x="276" y="556" type="curve" smooth="yes"/>
      <point x="276" y="809"/>
      <point x="403" y="978"/>
      <point x="593" y="979" type="curve" smooth="yes"/>
      <point x="729" y="978"/>
      <point x="844" y="893"/>
    </contour>
  </outline>
</glyph>
<glyph name="ramshorn" format="2">
  <advance height="2479" width="1478"/>
  <unicode hex="0264"/>
  <outline>
    <contour>
      <point x="739" y="-20" type="curve"/>
      <point x="739" y="145" type="line"/>
      <point x="679" y="145"/>
      <point x="640" y="178"/>
      <point x="640" y="228" type="curve" smooth="yes"/>
      <point x="640" y="300"/>
      <point x="719" y="417"/>
      <point x="880" y="708" type="curve" smooth="yes"/>
      <point x="973" y="876"/>
      <point x="1024" y="960"/>
      <point x="1107" y="960" type="curve" smooth="yes"/>
      <point x="1167" y="960"/>
      <point x="1219" y="916"/>
      <point x="1254" y="870" type="curve"/>
      <point x="1364" y="980" type="line"/>
      <point x="1297" y="1059"/>
      <point x="1204" y="1132"/>
      <point x="1089" y="1132" type="curve" smooth="yes"/>
      <point x="884" y="1132"/>
      <point x="791" y="897"/>
      <point x="659" y="660" type="curve" smooth="yes"/>
      <point x="567" y="495"/>
      <point x="468" y="352"/>
      <point x="468" y="218" type="curve" smooth="yes"/>
      <point x="468" y="84"/>
      <point x="567" y="-20"/>
    </contour>
    <contour>
      <point x="739" y="-20" type="line"/>
      <point x="911" y="-20"/>
      <point x="1009" y="84"/>
      <point x="1009" y="218" type="curve" smooth="yes"/>
      <point x="1009" y="352"/>
      <point x="911" y="495"/>
      <point x="819" y="660" type="curve" smooth="yes"/>
      <point x="687" y="897"/>
      <point x="593" y="1132"/>
      <point x="388" y="1132" type="curve" smooth="yes"/>
      <point x="273" y="1132"/>
      <point x="180" y="1059"/>
      <point x="113" y="980" type="curve"/>
      <point x="224" y="870" type="line"/>
      <point x="259" y="916"/>
      <point x="311" y="960"/>
      <point x="371" y="960" type="curve" smooth="yes"/>
      <point x="454" y="960"/>
      <point x="505" y="876"/>
      <point x="598" y="708" type="curve" smooth="yes"/>
      <point x="759" y="417"/>
      <point x="838" y="300"/>
      <point x="838" y="228" type="curve" smooth="yes"/>
      <point x="838" y="178"/>
      <point x="799" y="145"/>
      <point x="739" y="145" type="curve"/>
    </contour>
  </outline>
</glyph>
<glyph name="lbelt" format="2">
  <advance height="2479" width="858"/>
  <unicode hex="026C"/>
  <outline>
    <contour>
      <point x="841" y="599" type="line"/>
      <point x="841" y="759" type="line"/>
      <point x="346" y="759" type="line" smooth="yes"/>
      <point x="276" y="759"/>
      <point x="227" y="809"/>
      <point x="227" y="867" type="curve" smooth="yes"/>
      <point x="227" y="928"/>
      <point x="273" y="980"/>
      <point x="335" y="980" type="curve" smooth="yes"/>
      <point x="416" y="980"/>
      <point x="454" y="925"/>
      <point x="454" y="861" type="curve" smooth="yes"/>
      <point x="454" y="468" type="line"/>
      <point x="625" y="468" type="line"/>
      <point x="625" y="844" type="line" smooth="yes"/>
      <point x="625" y="1012"/>
      <point x="521" y="1132"/>
      <point x="337" y="1132" type="curve" smooth="yes"/>
      <point x="157" y="1132"/>
      <point x="47" y="1015"/>
      <point x="47" y="867" type="curve" smooth="yes"/>
      <point x="47" y="701"/>
      <point x="183" y="599"/>
      <point x="343" y="599" type="curve" smooth="yes"/>
    </contour>
    <contour>
      <point x="625" y="1489" type="line"/>
      <point x="454" y="1489" type="line"/>
      <point x="454" y="0" type="line"/>
      <point x="625" y="0" type="line"/>
    </contour>
  </outline>
</glyph>
<glyph name="lhookretroflex" format="2">
  <advance height="2479" width="547"/>
  <unicode hex="026D"/>
  <anchor x="243" y="0" name="bottom"/>
  <anchor x="243" y="768" name="cross"/>
  <anchor x="471" y="1489" name="raccent"/>
  <anchor x="241" y="1676" name="top"/>
  <outline>
    <contour>
      <point x="329" y="0" type="line"/>
      <point x="157" y="0" type="line"/>
      <point x="157" y="-119" type="line" smooth="yes"/>
      <point x="157" y="-311"/>
      <point x="285" y="-419"/>
      <point x="448" y="-419" type="curve" smooth="yes"/>
      <point x="483" y="-419"/>
      <point x="521" y="-419"/>
      <point x="547" y="-410" type="curve"/>
      <point x="547" y="-265" type="line"/>
      <point x="532" y="-268"/>
      <point x="512" y="-271"/>
      <point x="492" y="-271" type="curve" smooth="yes"/>
      <point x="399" y="-271"/>
      <point x="329" y="-236"/>
      <point x="329" y="-119" type="curve" smooth="yes"/>
    </contour>
    <component base="l"/>
  </outline>
</glyph>
<glyph name="nhookretroflex" format="2">
  <advance height="2479" width="1190"/>
  <unicode hex="0273"/>
  <anchor x="599" y="0" name="bottom"/>
  <anchor x="599" y="1303" name="top"/>
  <outline>
    <contour>
      <point x="1041" y="0" type="line"/>
      <point x="870" y="0" type="line"/>
      <point x="870" y="-119" type="line" smooth="yes"/>
      <point x="870" y="-311"/>
      <point x="998" y="-419"/>
      <point x="1161" y="-419" type="curve" smooth="yes"/>
      <point x="1196" y="-419"/>
      <point x="1233" y="-419"/>
      <point x="1260" y="-410" type="curve"/>
      <point x="1260" y="-265" type="line"/>
      <point x="1245" y="-268"/>
      <point x="1225" y="-271"/>
      <point x="1204" y="-271" type="curve" smooth="yes"/>
      <point x="1111" y="-271"/>
      <point x="1041" y="-236"/>
      <point x="1041" y="-119" type="curve" smooth="yes"/>
    </contour>
    <component base="n"/>
  </outline>
</glyph>
<glyph name="Nsmall" format="2">
  <advance height="2479" width="1200"/>
  <unicode hex="0274"/>
  <outline>
    <contour>
      <point x="1043" y="1117" type="line"/>
      <point x="871" y="1117" type="line"/>
      <point x="871" y="317" type="line"/>
      <point x="857" y="317" type="line"/>
      <point x="323" y="1117" type="line"/>
      <point x="157" y="1117" type="line"/>
      <point x="157" y="0" type="line"/>
      <point x="329" y="0" type="line"/>
      <point x="329" y="797" type="line"/>
      <point x="343" y="797" type="line"/>
      <point x="874" y="0" type="line"/>
      <point x="1043" y="0" type="line"/>
    </contour>
  </outline>
</glyph>
<glyph name="rlonglegturned" format="2">
  <advance height="2479" width="761"/>
  <unicode hex="027A"/>
  <outline>
    <contour>
      <point x="136" y="-17" type="curve" smooth="yes"/>
      <point x="270" y="-17"/>
      <point x="386" y="58"/>
      <point x="427" y="169" type="curve"/>
      <point x="438" y="169" type="line"/>
      <point x="438" y="0" type="line"/>
      <point x="604" y="0" type="line"/>
      <point x="604" y="1510" type="line"/>
      <point x="432" y="1510" type="line"/>
      <point x="432" y="410" type="line" smooth="yes"/>
      <point x="432" y="259"/>
      <point x="313" y="148"/>
      <point x="150" y="148" type="curve" smooth="yes"/>
      <point x="104" y="148"/>
      <point x="57" y="157"/>
      <point x="46" y="160" type="curve"/>
      <point x="46" y="-15" type="line"/>
      <point x="65" y="-16"/>
      <point x="110" y="-17"/>
    </contour>
  </outline>
</glyph>
<glyph name="rlongleg" format="2">
  <advance height="2479" width="762"/>
  <unicode hex="027C"/>
  <anchor x="241" y="0" name="bottom"/>
  <anchor x="244" y="535" name="cross"/>
  <anchor x="422" y="1303" name="top"/>
  <outline>
    <contour>
      <point x="157" y="-419" type="line"/>
      <point x="329" y="-419" type="line"/>
      <point x="329" y="0" type="line"/>
      <point x="157" y="0" type="line"/>
    </contour>
    <component base="r"/>
  </outline>
</glyph>
<glyph name="rfishhook" format="2">
  <advance height="2479" width="625"/>
  <unicode hex="027E"/>
  <outline>
    <contour>
      <point x="329" y="0" type="line"/>
      <point x="329" y="823" type="line" smooth="yes"/>
      <point x="329" y="937"/>
      <point x="413" y="972"/>
      <point x="506" y="972" type="curve" smooth="yes"/>
      <point x="524" y="972"/>
      <point x="544" y="969"/>
      <point x="561" y="966" type="curve"/>
      <point x="561" y="1117" type="line"/>
      <point x="535" y="1126"/>
      <point x="492" y="1132"/>
      <point x="463" y="1132" type="curve" smooth="yes"/>
      <point x="300" y="1132"/>
      <point x="157" y="1027"/>
      <point x="157" y="835" type="curve" smooth="yes"/>
      <point x="157" y="0" type="line"/>
    </contour>
  </outline>
</glyph>
<glyph name="Rsmall" format="2">
  <advance height="2479" width="1149"/>
  <unicode hex="0280"/>
  <outline>
    <contour>
      <point x="157" y="0" type="line"/>
      <point x="320" y="0" type="line"/>
      <point x="320" y="960" type="line"/>
      <point x="617" y="960" type="line"/>
      <point x="751" y="960"/>
      <point x="832" y="894"/>
      <point x="832" y="785" type="curve"/>
      <point x="832" y="679"/>
      <point x="759" y="614"/>
      <point x="637" y="614" type="curve"/>
      <point x="276" y="614" type="line"/>
      <point x="276" y="454" type="line"/>
      <point x="637" y="454" type="line"/>
      <point x="865" y="454"/>
      <point x="1004" y="580"/>
      <point x="1004" y="785" type="curve"/>
      <point x="1004" y="991"/>
      <point x="857" y="1117"/>
      <point x="617" y="1117" type="curve"/>
      <point x="157" y="1117" type="line"/>
    </contour>
    <contour>
      <point x="879" y="0" type="line"/>
      <point x="1065" y="0" type="line"/>
      <point x="748" y="556" type="line"/>
      <point x="561" y="556" type="line"/>
    </contour>
  </outline>
</glyph>
<glyph name="shook" format="2">
  <advance height="2479" width="1071"/>
  <unicode hex="0282"/>
  <anchor x="547" y="0" name="bottom"/>
  <anchor x="544" y="0" name="cedilla"/>
  <anchor x="553" y="1303" name="top"/>
  <outline>
    <contour>
      <point x="108" y="268" type="line"/>
      <point x="108" y="-32" type="line" smooth="yes"/>
      <point x="108" y="-224"/>
      <point x="236" y="-329"/>
      <point x="401" y="-329" type="curve" smooth="yes"/>
      <point x="433" y="-329"/>
      <point x="474" y="-326"/>
      <point x="500" y="-317" type="curve"/>
      <point x="500" y="-169" type="line"/>
      <point x="486" y="-175"/>
      <point x="460" y="-175"/>
      <point x="445" y="-175" type="curve" smooth="yes"/>
      <point x="352" y="-175"/>
      <point x="256" y="-148"/>
      <point x="256" y="-32" type="curve" smooth="yes"/>
      <point x="256" y="268" type="line"/>
    </contour>
    <component base="s"/>
  </outline>
</glyph>
<glyph name="eshsquatreversed" format="2">
  <advance height="2479" width="919"/>
  <unicode hex="0285"/>
  <outline>
    <contour>
      <point x="559" y="0" type="line"/>
      <point x="559" y="768" type="line" smooth="yes"/>
      <point x="559" y="1004"/>
      <point x="422" y="1132"/>
      <point x="195" y="1132" type="curve" smooth="yes"/>
      <point x="154" y="1132"/>
      <point x="111" y="1126"/>
      <point x="70" y="1114" type="curve"/>
      <point x="79" y="957" type="line"/>
      <point x="105" y="963"/>
      <point x="143" y="966"/>
      <point x="177" y="966" type="curve" smooth="yes"/>
      <point x="294" y="966"/>
      <point x="361" y="893"/>
      <point x="361" y="768" type="curve" smooth="yes"/>
      <point x="361" y="0" type="line"/>
    </contour>
    <contour>
      <point x="361" y="692" type="line"/>
      <point x="361" y="-79" type="line" smooth="yes"/>
      <point x="361" y="-314"/>
      <point x="497" y="-442"/>
      <point x="724" y="-442" type="curve" smooth="yes"/>
      <point x="765" y="-442"/>
      <point x="809" y="-436"/>
      <point x="852" y="-428" type="curve"/>
      <point x="841" y="-268" type="line"/>
      <point x="815" y="-273"/>
      <point x="777" y="-276"/>
      <point x="742" y="-276" type="curve" smooth="yes"/>
      <point x="628" y="-276"/>
      <point x="559" y="-207"/>
      <point x="559" y="-79" type="curve" smooth="yes"/>
      <point x="559" y="692" type="line"/>
    </contour>
  </outline>
</glyph>
<glyph name="tretroflexhook" format="2">
  <advance height="2479" width="745"/>
  <unicode hex="0288"/>
  <outline>
    <contour>
      <point x="643" y="1117" type="line"/>
      <point x="64" y="1117" type="line"/>
      <point x="64" y="972" type="line"/>
      <point x="643" y="972" type="line"/>
    </contour>
    <contour>
      <point x="233" y="1385" type="line"/>
      <point x="233" y="-154" type="line" smooth="yes"/>
      <point x="233" y="-349"/>
      <point x="390" y="-442"/>
      <point x="535" y="-442" type="curve" smooth="yes"/>
      <point x="599" y="-442"/>
      <point x="640" y="-431"/>
      <point x="663" y="-422" type="curve"/>
      <point x="628" y="-268" type="line"/>
      <point x="614" y="-271"/>
      <point x="591" y="-276"/>
      <point x="553" y="-276" type="curve" smooth="yes"/>
      <point x="477" y="-276"/>
      <point x="404" y="-253"/>
      <point x="404" y="-108" type="curve" smooth="yes"/>
      <point x="404" y="1385" type="line"/>
    </contour>
  </outline>
</glyph>
<glyph name="vhook" format="2">
  <advance height="2479" width="1198"/>
  <unicode hex="028B"/>
  <outline>
    <contour>
      <point x="561" y="-20" type="curve" smooth="yes"/>
      <point x="899" y="-20"/>
      <point x="1041" y="262"/>
      <point x="1041" y="585" type="curve" smooth="yes"/>
      <point x="1041" y="802"/>
      <point x="977" y="1132"/>
      <point x="717" y="1132" type="curve" smooth="yes"/>
      <point x="660" y="1132"/>
      <point x="605" y="1116"/>
      <point x="561" y="1092" type="curve"/>
      <point x="586" y="966" type="line"/>
      <point x="617" y="977"/>
      <point x="651" y="985"/>
      <point x="681" y="985" type="curve" smooth="yes"/>
      <point x="804" y="985"/>
      <point x="865" y="848"/>
      <point x="867" y="615" type="curve" smooth="yes"/>
      <point x="870" y="296"/>
      <point x="756" y="137"/>
      <point x="569" y="137" type="curve" smooth="yes"/>
      <point x="439" y="137"/>
      <point x="329" y="212"/>
      <point x="329" y="431" type="curve" smooth="yes"/>
      <point x="329" y="1117" type="line"/>
      <point x="157" y="1117" type="line"/>
      <point x="157" y="433" type="line" smooth="yes"/>
      <point x="157" y="119"/>
      <point x="323" y="-20"/>
    </contour>
  </outline>
</glyph>
<glyph name="zretroflexhook" format="2">
  <advance height="2479" width="1222"/>
  <unicode hex="0290"/>
  <anchor x="547" y="0" name="bottom"/>
  <anchor x="553" y="559" name="cross"/>
  <anchor x="553" y="1303" name="top"/>
  <outline>
    <contour>
      <point x="829" y="0" type="line"/>
      <point x="829" y="-140" type="line" smooth="yes"/>
      <point x="829" y="-332"/>
      <point x="957" y="-436"/>
      <point x="1123" y="-436" type="curve" smooth="yes"/>
      <point x="1155" y="-436"/>
      <point x="1196" y="-433"/>
      <point x="1222" y="-425" type="curve"/>
      <point x="1222" y="-276" type="line"/>
      <point x="1207" y="-282"/>
      <point x="1181" y="-282"/>
      <point x="1167" y="-282" type="curve" smooth="yes"/>
      <point x="1073" y="-282"/>
      <point x="1001" y="-256"/>
      <point x="1001" y="-140" type="curve" smooth="yes"/>
      <point x="1001" y="0" type="line"/>
    </contour>
    <component base="z"/>
  </outline>
</glyph>
<glyph name="glottalstop" format="2">
  <advance height="2479" width="1155"/>
  <unicode hex="0294"/>
  <anchor x="544" y="202" name="cross"/>
  <outline>
    <contour>
      <point x="544" y="404" type="line"/>
      <point x="849" y="404"/>
      <point x="1050" y="626"/>
      <point x="1050" y="964" type="curve" smooth="yes"/>
      <point x="1050" y="1301"/>
      <point x="850" y="1524"/>
      <point x="548" y="1524" type="curve" smooth="yes"/>
      <point x="310" y="1524"/>
      <point x="134" y="1385"/>
      <point x="105" y="1175" type="curve"/>
      <point x="276" y="1175" type="line"/>
      <point x="307" y="1293"/>
      <point x="413" y="1370"/>
      <point x="550" y="1370" type="curve" smooth="yes"/>
      <point x="745" y="1370"/>
      <point x="879" y="1211"/>
      <point x="879" y="966" type="curve" smooth="yes"/>
      <point x="879" y="721"/>
      <point x="745" y="559"/>
      <point x="544" y="559" type="curve"/>
    </contour>
    <contour>
      <point x="458" y="0" type="line"/>
      <point x="630" y="0" type="line"/>
      <point x="630" y="559" type="line"/>
      <point x="458" y="559" type="line"/>
    </contour>
  </outline>
</glyph>
<glyph name="glottalstopreversed" format="2">
  <advance height="2479" width="1155"/>
  <unicode hex="0295"/>
  <anchor x="611" y="202" name="cross"/>
  <outline>
    <contour>
      <point x="611" y="404" type="curve"/>
      <point x="611" y="559" type="line"/>
      <point x="409" y="559"/>
      <point x="276" y="721"/>
      <point x="276" y="966" type="curve" smooth="yes"/>
      <point x="276" y="1211"/>
      <point x="409" y="1370"/>
      <point x="605" y="1370" type="curve" smooth="yes"/>
      <point x="742" y="1370"/>
      <point x="848" y="1293"/>
      <point x="879" y="1175" type="curve"/>
      <point x="1050" y="1175" type="line"/>
      <point x="1021" y="1385"/>
      <point x="845" y="1524"/>
      <point x="607" y="1524" type="curve" smooth="yes"/>
      <point x="305" y="1524"/>
      <point x="105" y="1301"/>
      <point x="105" y="964" type="curve" smooth="yes"/>
      <point x="105" y="626"/>
      <point x="305" y="404"/>
    </contour>
    <contour>
      <point x="525" y="0" type="line"/>
      <point x="697" y="0" type="line"/>
      <point x="697" y="559" type="line"/>
      <point x="525" y="559" type="line"/>
    </contour>
  </outline>
</glyph>
<glyph name="glottalstopinverted" format="2">
  <advance height="2479" width="1155"/>
  <unicode hex="0296"/>
  <anchor x="544" y="1299" name="cross"/>
  <outline>
    <contour>
      <point x="548" y="-23" type="curve" smooth="yes"/>
      <point x="850" y="-23"/>
      <point x="1050" y="200"/>
      <point x="1050" y="537" type="curve" smooth="yes"/>
      <point x="1050" y="875"/>
      <point x="849" y="1097"/>
      <point x="544" y="1097" type="curve"/>
      <point x="544" y="943" type="line"/>
      <point x="745" y="943"/>
      <point x="879" y="780"/>
      <point x="879" y="535" type="curve" smooth="yes"/>
      <point x="879" y="290"/>
      <point x="745" y="131"/>
      <point x="550" y="131" type="curve" smooth="yes"/>
      <point x="413" y="131"/>
      <point x="307" y="208"/>
      <point x="276" y="326" type="curve"/>
      <point x="105" y="326" type="line"/>
      <point x="134" y="116"/>
      <point x="310" y="-23"/>
    </contour>
    <contour>
      <point x="458" y="943" type="line"/>
      <point x="630" y="943" type="line"/>
      <point x="630" y="1510" type="line"/>
      <point x="458" y="1510" type="line"/>
    </contour>
  </outline>
</glyph>
<glyph name="Lsmall" format="2">
  <advance height="2479" width="947"/>
  <unicode hex="029F"/>
  <outline>
    <contour>
      <point x="157" y="0" type="line"/>
      <point x="848" y="0" type="line"/>
      <point x="848" y="160" type="line"/>
      <point x="329" y="160" type="line"/>
      <point x="329" y="1117" type="line"/>
      <point x="157" y="1117" type="line"/>
    </contour>
  </outline>
</glyph>
<glyph name="qhook" format="2">
  <advance height="2479" width="1338"/>
  <unicode hex="02A0"/>
  <anchor x="1007" y="-419" name="bottom"/>
  <anchor x="12" y="-495" name="bottom0315"/>
  <anchor x="1004" y="-163" name="cross"/>
  <anchor x="591" y="1303" name="top"/>
  <outline>
    <contour>
      <point x="1091" y="1117" type="line"/>
      <point x="1091" y="1193"/>
      <point x="1151" y="1233"/>
      <point x="1254" y="1233" type="curve" smooth="yes"/>
      <point x="1270" y="1233"/>
      <point x="1291" y="1231"/>
      <point x="1309" y="1228" type="curve"/>
      <point x="1309" y="1373" type="line"/>
      <point x="1293" y="1378"/>
      <point x="1255" y="1382"/>
      <point x="1210" y="1382" type="curve" smooth="yes"/>
      <point x="1033" y="1382"/>
      <point x="925" y="1287"/>
      <point x="925" y="1117" type="curve"/>
    </contour>
    <contour>
      <point x="1091" y="-419" type="line"/>
      <point x="1091" y="1117" type="line"/>
      <point x="925" y="1117" type="line"/>
      <point x="925" y="940" type="line"/>
      <point x="905" y="940" type="line"/>
      <point x="867" y="998"/>
      <point x="800" y="1132"/>
      <point x="582" y="1132" type="curve" smooth="yes"/>
      <point x="300" y="1132"/>
      <point x="105" y="908"/>
      <point x="105" y="556" type="curve" smooth="yes"/>
      <point x="105" y="201"/>
      <point x="300" y="-23"/>
      <point x="579" y="-23" type="curve" smooth="yes"/>
      <point x="794" y="-23"/>
      <point x="867" y="111"/>
      <point x="905" y="172" type="curve"/>
      <point x="919" y="172" type="line"/>
      <point x="919" y="-419" type="line"/>
    </contour>
    <contour>
      <point x="922" y="559" type="curve" smooth="yes"/>
      <point x="922" y="305"/>
      <point x="809" y="131"/>
      <point x="602" y="131" type="curve" smooth="yes"/>
      <point x="387" y="131"/>
      <point x="276" y="320"/>
      <point x="276" y="559" type="curve" smooth="yes"/>
      <point x="276" y="794"/>
      <point x="384" y="977"/>
      <point x="602" y="977" type="curve" smooth="yes"/>
      <point x="812" y="977"/>
      <point x="922" y="809"/>
    </contour>
  </outline>
</glyph>
<glyph name="dzaltone" format="2">
  <advance height="2479" width="2167"/>
  <unicode hex="02A3"/>
  <anchor x="615" y="0" name="bottom"/>
  <anchor x="1005" y="1280" name="cross"/>
  <anchor x="1233" y="1489" name="raccent"/>
  <anchor x="599" y="1489" name="top"/>
  <outline>
    <contour>
      <point x="1184" y="0" type="line"/>
      <point x="2060" y="0" type="line"/>
      <point x="2060" y="160" type="line"/>
      <point x="1423" y="160" type="line"/>
      <point x="1423" y="172" type="line"/>
      <point x="2039" y="980" type="line"/>
      <point x="2039" y="1117" type="line"/>
      <point x="1030" y="1117" type="line"/>
      <point x="1030" y="957" type="line"/>
      <point x="1818" y="957" type="line"/>
      <point x="1818" y="945" type="line"/>
      <point x="1184" y="131" type="line"/>
    </contour>
    <component base="d"/>
  </outline>
</glyph>
<glyph name="bilabialpercussive" format="2">
  <advance height="2479" width="919"/>
  <unicode hex="02AC"/>
  <outline>
    <contour>
      <point x="259" y="1004" type="line"/>
      <point x="259" y="873" type="line"/>
      <point x="337" y="873" type="line"/>
      <point x="477" y="1324" type="line"/>
      <point x="486" y="1457" type="line"/>
      <point x="396" y="1457" type="line"/>
    </contour>
    <contour>
      <point x="195" y="1457" type="line"/>
      <point x="38" y="1457" type="line"/>
      <point x="209" y="873" type="line"/>
      <point x="297" y="873" type="line"/>
      <point x="291" y="1004" type="line"/>
    </contour>
    <contour>
      <point x="634" y="1004" type="line"/>
      <point x="623" y="873" type="line"/>
      <point x="710" y="873" type="line"/>
      <point x="881" y="1457" type="line"/>
      <point x="727" y="1457" type="line"/>
    </contour>
    <contour>
      <point x="524" y="1457" type="line"/>
      <point x="439" y="1457" type="line"/>
      <point x="445" y="1327" type="line"/>
      <point x="582" y="873" type="line"/>
      <point x="663" y="873" type="line"/>
      <point x="666" y="1004" type="line"/>
    </contour>
    <contour>
      <point x="259" y="134" type="line"/>
      <point x="259" y="0" type="line"/>
      <point x="337" y="0" type="line"/>
      <point x="477" y="454" type="line"/>
      <point x="486" y="585" type="line"/>
      <point x="396" y="585" type="line"/>
    </contour>
    <contour>
      <point x="195" y="585" type="line"/>
      <point x="38" y="585" type="line"/>
      <point x="209" y="0" type="line"/>
      <point x="297" y="0" type="line"/>
      <point x="291" y="134" type="line"/>
    </contour>
    <contour>
      <point x="634" y="134" type="line"/>
      <point x="623" y="0" type="line"/>
      <point x="710" y="0" type="line"/>
      <point x="881" y="585" type="line"/>
      <point x="727" y="585" type="line"/>
    </contour>
    <contour>
      <point x="524" y="585" type="line"/>
      <point x="439" y="585" type="line"/>
      <point x="445" y="454" type="line"/>
      <point x="582" y="0" type="line"/>
      <point x="663" y="0" type="line"/>
      <point x="666" y="134" type="line"/>
    </contour>
  </outline>
</glyph>
<glyph name="hmod" format="2">
  <advance height="2479" width="829"/>
  <unicode hex="02B0"/>
  <outline>
    <contour>
      <point x="250" y="1193" type="line" smooth="yes"/>
      <point x="250" y="1300"/>
      <point x="323" y="1367"/>
      <point x="419" y="1367" type="curve" smooth="yes"/>
      <point x="515" y="1367"/>
      <point x="579" y="1303"/>
      <point x="579" y="1199" type="curve" smooth="yes"/>
      <point x="579" y="745" type="line"/>
      <point x="733" y="745" type="line"/>
      <point x="733" y="1225" type="line" smooth="yes"/>
      <point x="733" y="1393"/>
      <point x="628" y="1498"/>
      <point x="477" y="1498" type="curve" smooth="yes"/>
      <point x="367" y="1498"/>
      <point x="288" y="1446"/>
      <point x="253" y="1361" type="curve"/>
      <point x="247" y="1361" type="line"/>
      <point x="247" y="1737" type="line"/>
      <point x="96" y="1737" type="line"/>
      <point x="96" y="745" type="line"/>
      <point x="250" y="745" type="line"/>
    </contour>
  </outline>
</glyph>
<glyph name="hhookmod" format="2">
  <advance height="2479" width="919"/>
  <unicode hex="02B1"/>
  <outline>
    <contour>
      <point x="323" y="1559" type="line"/>
      <point x="323" y="1615"/>
      <point x="349" y="1626"/>
      <point x="372" y="1626" type="curve" smooth="yes"/>
      <point x="399" y="1626"/>
      <point x="431" y="1620"/>
      <point x="445" y="1617" type="curve"/>
      <point x="445" y="1786" type="line"/>
      <point x="393" y="1798"/>
      <point x="346" y="1807"/>
      <point x="294" y="1807" type="curve" smooth="yes"/>
      <point x="169" y="1807"/>
      <point x="140" y="1711"/>
      <point x="140" y="1571" type="curve" smooth="yes"/>
      <point x="140" y="652" type="line"/>
      <point x="323" y="652" type="line"/>
    </contour>
    <contour>
      <point x="300" y="1079" type="line"/>
      <point x="300" y="1210"/>
      <point x="349" y="1315"/>
      <point x="463" y="1315" type="curve" smooth="yes"/>
      <point x="544" y="1315"/>
      <point x="596" y="1265"/>
      <point x="596" y="1126" type="curve" smooth="yes"/>
      <point x="596" y="652" type="line"/>
      <point x="780" y="652" type="line"/>
      <point x="780" y="1161" type="line" smooth="yes"/>
      <point x="780" y="1376"/>
      <point x="681" y="1466"/>
      <point x="524" y="1466" type="curve" smooth="yes"/>
      <point x="355" y="1466"/>
      <point x="253" y="1303"/>
      <point x="253" y="1076" type="curve"/>
    </contour>
  </outline>
</glyph>
<glyph name="rmod" format="2">
  <advance height="2479" width="556"/>
  <unicode hex="02B3"/>
  <outline>
    <contour>
      <point x="96" y="745" type="line"/>
      <point x="250" y="745" type="line"/>
      <point x="250" y="1190" type="line" smooth="yes"/>
      <point x="250" y="1289"/>
      <point x="326" y="1361"/>
      <point x="422" y="1361" type="curve" smooth="yes"/>
      <point x="448" y="1361"/>
      <point x="474" y="1356"/>
      <point x="495" y="1347" type="curve"/>
      <point x="541" y="1475" type="line"/>
      <point x="515" y="1489"/>
      <point x="486" y="1498"/>
      <point x="445" y="1498" type="curve" smooth="yes"/>
      <point x="358" y="1498"/>
      <point x="282" y="1452"/>
      <point x="253" y="1364" type="curve"/>
      <point x="247" y="1364" type="line"/>
      <point x="247" y="1489" type="line"/>
      <point x="96" y="1489" type="line"/>
    </contour>
  </outline>
</glyph>
<glyph name="rturnedmod" format="2">
  <advance height="2479" width="547"/>
  <unicode hex="02B4"/>
  <outline>
    <contour>
      <point x="67" y="646" type="line"/>
      <point x="79" y="640"/>
      <point x="108" y="637"/>
      <point x="137" y="637" type="curve" smooth="yes"/>
      <point x="273" y="637"/>
      <point x="369" y="800"/>
      <point x="369" y="1024" type="curve"/>
      <point x="323" y="1024" type="line"/>
      <point x="323" y="899"/>
      <point x="276" y="809"/>
      <point x="169" y="809" type="curve" smooth="yes"/>
      <point x="131" y="809"/>
      <point x="99" y="817"/>
      <point x="67" y="832" type="curve"/>
    </contour>
    <contour>
      <point x="300" y="823" type="line"/>
      <point x="343" y="652" type="line"/>
      <point x="483" y="652" type="line"/>
      <point x="483" y="1452" type="line"/>
      <point x="300" y="1452" type="line"/>
    </contour>
  </outline>
</glyph>
<glyph name="rhookturnedmod" format="2">
  <advance height="2479" width="733"/>
  <unicode hex="02B5"/>
  <outline>
    <contour>
      <point x="99" y="646" type="line"/>
      <point x="108" y="640"/>
      <point x="137" y="637"/>
      <point x="169" y="637" type="curve" smooth="yes"/>
      <point x="305" y="637"/>
      <point x="401" y="800"/>
      <point x="401" y="1024" type="curve"/>
      <point x="355" y="1024" type="line"/>
      <point x="352" y="899"/>
      <point x="308" y="809"/>
      <point x="201" y="809" type="curve" smooth="yes"/>
      <point x="163" y="809"/>
      <point x="131" y="817"/>
      <point x="99" y="832" type="curve"/>
    </contour>
    <contour>
      <point x="637" y="346" type="curve"/>
      <point x="637" y="518" type="line"/>
      <point x="623" y="512"/>
      <point x="591" y="506"/>
      <point x="564" y="506" type="curve" smooth="yes"/>
      <point x="538" y="506"/>
      <point x="512" y="521"/>
      <point x="512" y="573" type="curve" smooth="yes"/>
      <point x="512" y="1452" type="line"/>
      <point x="329" y="1452" type="line"/>
      <point x="329" y="561" type="line" smooth="yes"/>
      <point x="329" y="422"/>
      <point x="361" y="329"/>
      <point x="486" y="329" type="curve" smooth="yes"/>
      <point x="538" y="329"/>
      <point x="582" y="335"/>
    </contour>
  </outline>
</glyph>
<glyph name="Rsmallinvertedmod" format="2">
  <advance height="2479" width="919"/>
  <unicode hex="02B6"/>
  <outline>
    <contour>
      <point x="608" y="1108" type="line"/>
      <point x="820" y="1452" type="line"/>
      <point x="611" y="1452" type="line"/>
      <point x="399" y="1108" type="line"/>
    </contour>
    <contour>
      <point x="457" y="652" type="line"/>
      <point x="652" y="652"/>
      <point x="765" y="777"/>
      <point x="765" y="916" type="curve" smooth="yes"/>
      <point x="765" y="1059"/>
      <point x="657" y="1181"/>
      <point x="471" y="1181" type="curve" smooth="yes"/>
      <point x="244" y="1181" type="line"/>
      <point x="244" y="1030" type="line"/>
      <point x="439" y="1030" type="line" smooth="yes"/>
      <point x="541" y="1030"/>
      <point x="582" y="980"/>
      <point x="582" y="919" type="curve" smooth="yes"/>
      <point x="582" y="855"/>
      <point x="535" y="806"/>
      <point x="422" y="806" type="curve" smooth="yes"/>
      <point x="282" y="806" type="line"/>
      <point x="282" y="1452" type="line"/>
      <point x="99" y="1452" type="line"/>
      <point x="99" y="652" type="line"/>
    </contour>
  </outline>
</glyph>
<glyph name="primemod" format="2">
  <advance height="2479" width="489"/>
  <unicode hex="02B9"/>
  <outline>
    <contour>
      <point x="201" y="919" type="line"/>
      <point x="288" y="919" type="line"/>
      <point x="346" y="1489" type="line"/>
      <point x="143" y="1489" type="line"/>
    </contour>
  </outline>
</glyph>
<glyph name="commareversedmod" format="2">
  <advance height="2479" width="547"/>
  <unicode hex="02BD"/>
  <outline>
    <contour>
      <point x="281" y="992" type="curve"/>
      <point x="412" y="992" type="line"/>
      <point x="393" y="1084"/>
      <point x="351" y="1280"/>
      <point x="330" y="1478" type="curve" smooth="yes"/>
      <point x="321" y="1559" type="line"/>
      <point x="135" y="1559" type="line"/>
      <point x="147" y="1481" type="line" smooth="yes"/>
      <point x="172" y="1315"/>
      <point x="246" y="1091"/>
    </contour>
  </outline>
</glyph>
<glyph name="glottalstopreversedmod" format="2">
  <advance height="2479" width="919"/>
  <unicode hex="02C1"/>
  <outline>
    <contour>
      <point x="803" y="1516" type="line"/>
      <point x="797" y="1679"/>
      <point x="675" y="1807"/>
      <point x="483" y="1807" type="curve" smooth="yes"/>
      <point x="239" y="1807"/>
      <point x="116" y="1620"/>
      <point x="116" y="1405" type="curve" smooth="yes"/>
      <point x="116" y="1312" type="line" smooth="yes"/>
      <point x="116" y="1050"/>
      <point x="239" y="881"/>
      <point x="483" y="881" type="curve" smooth="yes"/>
      <point x="515" y="881" type="line"/>
      <point x="515" y="1033" type="line"/>
      <point x="483" y="1033" type="line" smooth="yes"/>
      <point x="317" y="1033"/>
      <point x="300" y="1178"/>
      <point x="300" y="1312" type="curve" smooth="yes"/>
      <point x="300" y="1405" type="line" smooth="yes"/>
      <point x="300" y="1542"/>
      <point x="337" y="1652"/>
      <point x="483" y="1652" type="curve" smooth="yes"/>
      <point x="591" y="1652"/>
      <point x="628" y="1594"/>
      <point x="643" y="1516" type="curve"/>
    </contour>
    <contour>
      <point x="367" y="1033" type="line"/>
      <point x="367" y="652" type="line"/>
      <point x="550" y="652" type="line"/>
      <point x="550" y="1033" type="line"/>
    </contour>
  </outline>
</glyph>
<glyph name="arrowheaddownmod" format="2">
  <advance height="2479" width="919"/>
  <unicode hex="02C5"/>
  <outline>
    <contour>
      <point x="407" y="585" type="line"/>
      <point x="529" y="585" type="line"/>
      <point x="826" y="1309" type="line"/>
      <point x="652" y="1309" type="line"/>
      <point x="477" y="858" type="line"/>
    </contour>
    <contour>
      <point x="393" y="585" type="line"/>
      <point x="512" y="585" type="line"/>
      <point x="439" y="858" type="line"/>
      <point x="268" y="1309" type="line"/>
      <point x="93" y="1309" type="line"/>
    </contour>
  </outline>
</glyph>
<glyph name="caron" format="2">
  <advance height="2479" width="931"/>
  <unicode hex="02C7"/>
  <anchor x="465" y="1303" name="_top"/>
  <outline>
    <contour>
      <point x="314" y="1565" type="line"/>
      <point x="151" y="1565" type="line"/>
      <point x="151" y="1553" type="line"/>
      <point x="387" y="1251" type="line"/>
      <point x="544" y="1251" type="line"/>
      <point x="780" y="1553" type="line"/>
      <point x="780" y="1565" type="line"/>
      <point x="617" y="1565" type="line"/>
      <point x="465" y="1361" type="line"/>
    </contour>
  </outline>
</glyph>
<glyph name="verticallinemod" format="2">
  <advance height="2479" width="361"/>
  <unicode hex="02C8"/>
  <outline>
    <contour>
      <point x="256" y="1559" type="line"/>
      <point x="105" y="1559" type="line"/>
      <point x="105" y="1152" type="line"/>
      <point x="256" y="1152" type="line"/>
    </contour>
  </outline>
</glyph>
<glyph name="verticallinelowmod" format="2">
  <advance height="2479" width="361"/>
  <unicode hex="02CC"/>
  <outline>
    <contour>
      <point x="256" y="-81" type="line"/>
      <point x="105" y="-81" type="line"/>
      <point x="105" y="-489" type="line"/>
      <point x="256" y="-489" type="line"/>
    </contour>
  </outline>
</glyph>
<glyph name="colontriangularhalfmod" format="2">
  <advance height="2479" width="547"/>
  <unicode hex="02D1"/>
  <outline>
    <contour>
      <point x="134" y="1082" type="line"/>
      <point x="265" y="861" type="line"/>
      <point x="285" y="861" type="line"/>
      <point x="416" y="1082" type="line"/>
    </contour>
  </outline>
</glyph>
<glyph name="uptackmod" format="2">
  <advance height="2479" width="733"/>
  <unicode hex="02D4"/>
  <outline>
    <contour>
      <point x="163" y="172" type="line"/>
      <point x="570" y="172" type="line"/>
      <point x="570" y="311" type="line"/>
      <point x="163" y="311" type="line"/>
    </contour>
    <contour>
      <point x="291" y="172" type="line"/>
      <point x="442" y="172" type="line"/>
      <point x="442" y="509" type="line"/>
      <point x="291" y="509" type="line"/>
    </contour>
  </outline>
</glyph>
<glyph name="plusmod" format="2">
  <advance height="2479" width="733"/>
  <unicode hex="02D6"/>
  <outline>
    <contour>
      <point x="442" y="553" type="line"/>
      <point x="291" y="553" type="line"/>
      <point x="291" y="151" type="line"/>
      <point x="442" y="151" type="line"/>
    </contour>
    <contour>
      <point x="163" y="422" type="line"/>
      <point x="163" y="282" type="line"/>
      <point x="570" y="282" type="line"/>
      <point x="570" y="422" type="line"/>
    </contour>
  </outline>
</glyph>
<glyph name="minusmod" format="2">
  <advance height="2479" width="547"/>
  <unicode hex="02D7"/>
  <outline>
    <contour>
      <point x="49" y="422" type="line"/>
      <point x="49" y="282" type="line"/>
      <point x="497" y="282" type="line"/>
      <point x="497" y="422" type="line"/>
    </contour>
  </outline>
</glyph>
<glyph name="breve" format="2">
  <advance height="2479" width="919"/>
  <unicode hex="02D8"/>
  <anchor x="460" y="1303" name="_top"/>
  <anchor x="460" y="1626" name="mkmktop_acc"/>
  <outline>
    <contour>
      <point x="602" y="1489" type="line"/>
      <point x="602" y="1414"/>
      <point x="561" y="1347"/>
      <point x="460" y="1347" type="curve" smooth="yes"/>
      <point x="358" y="1347"/>
      <point x="320" y="1414"/>
      <point x="320" y="1489" type="curve"/>
      <point x="160" y="1489" type="line"/>
      <point x="160" y="1332"/>
      <point x="276" y="1222"/>
      <point x="460" y="1222" type="curve" smooth="yes"/>
      <point x="646" y="1222"/>
      <point x="762" y="1332"/>
      <point x="762" y="1489" type="curve"/>
    </contour>
  </outline>
</glyph>
<glyph name="dotaccent" format="2">
  <advance height="2479" width="489"/>
  <unicode hex="02D9"/>
  <anchor x="244" y="1303" name="_top"/>
  <outline>
    <contour>
      <point x="244" y="1303" type="curve" smooth="yes"/>
      <point x="311" y="1303"/>
      <point x="367" y="1356"/>
      <point x="367" y="1420" type="curve" smooth="yes"/>
      <point x="367" y="1484"/>
      <point x="311" y="1536"/>
      <point x="244" y="1536" type="curve" smooth="yes"/>
      <point x="177" y="1536"/>
      <point x="122" y="1484"/>
      <point x="122" y="1420" type="curve" smooth="yes"/>
      <point x="122" y="1356"/>
      <point x="177" y="1303"/>
    </contour>
  </outline>
</glyph>
<glyph name="ring" format="2">
  <advance height="2479" width="640"/>
  <unicode hex="02DA"/>
  <anchor x="320" y="1303" name="_top"/>
  <outline>
    <contour>
      <point x="320" y="1242" type="curve" smooth="yes"/>
      <point x="468" y="1242"/>
      <point x="582" y="1350"/>
      <point x="582" y="1489" type="curve" smooth="yes"/>
      <point x="582" y="1629"/>
      <point x="468" y="1745"/>
      <point x="320" y="1745" type="curve" smooth="yes"/>
      <point x="172" y="1745"/>
      <point x="55" y="1629"/>
      <point x="55" y="1489" type="curve" smooth="yes"/>
      <point x="55" y="1350"/>
      <point x="172" y="1242"/>
    </contour>
    <contour>
      <point x="320" y="1353" type="curve" smooth="yes"/>
      <point x="239" y="1353"/>
      <point x="180" y="1420"/>
      <point x="180" y="1489" type="curve" smooth="yes"/>
      <point x="180" y="1562"/>
      <point x="239" y="1632"/>
      <point x="320" y="1632" type="curve" smooth="yes"/>
      <point x="401" y="1632"/>
      <point x="460" y="1562"/>
      <point x="460" y="1489" type="curve" smooth="yes"/>
      <point x="460" y="1420"/>
      <point x="401" y="1353"/>
    </contour>
  </outline>
</glyph>
<glyph name="ogonek" format="2">
  <advance height="2479" width="547"/>
  <unicode hex="02DB"/>
  <anchor x="436" y="0" name="_ogonek"/>
  <outline>
    <contour>
      <point x="300" y="-436" type="curve" smooth="yes"/>
      <point x="369" y="-436"/>
      <point x="422" y="-413"/>
      <point x="454" y="-393" type="curve"/>
      <point x="442" y="-265" type="line"/>
      <point x="422" y="-276"/>
      <point x="387" y="-291"/>
      <point x="343" y="-291" type="curve" smooth="yes"/>
      <point x="285" y="-291"/>
      <point x="268" y="-265"/>
      <point x="268" y="-221" type="curve" smooth="yes"/>
      <point x="268" y="-134"/>
      <point x="349" y="-64"/>
      <point x="436" y="0" type="curve"/>
      <point x="358" y="61" type="line"/>
      <point x="166" y="-26"/>
      <point x="93" y="-137"/>
      <point x="93" y="-244" type="curve" smooth="yes"/>
      <point x="93" y="-369"/>
      <point x="180" y="-436"/>
    </contour>
  </outline>
</glyph>
<glyph name="tilde" format="2">
  <advance height="2479" width="1024"/>
  <unicode hex="02DC"/>
  <anchor x="512" y="1303" name="_top"/>
  <anchor x="512" y="1676" name="top"/>
  <outline>
    <contour>
      <point x="288" y="1251" type="line"/>
      <point x="288" y="1312"/>
      <point x="329" y="1361"/>
      <point x="384" y="1361" type="curve" smooth="yes"/>
      <point x="495" y="1361"/>
      <point x="515" y="1268"/>
      <point x="649" y="1268" type="curve" smooth="yes"/>
      <point x="774" y="1268"/>
      <point x="870" y="1364"/>
      <point x="870" y="1516" type="curve"/>
      <point x="739" y="1527" type="line"/>
      <point x="739" y="1466"/>
      <point x="695" y="1417"/>
      <point x="640" y="1417" type="curve" smooth="yes"/>
      <point x="535" y="1417"/>
      <point x="486" y="1510"/>
      <point x="375" y="1510" type="curve" smooth="yes"/>
      <point x="250" y="1510"/>
      <point x="154" y="1405"/>
      <point x="154" y="1257" type="curve"/>
    </contour>
  </outline>
</glyph>
<glyph name="hungarumlaut" format="2">
  <advance height="2479" width="756"/>
  <unicode hex="02DD"/>
  <anchor x="352" y="1292" name="_top"/>
  <anchor x="352" y="1620" name="mkmktop_acc"/>
  <outline>
    <contour>
      <point x="396" y="1228" type="line"/>
      <point x="547" y="1228" type="line"/>
      <point x="812" y="1536" type="line"/>
      <point x="620" y="1536" type="line"/>
    </contour>
    <contour>
      <point x="96" y="1228" type="line"/>
      <point x="233" y="1228" type="line"/>
      <point x="448" y="1536" type="line"/>
      <point x="259" y="1536" type="line"/>
    </contour>
  </outline>
</glyph>
<glyph name="crossaccentmod" format="2">
  <advance height="2479" width="733"/>
  <unicode hex="02DF"/>
  <outline>
    <contour>
      <point x="221" y="1161" type="line"/>
      <point x="611" y="1553" type="line"/>
      <point x="512" y="1652" type="line"/>
      <point x="122" y="1260" type="line"/>
    </contour>
    <contour>
      <point x="512" y="1158" type="line"/>
      <point x="611" y="1260" type="line"/>
      <point x="224" y="1655" type="line"/>
      <point x="125" y="1553" type="line"/>
    </contour>
  </outline>
</glyph>
<glyph name="gammamod-latin" format="2">
  <advance height="2479" width="919"/>
  <unicode hex="02E0"/>
  <outline>
    <contour>
      <point x="465" y="919" type="line"/>
      <point x="422" y="652" type="line"/>
      <point x="547" y="652" type="line"/>
      <point x="835" y="1452" type="line"/>
      <point x="634" y="1452" type="line"/>
    </contour>
    <contour>
      <point x="288" y="1452" type="line"/>
      <point x="87" y="1452" type="line"/>
      <point x="375" y="652" type="line"/>
      <point x="500" y="652" type="line"/>
      <point x="457" y="919" type="line"/>
    </contour>
    <contour>
      <point x="454" y="212" type="curve" smooth="yes"/>
      <point x="579" y="212"/>
      <point x="655" y="279"/>
      <point x="655" y="393" type="curve" smooth="yes"/>
      <point x="655" y="425"/>
      <point x="646" y="463"/>
      <point x="625" y="512" type="curve" smooth="yes"/>
      <point x="535" y="727" type="line"/>
      <point x="384" y="727" type="line"/>
      <point x="428" y="611" type="line" smooth="yes"/>
      <point x="471" y="495"/>
      <point x="495" y="442"/>
      <point x="495" y="401" type="curve" smooth="yes"/>
      <point x="495" y="378"/>
      <point x="486" y="358"/>
      <point x="454" y="358" type="curve" smooth="yes"/>
      <point x="425" y="358"/>
      <point x="413" y="375"/>
      <point x="413" y="401" type="curve" smooth="yes"/>
      <point x="413" y="439"/>
      <point x="439" y="492"/>
      <point x="483" y="605" type="curve" smooth="yes"/>
      <point x="529" y="727" type="line"/>
      <point x="381" y="727" type="line"/>
      <point x="288" y="506" type="line" smooth="yes"/>
      <point x="265" y="454"/>
      <point x="256" y="422"/>
      <point x="256" y="393" type="curve" smooth="yes"/>
      <point x="256" y="279"/>
      <point x="329" y="212"/>
    </contour>
  </outline>
</glyph>
<glyph name="xmod" format="2">
  <advance height="2479" width="753"/>
  <unicode hex="02E3"/>
  <outline>
    <contour>
      <point x="218" y="1489" type="line"/>
      <point x="58" y="1489" type="line"/>
      <point x="276" y="1120" type="line"/>
      <point x="47" y="745" type="line"/>
      <point x="209" y="745" type="line"/>
      <point x="378" y="1030" type="line"/>
      <point x="547" y="745" type="line"/>
      <point x="707" y="745" type="line"/>
      <point x="477" y="1120" type="line"/>
      <point x="698" y="1489" type="line"/>
      <point x="535" y="1489" type="line"/>
      <point x="378" y="1207" type="line"/>
    </contour>
  </outline>
</glyph>
<glyph name="yindepartingtonemod" format="2">
  <advance height="2479" width="733"/>
  <unicode hex="02EA"/>
  <outline>
    <contour>
      <point x="652" y="160" type="line"/>
      <point x="201" y="160" type="line"/>
      <point x="201" y="0" type="line"/>
      <point x="652" y="0" type="line"/>
    </contour>
    <contour>
      <point x="282" y="908" type="line"/>
      <point x="84" y="908" type="line"/>
      <point x="84" y="0" type="line"/>
      <point x="282" y="0" type="line"/>
    </contour>
  </outline>
</glyph>
<glyph name="yangdepartingtone" format="2">
  <advance height="2479" width="733"/>
  <unicode hex="02EB"/>
  <outline>
    <contour>
      <point x="620" y="538" type="line"/>
      <point x="230" y="538" type="line"/>
      <point x="230" y="378" type="line"/>
      <point x="620" y="378" type="line"/>
    </contour>
    <contour>
      <point x="314" y="908" type="line"/>
      <point x="113" y="908" type="line"/>
      <point x="113" y="0" type="line"/>
      <point x="314" y="0" type="line"/>
    </contour>
  </outline>
</glyph>
<glyph name="voicingmod" format="2">
  <advance height="2479" width="919"/>
  <unicode hex="02EC"/>
  <outline>
    <contour>
      <point x="311" y="-131" type="line"/>
      <point x="145" y="-131" type="line"/>
      <point x="145" y="-140" type="line"/>
      <point x="399" y="-416" type="line"/>
      <point x="518" y="-416" type="line"/>
      <point x="777" y="-140" type="line"/>
      <point x="777" y="-131" type="line"/>
      <point x="605" y="-131" type="line"/>
      <point x="460" y="-297" type="line"/>
    </contour>
  </outline>
</glyph>
<glyph name="doubleapostrophemod" format="2">
  <advance height="2479" width="919"/>
  <unicode hex="02EE"/>
  <outline>
    <contour>
      <point x="442" y="1559" type="line"/>
      <point x="244" y="1559" type="line"/>
      <point x="244" y="1373" type="line" smooth="yes"/>
      <point x="244" y="1257"/>
      <point x="212" y="1158"/>
      <point x="148" y="1065" type="curve"/>
      <point x="262" y="986" type="line"/>
      <point x="378" y="1085"/>
      <point x="442" y="1248"/>
      <point x="442" y="1376" type="curve" smooth="yes"/>
    </contour>
    <contour>
      <point x="774" y="1559" type="line"/>
      <point x="576" y="1559" type="line"/>
      <point x="576" y="1373" type="line" smooth="yes"/>
      <point x="576" y="1257"/>
      <point x="541" y="1158"/>
      <point x="477" y="1065" type="curve"/>
      <point x="591" y="986" type="line"/>
      <point x="707" y="1085"/>
      <point x="774" y="1248"/>
      <point x="774" y="1376" type="curve" smooth="yes"/>
    </contour>
  </outline>
</glyph>
<glyph name="lowdownarrowheadmod" format="2">
  <advance height="2479" width="733"/>
  <unicode hex="02EF"/>
  <outline>
    <contour>
      <point x="320" y="-544" type="line"/>
      <point x="404" y="-544" type="line"/>
      <point x="355" y="-367" type="line"/>
      <point x="233" y="-73" type="line"/>
      <point x="111" y="-73" type="line"/>
    </contour>
    <contour>
      <point x="332" y="-544" type="line"/>
      <point x="416" y="-544" type="line"/>
      <point x="623" y="-73" type="line"/>
      <point x="500" y="-73" type="line"/>
      <point x="381" y="-367" type="line"/>
    </contour>
  </outline>
</glyph>
<glyph name="lowtildemod" format="2">
  <advance height="2479" width="919"/>
  <unicode hex="02F7"/>
  <outline>
    <contour>
      <point x="687" y="-166" type="line"/>
      <point x="687" y="-227"/>
      <point x="643" y="-276"/>
      <point x="588" y="-276" type="curve" smooth="yes"/>
      <point x="483" y="-276"/>
      <point x="433" y="-183"/>
      <point x="323" y="-183" type="curve" smooth="yes"/>
      <point x="198" y="-183"/>
      <point x="102" y="-285"/>
      <point x="102" y="-436" type="curve"/>
      <point x="236" y="-442" type="line"/>
      <point x="236" y="-381"/>
      <point x="276" y="-332"/>
      <point x="332" y="-332" type="curve" smooth="yes"/>
      <point x="442" y="-332"/>
      <point x="463" y="-425"/>
      <point x="599" y="-425" type="curve" smooth="yes"/>
      <point x="721" y="-425"/>
      <point x="817" y="-329"/>
      <point x="817" y="-177" type="curve"/>
    </contour>
  </outline>
</glyph>
<glyph name="beginhightonemod" format="2">
  <advance height="2479" width="547"/>
  <unicode hex="02F9"/>
  <outline>
    <contour>
      <point x="76" y="1149" type="line"/>
      <point x="224" y="1149" type="line"/>
      <point x="224" y="1536" type="line"/>
      <point x="76" y="1536" type="line"/>
    </contour>
    <contour>
      <point x="76" y="1396" type="line"/>
      <point x="474" y="1396" type="line"/>
      <point x="474" y="1536" type="line"/>
      <point x="76" y="1536" type="line"/>
    </contour>
  </outline>
</glyph>
<glyph name="beginlowtonemod" format="2">
  <advance height="2479" width="547"/>
  <unicode hex="02FB"/>
  <outline>
    <contour>
      <point x="76" y="-477" type="line"/>
      <point x="224" y="-477" type="line"/>
      <point x="224" y="-90" type="line"/>
      <point x="76" y="-90" type="line"/>
    </contour>
    <contour>
      <point x="76" y="-477" type="line"/>
      <point x="474" y="-477" type="line"/>
      <point x="474" y="-337" type="line"/>
      <point x="76" y="-337" type="line"/>
    </contour>
  </outline>
</glyph>
<glyph name="shelfmod" format="2">
  <advance height="2479" width="919"/>
  <unicode hex="02FD"/>
  <outline>
    <contour>
      <point x="663" y="-335" type="line"/>
      <point x="253" y="-335" type="line"/>
      <point x="253" y="-457" type="line"/>
      <point x="663" y="-457" type="line"/>
    </contour>
    <contour>
      <point x="271" y="-102" type="line"/>
      <point x="119" y="-102" type="line"/>
      <point x="119" y="-457" type="line"/>
      <point x="271" y="-457" type="line"/>
    </contour>
    <contour>
      <point x="800" y="-102" type="line"/>
      <point x="649" y="-102" type="line"/>
      <point x="649" y="-457" type="line"/>
      <point x="800" y="-457" type="line"/>
    </contour>
  </outline>
</glyph>
<glyph name="lowleftarrowmod" format="2">
  <advance height="2479" width="919"/>
  <unicode hex="02FF"/>
  <outline>
    <contour>
      <point x="847" y="-73" type="line"/>
      <point x="198" y="-73" type="line"/>
      <point x="198" y="-195" type="line"/>
      <point x="847" y="-195" type="line"/>
    </contour>
    <contour>
      <point x="375" y="169" type="line"/>
      <point x="73" y="-134" type="line"/>
      <point x="169" y="-212" type="line"/>
      <point x="550" y="169" type="line"/>
    </contour>
    <contour>
      <point x="550" y="-436" type="line"/>
      <point x="175" y="-61" type="line"/>
      <point x="73" y="-134" type="line"/>
      <point x="375" y="-436" type="line"/>
    </contour>
  </outline>
</glyph>
<glyph name="brevecomb" format="2">
  <advance height="2479"/>
  <unicode hex="0306"/>
  <outline>
    <contour>
      <point x="-448" y="1495" type="line"/>
      <point x="-448" y="1420"/>
      <point x="-489" y="1353"/>
      <point x="-588" y="1353" type="curve" smooth="yes"/>
      <point x="-689" y="1353"/>
      <point x="-730" y="1420"/>
      <point x="-730" y="1495" type="curve"/>
      <point x="-890" y="1495" type="line"/>
      <point x="-890" y="1338"/>
      <point x="-774" y="1228"/>
      <point x="-588" y="1228" type="curve" smooth="yes"/>
      <point x="-404" y="1228"/>
      <point x="-288" y="1338"/>
      <point x="-288" y="1495" type="curve"/>
    </contour>
  </outline>
</glyph>
<glyph name="caroncomb" format="2">
  <advance height="2479"/>
  <unicode hex="030C"/>
  <anchor x="-591" y="1199" name="_top"/>
  <outline>
    <contour>
      <point x="-652" y="1254" type="line"/>
      <point x="-532" y="1254" type="line"/>
      <point x="-282" y="1527" type="line"/>
      <point x="-282" y="1539" type="line"/>
      <point x="-445" y="1539" type="line"/>
      <point x="-593" y="1370" type="line"/>
      <point x="-736" y="1539" type="line"/>
      <point x="-899" y="1539" type="line"/>
      <point x="-899" y="1527" type="line"/>
    </contour>
  </outline>
</glyph>
<glyph name="dblgravecomb" format="2">
  <advance height="2479"/>
  <unicode hex="030F"/>
  <anchor x="-471" y="1303" name="_top"/>
  <outline>
    <contour>
      <point x="-697" y="1268" type="line"/>
      <point x="-545" y="1268" type="line"/>
      <point x="-723" y="1606" type="line"/>
      <point x="-937" y="1606" type="line"/>
    </contour>
    <contour>
      <point x="-388" y="1268" type="line"/>
      <point x="-239" y="1268" type="line"/>
      <point x="-348" y="1606" type="line"/>
      <point x="-566" y="1606" type="line"/>
    </contour>
  </outline>
</glyph>
<glyph name="candraBinducomb" format="2">
  <advance height="2479"/>
  <unicode hex="0310"/>
  <outline>
    <contour>
      <point x="-591" y="1216" type="curve" smooth="yes"/>
      <point x="-404" y="1216"/>
      <point x="-288" y="1327"/>
      <point x="-288" y="1487" type="curve"/>
      <point x="-448" y="1487" type="line"/>
      <point x="-448" y="1408"/>
      <point x="-489" y="1341"/>
      <point x="-591" y="1341" type="curve" smooth="yes"/>
      <point x="-692" y="1341"/>
      <point x="-730" y="1408"/>
      <point x="-730" y="1487" type="curve"/>
      <point x="-890" y="1487" type="line"/>
      <point x="-890" y="1329"/>
      <point x="-777" y="1216"/>
    </contour>
    <contour>
      <point x="-591" y="1452" type="curve" smooth="yes"/>
      <point x="-509" y="1452"/>
      <point x="-471" y="1498"/>
      <point x="-471" y="1559" type="curve" smooth="yes"/>
      <point x="-471" y="1620"/>
      <point x="-512" y="1670"/>
      <point x="-588" y="1670" type="curve" smooth="yes"/>
      <point x="-657" y="1670"/>
      <point x="-701" y="1629"/>
      <point x="-701" y="1556" type="curve" smooth="yes"/>
      <point x="-701" y="1498"/>
      <point x="-672" y="1452"/>
    </contour>
  </outline>
</glyph>
<glyph name="righttackbelowcomb" format="2">
  <advance height="2479"/>
  <unicode hex="0319"/>
  <anchor x="-582" y="0" name="_bottom"/>
  <outline>
    <contour>
      <point x="-785" y="-445" type="line"/>
      <point x="-637" y="-445" type="line"/>
      <point x="-637" y="-61" type="line"/>
      <point x="-785" y="-61" type="line"/>
    </contour>
    <contour>
      <point x="-777" y="-323" type="line"/>
      <point x="-387" y="-323" type="line"/>
      <point x="-387" y="-183" type="line"/>
      <point x="-777" y="-183" type="line"/>
    </contour>
  </outline>
</glyph>
<glyph name="commaaccentcomb" format="2">
  <advance height="2479"/>
  <unicode hex="0326"/>
  <anchor x="-604" y="0" name="_bottom"/>
  <outline>
    <contour>
      <point x="-516" y="-145" type="line"/>
      <point x="-691" y="-145" type="line"/>
      <point x="-691" y="-228" type="line" smooth="yes"/>
      <point x="-691" y="-323"/>
      <point x="-732" y="-401"/>
      <point x="-781" y="-477" type="curve"/>
      <point x="-668" y="-556" type="line"/>
      <point x="-566" y="-471"/>
      <point x="-516" y="-332"/>
      <point x="-516" y="-224" type="curve" smooth="yes"/>
    </contour>
  </outline>
</glyph>
<glyph name="cedillacomb" format="2">
  <advance height="2479"/>
  <unicode hex="0327"/>
  <outline>
    <contour>
      <point x="-678" y="0" type="line"/>
      <point x="-710" y="-137" type="line"/>
      <point x="-599" y="-145"/>
      <point x="-553" y="-163"/>
      <point x="-553" y="-230" type="curve" smooth="yes"/>
      <point x="-553" y="-297"/>
      <point x="-623" y="-323"/>
      <point x="-710" y="-323" type="curve"/>
      <point x="-704" y="-436" type="line"/>
      <point x="-503" y="-436"/>
      <point x="-399" y="-349"/>
      <point x="-399" y="-224" type="curve" smooth="yes"/>
      <point x="-399" y="-108"/>
      <point x="-474" y="-64"/>
      <point x="-550" y="-52" type="curve"/>
      <point x="-535" y="0" type="line"/>
    </contour>
  </outline>
</glyph>
<glyph name="bridgebelowcomb" format="2">
  <advance height="2479"/>
  <unicode hex="032A"/>
  <anchor x="-611" y="0" name="_bottom"/>
  <outline>
    <contour>
      <point x="-951" y="-465" type="line"/>
      <point x="-800" y="-465" type="line"/>
      <point x="-800" y="-111" type="line"/>
      <point x="-951" y="-111" type="line"/>
    </contour>
    <contour>
      <point x="-820" y="-233" type="line"/>
      <point x="-407" y="-233" type="line"/>
      <point x="-407" y="-111" type="line"/>
      <point x="-820" y="-111" type="line"/>
    </contour>
    <contour>
      <point x="-422" y="-465" type="line"/>
      <point x="-271" y="-465" type="line"/>
      <point x="-271" y="-111" type="line"/>
      <point x="-422" y="-111" type="line"/>
    </contour>
  </outline>
</glyph>
<glyph name="caronbelowcomb" format="2">
  <advance height="2479"/>
  <unicode hex="032C"/>
  <outline>
    <contour>
      <point x="-649" y="-416" type="line"/>
      <point x="-529" y="-416" type="line"/>
      <point x="-279" y="-140" type="line"/>
      <point x="-279" y="-128" type="line"/>
      <point x="-442" y="-128" type="line"/>
      <point x="-591" y="-297" type="line"/>
      <point x="-733" y="-128" type="line"/>
      <point x="-896" y="-128" type="line"/>
      <point x="-896" y="-140" type="line"/>
    </contour>
  </outline>
</glyph>
<glyph name="brevebelowcomb" format="2">
  <advance height="2479"/>
  <unicode hex="032E"/>
  <anchor x="-588" y="0" name="_bottom"/>
  <outline>
    <contour>
      <point x="-448" y="-96" type="line"/>
      <point x="-448" y="-172"/>
      <point x="-489" y="-241"/>
      <point x="-591" y="-241" type="curve" smooth="yes"/>
      <point x="-689" y="-241"/>
      <point x="-730" y="-175"/>
      <point x="-730" y="-96" type="curve"/>
      <point x="-890" y="-96" type="line"/>
      <point x="-890" y="-250"/>
      <point x="-774" y="-367"/>
      <point x="-588" y="-367" type="curve" smooth="yes"/>
      <point x="-404" y="-367"/>
      <point x="-288" y="-256"/>
      <point x="-288" y="-96" type="curve"/>
    </contour>
  </outline>
</glyph>
<glyph name="dbllowlinecomb" format="2">
  <advance height="2479"/>
  <unicode hex="0333"/>
  <outline>
    <contour>
      <point x="-125" y="-84" type="line"/>
      <point x="-1056" y="-84" type="line"/>
      <point x="-1056" y="-244" type="line"/>
      <point x="-125" y="-244" type="line"/>
    </contour>
    <contour>
      <point x="-125" y="-340" type="line"/>
      <point x="-1056" y="-340" type="line"/>
      <point x="-1056" y="-500" type="line"/>
      <point x="-125" y="-500" type="line"/>
    </contour>
  </outline>
</glyph>
<glyph name="slashshortcomb" format="2">
  <advance height="2479"/>
  <unicode hex="0337"/>
  <outline>
    <contour>
      <point x="-201" y="1207" type="line"/>
      <point x="-332" y="1207" type="line"/>
      <point x="-995" y="-134" type="line"/>
      <point x="-864" y="-134" type="line"/>
    </contour>
  </outline>
</glyph>
<glyph name="slashlongcomb" format="2">
  <advance height="2479"/>
  <unicode hex="0338"/>
  <outline>
    <contour>
      <point x="-84" y="1519" type="line"/>
      <point x="-186" y="1519" type="line"/>
      <point x="-1193" y="-96" type="line"/>
      <point x="-1091" y="-96" type="line"/>
    </contour>
  </outline>
</glyph>
<glyph name="seagullbelowcomb" format="2">
  <advance height="2479"/>
  <unicode hex="033C"/>
  <outline>
    <contour>
      <point x="-502" y="-374" type="line"/>
      <point x="-502" y="-293"/>
      <point x="-455" y="-250"/>
      <point x="-374" y="-250" type="curve" smooth="yes"/>
      <point x="-293" y="-250"/>
      <point x="-246" y="-293"/>
      <point x="-246" y="-374" type="curve"/>
      <point x="-144" y="-374" type="line"/>
      <point x="-144" y="-231"/>
      <point x="-233" y="-134"/>
      <point x="-374" y="-134" type="curve" smooth="yes"/>
      <point x="-514" y="-134"/>
      <point x="-604" y="-231"/>
      <point x="-604" y="-374" type="curve"/>
    </contour>
    <contour>
      <point x="-860" y="-374" type="line"/>
      <point x="-860" y="-293"/>
      <point x="-812" y="-250"/>
      <point x="-732" y="-250" type="curve" smooth="yes"/>
      <point x="-651" y="-250"/>
      <point x="-604" y="-293"/>
      <point x="-604" y="-374" type="curve"/>
      <point x="-502" y="-374" type="line"/>
      <point x="-502" y="-231"/>
      <point x="-591" y="-134"/>
      <point x="-732" y="-134" type="curve" smooth="yes"/>
      <point x="-872" y="-134"/>
      <point x="-961" y="-231"/>
      <point x="-961" y="-374" type="curve"/>
    </contour>
  </outline>
</glyph>
<glyph name="dbloverlinecomb" format="2">
  <advance height="2479"/>
  <unicode hex="033F"/>
  <outline>
    <contour>
      <point x="-125" y="1644" type="line"/>
      <point x="-1050" y="1644" type="line"/>
      <point x="-1050" y="1484" type="line"/>
      <point x="-125" y="1484" type="line"/>
    </contour>
    <contour>
      <point x="-125" y="1900" type="line"/>
      <point x="-1050" y="1900" type="line"/>
      <point x="-1050" y="1740" type="line"/>
      <point x="-125" y="1740" type="line"/>
    </contour>
  </outline>
</glyph>
<glyph name="nottildeabovecomb" format="2">
  <advance height="2479"/>
  <unicode hex="034A"/>
  <outline>
    <contour>
      <point x="-477" y="1268" type="curve" smooth="yes"/>
      <point x="-352" y="1268"/>
      <point x="-256" y="1364"/>
      <point x="-256" y="1516" type="curve"/>
      <point x="-387" y="1527" type="line"/>
      <point x="-387" y="1466"/>
      <point x="-431" y="1417"/>
      <point x="-486" y="1417" type="curve" smooth="yes"/>
      <point x="-591" y="1417"/>
      <point x="-640" y="1510"/>
      <point x="-751" y="1510" type="curve" smooth="yes"/>
      <point x="-876" y="1510"/>
      <point x="-972" y="1405"/>
      <point x="-972" y="1257" type="curve"/>
      <point x="-838" y="1251" type="line"/>
      <point x="-838" y="1312"/>
      <point x="-797" y="1361"/>
      <point x="-742" y="1361" type="curve" smooth="yes"/>
      <point x="-631" y="1361"/>
      <point x="-611" y="1268"/>
    </contour>
    <contour>
      <point x="-634" y="1187" type="line"/>
      <point x="-445" y="1513" type="line"/>
      <point x="-541" y="1574" type="line"/>
      <point x="-730" y="1248" type="line"/>
    </contour>
  </outline>
</glyph>
<glyph name="homotheticabovecomb" format="2">
  <advance height="2479"/>
  <unicode hex="034B"/>
  <outline>
    <contour>
      <point x="-410" y="1632" type="line"/>
      <point x="-410" y="1571"/>
      <point x="-451" y="1521"/>
      <point x="-506" y="1521" type="curve" smooth="yes"/>
      <point x="-611" y="1521"/>
      <point x="-663" y="1615"/>
      <point x="-774" y="1615" type="curve" smooth="yes"/>
      <point x="-896" y="1615"/>
      <point x="-992" y="1510"/>
      <point x="-992" y="1361" type="curve"/>
      <point x="-861" y="1353" type="line"/>
      <point x="-861" y="1414"/>
      <point x="-817" y="1463"/>
      <point x="-762" y="1463" type="curve" smooth="yes"/>
      <point x="-655" y="1463"/>
      <point x="-631" y="1370"/>
      <point x="-497" y="1370" type="curve" smooth="yes"/>
      <point x="-375" y="1370"/>
      <point x="-276" y="1469"/>
      <point x="-276" y="1617" type="curve"/>
    </contour>
    <contour>
      <point x="-748" y="1745" type="curve" smooth="yes"/>
      <point x="-748" y="1684"/>
      <point x="-707" y="1638"/>
      <point x="-634" y="1638" type="curve" smooth="yes"/>
      <point x="-559" y="1638"/>
      <point x="-518" y="1684"/>
      <point x="-518" y="1745" type="curve" smooth="yes"/>
      <point x="-518" y="1807"/>
      <point x="-559" y="1856"/>
      <point x="-634" y="1856" type="curve" smooth="yes"/>
      <point x="-710" y="1856"/>
      <point x="-748" y="1804"/>
    </contour>
    <contour>
      <point x="-748" y="1245" type="curve" smooth="yes"/>
      <point x="-748" y="1184"/>
      <point x="-707" y="1137"/>
      <point x="-634" y="1137" type="curve" smooth="yes"/>
      <point x="-559" y="1137"/>
      <point x="-518" y="1184"/>
      <point x="-518" y="1245" type="curve" smooth="yes"/>
      <point x="-518" y="1306"/>
      <point x="-559" y="1356"/>
      <point x="-634" y="1356" type="curve" smooth="yes"/>
      <point x="-710" y="1356"/>
      <point x="-748" y="1303"/>
    </contour>
  </outline>
</glyph>
<glyph name="doublebrevecomb" format="2">
  <advance height="2479"/>
  <unicode hex="035D"/>
  <anchor x="0" y="1161" name="_marktop_dd"/>
  <outline>
    <contour>
      <point x="0" y="1187" type="curve" smooth="yes"/>
      <point x="337" y="1187"/>
      <point x="596" y="1335"/>
      <point x="701" y="1487" type="curve"/>
      <point x="541" y="1487" type="line"/>
      <point x="465" y="1411"/>
      <point x="233" y="1312"/>
      <point x="0" y="1312" type="curve" smooth="yes"/>
      <point x="-230" y="1312"/>
      <point x="-460" y="1408"/>
      <point x="-541" y="1487" type="curve"/>
      <point x="-701" y="1487" type="line"/>
      <point x="-596" y="1335"/>
      <point x="-335" y="1187"/>
    </contour>
  </outline>
</glyph>
<glyph name="tildedoublecomb" format="2">
  <advance height="2479"/>
  <unicode hex="0360"/>
  <outline>
    <contour>
      <point x="-841" y="1248" type="line"/>
      <point x="-809" y="1329"/>
      <point x="-736" y="1367"/>
      <point x="-640" y="1367" type="curve" smooth="yes"/>
      <point x="-329" y="1367"/>
      <point x="271" y="1265"/>
      <point x="637" y="1265" type="curve" smooth="yes"/>
      <point x="806" y="1265"/>
      <point x="928" y="1359"/>
      <point x="948" y="1492" type="curve"/>
      <point x="838" y="1527" type="line"/>
      <point x="815" y="1443"/>
      <point x="733" y="1405"/>
      <point x="637" y="1405" type="curve" smooth="yes"/>
      <point x="340" y="1405"/>
      <point x="-326" y="1510"/>
      <point x="-640" y="1510" type="curve" smooth="yes"/>
      <point x="-812" y="1510"/>
      <point x="-928" y="1396"/>
      <point x="-948" y="1274" type="curve"/>
    </contour>
  </outline>
</glyph>
<glyph name="arrowdoublerightbelowcomb" format="2">
  <advance height="2479"/>
  <unicode hex="0362"/>
  <outline>
    <contour>
      <point x="721" y="-285" type="line"/>
      <point x="-689" y="-285" type="line"/>
      <point x="-689" y="-375" type="line"/>
      <point x="721" y="-375" type="line"/>
    </contour>
    <contour>
      <point x="535" y="-556" type="line"/>
      <point x="835" y="-332" type="line"/>
      <point x="739" y="-273" type="line"/>
      <point x="361" y="-556" type="line"/>
    </contour>
    <contour>
      <point x="361" y="-108" type="line"/>
      <point x="736" y="-384" type="line"/>
      <point x="835" y="-332" type="line"/>
      <point x="535" y="-108" type="line"/>
    </contour>
  </outline>
</glyph>
<glyph name="ocomb" format="2">
  <advance height="2479"/>
  <unicode hex="0366"/>
  <outline>
    <contour>
      <point x="-561" y="1187" type="curve" smooth="yes"/>
      <point x="-404" y="1187"/>
      <point x="-300" y="1300"/>
      <point x="-300" y="1466" type="curve" smooth="yes"/>
      <point x="-300" y="1478" type="line" smooth="yes"/>
      <point x="-300" y="1647"/>
      <point x="-404" y="1760"/>
      <point x="-561" y="1760" type="curve" smooth="yes"/>
      <point x="-716" y="1760"/>
      <point x="-823" y="1649"/>
      <point x="-823" y="1478" type="curve" smooth="yes"/>
      <point x="-823" y="1466" type="line" smooth="yes"/>
      <point x="-823" y="1297"/>
      <point x="-716" y="1187"/>
    </contour>
    <contour>
      <point x="-561" y="1295" type="curve" smooth="yes"/>
      <point x="-652" y="1295"/>
      <point x="-692" y="1361"/>
      <point x="-692" y="1467" type="curve" smooth="yes"/>
      <point x="-692" y="1478" type="line" smooth="yes"/>
      <point x="-692" y="1585"/>
      <point x="-652" y="1652"/>
      <point x="-561" y="1652" type="curve" smooth="yes"/>
      <point x="-471" y="1652"/>
      <point x="-431" y="1585"/>
      <point x="-431" y="1478" type="curve" smooth="yes"/>
      <point x="-431" y="1466" type="line" smooth="yes"/>
      <point x="-431" y="1361"/>
      <point x="-471" y="1295"/>
    </contour>
  </outline>
</glyph>
